<svg   version="1.1" viewBox="0 0 128 128" xml:space="preserve" xmlns="http://www.w3.org/2000/svg"><g transform="matrix(.45696 0 0 .45608 428.88 -1239.6)"><path d="m-938.54 2718v280.11h0.00113v0.5382h280.1v-0.5382h0.01131v-280.11h-140.05-140.06zm160.58 35.07c2.239 0 4.7179 0.0169 7.4807 0.0509l16.048 0.1972 2.3341 1.0469c5.2113 2.3376 7.3023 5.7562 7.2816 11.908-0.0151 4.6637-1.3833 8.1786-3.8585 9.9142-3.712 2.6033-6.6359 3.0072-23.264 3.2212l-15.755 0.2029-1.8456 0.9891c-4.3382 2.3231-5.3526 5.1966-5.8466 16.556l-0.35962 8.2508 22.14 0.4215 3.4491 1.7641c4.0254 2.0587 5.8371 4.7122 6.4233 9.4043 0.4894 3.9167-0.89006 8.7632-3.0771 10.81-3.7688 3.5274-8.4674 4.5696-20.749 4.5696h-8.0348l0.07237 46.602 2.4551 1.4401c3.3366 1.9558 8.7117 7.7032 10.492 11.219 4.5278 8.9406 4.5229 19.017-0.01357 27.976-3.4929 6.8975-12.359 13.396-20.239 14.835-9.9862 1.824-19.574-1.1037-26.591-8.1205-13.028-13.028-10.947-34.698 4.3437-45.229l3.2422-2.2332v-46.49h-4.5223c-13.763-0.013-19.749-3.4723-20.41-11.795-0.54998-6.9246 1.5643-10.96 6.974-13.308 2.4975-1.0842 4.4649-1.3868 10.446-1.6112l7.3687-0.2765 0.31438-9.9912c0.18146-5.7676 0.7023-11.719 1.2315-14.077 1.9948-8.8877 8.0232-17.426 15.986-22.642 6.9152-4.529 10.812-5.5909 26.484-5.6052v-0.0022zm-31.108 141.96v0.0011c-9.4138 0.2108-13.954 13.779-4.8209 19.444 1.9025 1.169 2.8595 1.377 5.911 1.2044 4.0064-0.2243 5.9863-1.3037 8.1083-4.42 3.88-5.6976 0.66205-14.013-6.1304-15.842-1.0684-0.2877-2.0942-0.4093-3.068-0.3875zm-121.65 65.18h264.46v30.622h-264.46v-30.622z" fill="#777c82"/></g></svg>
