<svg fill="#777c82"   version="1.1" viewBox="0 0 128.01 128.01" xml:space="preserve" xmlns="http://www.w3.org/2000/svg"><g transform="translate(-40.995,-84.495)"><path d="m41.05 163.89c0.17783-0.17608 22.353-14.074 22.392-14.034 0.02321 0.0232-0.16971 0.22608-0.42872 0.45082-0.86244 0.74833-2.4156 2.3797-2.9624 3.1116-1.7057 2.283-1.655 3.6885 0.15392 4.2696 0.45286 0.14549 0.88419 0.19933 1.857 0.23183 1.4907 0.0498 2.9042-0.0434 12.234-0.80706 7.9263-0.64874 8.3392-0.6808 11.839-0.91924 1.4408-0.0982 2.6435-0.20686 2.6726-0.24156 0.0291-0.0347 0.80949-3.6416 1.7342-8.0152 0.92474-4.3737 1.7193-8.0996 1.7657-8.2798l0.08431-0.3277h1.7502c1.7067 0 1.7489 4e-3 1.6951 0.17366-0.16948 0.53398-0.46997 1.7016-0.44448 1.7271 0.01642 0.0164 0.15651-0.13015 0.31136-0.32565 0.3992-0.50404 1.3054-1.123 1.9927-1.361 1.625-0.56282 4.129-0.48355 5.422 0.17164 0.50591 0.25636 1.018 0.8032 1.2656 1.3513 0.28026 0.6206 0.31262 2.413 0.0694 3.8434-0.65953 3.8787-1.4385 6.0525-2.5863 7.2174-0.64571 0.65532-1.6639 1.1952-2.6662 1.4136-0.85227 0.18574-3.0811 0.21011-3.7576 0.0411-1.0662-0.26637-1.7915-0.80764-2.0377-1.5206-0.08189-0.23715-0.14437-0.32045-0.17679-0.2357-0.08078 0.21119-0.85911 3.9466-0.82836 3.9756 0.01539 0.0145 0.71616-8e-3 1.5572-0.0506 6.6934-0.33703 19.493-0.48992 29.449-0.35177 7.4566 0.10347 10.325 0.17975 15.249 0.40553 9.0342 0.41425 16.43 1.1245 22.327 2.144 1.9504 0.33721 4.7362 0.94451 4.8499 1.0572 0.0578 0.0573-0.016 0.0701-0.21847 0.0377-0.16822-0.0269-1.0137-0.10824-1.8788-0.18068-14.306-1.1978-31.479-1.7282-46.752-1.444-7.943 0.14778-14.652 0.44423-23.044 1.0182l-2.1585 0.14764-0.22888 1.0623-3.4743 0.0476 0.05416-0.39512c0.05359-0.39097 0.05146-0.39513-0.20177-0.39513-1.0416 0-10.6 0.95549-17.043 1.7036-7.184 0.83421-29.654 3.3648-29.877 3.3648-0.02424 0-0.0067-0.037 0.03894-0.0822zm57.21-13.02c0.83722-0.25731 1.4633-1.0526 1.8995-2.413 0.38294-1.1942 0.89319-3.8112 0.90281-4.6304 0.0161-1.3696-0.5609-1.8898-2.1611-1.9485-1.9399-0.0711-3.0767 0.44855-3.6957 1.6894-0.59894 1.2007-1.3632 4.9267-1.2131 5.914 0.1129 0.74239 0.55132 1.2 1.3642 1.4238 0.55504 0.15282 2.3626 0.13079 2.9034-0.0354zm-19.179 2.7858c-1.4769-0.13121-2.4239-0.44087-3.0153-0.98607-1.0539-0.97147-1.1531-2.4344-0.40972-6.0443 0.54055-2.625 1.0712-4.1636 1.788-5.1843 0.97176-1.3837 2.2544-1.9737 4.7995-2.2078 1.1505-0.10581 3.3175-0.0584 4.2432 0.0929 1.47 0.24015 2.3523 0.7505 2.7948 1.6166 0.2626 0.51394 0.2637 0.5222 0.25979 1.9637-0.0037 1.3564-0.02718 1.5592-0.37354 3.2192-0.71196 3.4124-1.282 4.8615-2.3315 5.9269-0.7086 0.71936-1.37 1.0745-2.5006 1.3427-1.3367 0.31709-3.4427 0.42152-5.2547 0.26054zm4.3071-2.8655c0.57124-0.22061 1.0222-0.65893 1.3467-1.3089 0.48076-0.96304 1.2713-4.572 1.2713-5.8036 0-0.92123-0.15742-1.2466-0.75093-1.5521-0.4039-0.20789-0.49659-0.21847-1.9141-0.21847h-1.4897l-0.58748 0.28927c-1.0918 0.53757-1.4725 1.3636-2.1626 4.6918-0.31843 1.5357-0.4172 2.6723-0.27079 3.1159 0.26448 0.80138 0.95412 1.048 2.8063 1.0035 1.0354-0.0249 1.3556-0.0646 1.7513-0.2174zm25.644 2.8715c-2.2722-0.19254-3.4649-0.79509-4.0244-2.0331-0.35132-0.7774-0.39137-2.1275-0.10562-3.5608l0.20035-1.005 3.9958-0.047-0.0577 0.28568c-0.43088 2.1323-0.3222 2.5958 0.68548 2.9228 0.58591 0.19018 4.1435 0.27054 5.1165 0.11558 1.3867-0.22085 2.0223-0.73117 2.4-1.927 0.63769-2.0186 0.46833-2.9578-0.59004-3.2721-0.28733-0.0853-1.1446-0.16508-2.3747-0.2209-4.216-0.19131-5.4436-0.4079-6.3972-1.1286-1.2657-0.9566-1.5003-2.9501-0.68486-5.8192 0.87761-3.0879 2.6249-4.4301 6.2057-4.7668 1.492-0.14027 6.0721-0.0566 6.9328 0.12665 1.2831 0.27319 2.0906 0.81765 2.5232 1.7013 0.21005 0.42903 0.24655 0.62213 0.27518 1.4557 0.0225 0.65644-0.0157 1.245-0.12056 1.857l-0.15355 0.89589h-4.016l0.053-0.19661c0.0292-0.10815 0.0992-0.5113 0.15564-0.89591 0.091-0.61969 0.0853-0.73579-0.0496-1.02-0.27622-0.5821-1.0082-0.76498-3.0661-0.76608-1.3719-6.9e-4 -2.7161 0.12124-3.3423 0.30326-0.62497 0.18169-1.1608 0.70631-1.4094 1.3799-0.29199 0.79109-0.47473 1.9941-0.36489 2.4021 0.21911 0.8137 0.72089 0.95376 4.2864 1.1964 3.8838 0.26434 5.1391 0.53831 5.9281 1.2937 0.53088 0.50832 0.65773 0.86552 0.697 1.9625 0.0787 2.1983-0.73251 5.0698-1.8478 6.5412-0.90721 1.1968-2.2169 1.8526-4.2613 2.1338-0.86284 0.11868-5.4892 0.17871-6.5892 0.0855zm17.009-4e-3c-0.85113-0.0824-1.943-0.34351-2.3786-0.56876-0.43502-0.22495-0.86977-0.66327-1.0911-1.1001-0.49865-0.98405-0.47177-2.3939 0.0994-5.2145 1.1589-5.7228 2.4082-7.157 6.5671-7.5394 1.3068-0.12016 3.5239-0.0572 4.481 0.12732 2.3914 0.46098 3.1649 1.6033 2.8913 4.2702-0.12585 1.2267-0.61685 3.6724-1.0149 5.0552-0.90761 3.1533-2.1594 4.3971-4.8748 4.8438-0.99071 0.16296-3.5791 0.23278-4.6795 0.12622zm3.7921-2.7141c1.3298-0.24583 1.9089-0.93131 2.4312-2.8777 0.42557-1.5859 0.77617-3.5101 0.78779-4.3237 0.014-0.98374-0.13611-1.2962-0.77563-1.6141-0.37761-0.18768-0.58074-0.22046-1.5542-0.25079-2.6556-0.0827-3.4773 0.51448-4.122 2.9959-0.75023 2.8875-0.96517 4.7752-0.61211 5.3762 0.21119 0.35949 0.58172 0.59328 1.1026 0.69573 0.5564 0.10941 2.147 0.10854 2.7423-2e-3zm21.435 2.7131c-1.11-0.1549-2.0365-0.62256-2.5066-1.2653-0.76472-1.0455-0.80102-2.5165-0.14224-5.7655 0.42834-2.1125 0.77224-3.2753 1.2748-4.3104 0.77027-1.5864 1.8239-2.4546 3.5308-2.9095 0.87367-0.23282 3.1959-0.2835 3.9761-0.0868 1.0403 0.26233 1.708 0.77633 2.0086 1.5462 0.0923 0.23641 0.16978 0.39051 0.17214 0.34245 5e-3 -0.0928 1.421-6.7892 1.585-7.4934l0.0967-0.41508h3.497l-0.0476 0.19661c-0.078 0.32239-4.2533 19.99-4.2533 20.035 0 0.0229-0.78647 0.0416-1.7477 0.0416s-1.7472-0.0295-1.7466-0.0655c9.9e-4 -0.0631 0.36861-1.4201 0.47804-1.7649 0.0293-0.0923-0.23365 0.11791-0.58432 0.46714-0.69093 0.68809-1.3821 1.0847-2.2972 1.3184-0.64738 0.16529-2.509 0.2379-3.2934 0.12844zm4.242-2.7479c1.392-0.29492 2.0475-1.0549 2.5426-2.9479 0.47043-1.7987 0.69108-3.0652 0.69691-4.0003 7e-3 -1.1554-0.14887-1.4704-0.90408-1.8246-0.4566-0.21412-0.57081-0.22902-1.7555-0.22902-1.1449 0-1.3112 0.0199-1.7239 0.20651-1.1368 0.51398-1.6339 1.538-2.3052 4.7486-0.47217 2.2582-0.39637 3.2556 0.2861 3.7642 0.53521 0.39891 1.9972 0.52945 3.163 0.28243zm-88.292 2.5605c0-0.0571 0.78648-3.8042 1.7477-8.3268s1.7477-8.2707 1.7477-8.329c0-0.0809-0.69206-0.10596-2.9274-0.10596-1.774 0-2.9274-0.0324-2.9274-0.0823 0-0.0683 0.50235-2.4611 0.65692-3.1291l0.0455-0.19662h7.9068c4.3487 0 7.9068 0.0306 7.9068 0.0679 0 0.0374-0.1573 0.79327-0.34954 1.6798-0.19225 0.88655-0.34954 1.6228-0.34954 1.6361 0 0.0133-1.3338 0.0242-2.9639 0.0242h-2.9639l-0.09881 0.45878c-0.05434 0.25232-0.84595 3.9783-1.7591 8.2798-0.91318 4.3016-1.6808 7.8899-1.7057 7.974-0.0415 0.13975-0.21433 0.15293-2.0057 0.15293-1.4551 0-1.9603-0.0268-1.9603-0.10379zm69.301-0.0491c2e-3 -0.0841 0.95832-4.6358 2.125-10.115l2.1212-9.962 3.5087-0.0472-0.282 1.3344c-0.1551 0.73393-1.1241 5.2963-2.1534 10.139l-1.8714 8.8042h-1.726c-1.5869 0-1.7256-0.0123-1.7222-0.15293zm5.607 0c0.0212-0.0841 0.70407-3.289 1.5176-7.122l1.4791-6.969 1.7259-1e-5c1.3929-1e-5 1.7259 0.0228 1.7259 0.11828 0 0.10469-2.6483 12.659-2.8923 13.711l-0.0963 0.41508h-1.7492c-1.6223 0-1.7464-0.0111-1.7107-0.15292zm3.6824-17.346c0.0694-0.277 0.5814-2.6846 0.5814-2.7339 0-0.0224 0.78648-0.0406 1.7477-0.0406s1.7477 0.0199 1.7477 0.0442c0 0.0462-0.4878 2.3887-0.56855 2.7304-0.0463 0.19584-0.0535 0.19662-1.802 0.19662h-1.7555zm20.753 0.0243c-0.95917-0.52103-1.0998-1.8618-0.277-2.6403 0.48735-0.46111 1.1909-0.55093 1.8429-0.23529 1.0497 0.50816 1.1817 2.03 0.23847 2.7494-0.43747 0.33367-1.3102 0.39471-1.8044 0.12622zm1.5046-0.28676c0.6492-0.4375 0.82754-1.2534 0.4114-1.8822-0.40037-0.605-1.1124-0.79153-1.7145-0.44914-0.45553 0.25904-0.64961 0.56595-0.69364 1.0969-0.0447 0.53904 0.18031 0.99175 0.62889 1.2653 0.38164 0.23272 0.99737 0.21884 1.3678-0.0308zm-1.4898-1.1576v-0.91755h0.64916c0.78919 0 0.96728 0.12108 0.88838 0.604-0.0282 0.17245-0.0494 0.52-0.0471 0.77233 3e-3 0.35807-0.0257 0.45878-0.13145 0.45878-0.0902 0-0.13557-0.0818-0.13557-0.24468 0-0.33136-0.14672-0.45441-0.5418-0.45441-0.32916 0-0.33207 3e-3 -0.33207 0.34954 0 0.29129-0.0291 0.34955-0.17477 0.34955-0.16367 0-0.17477-0.0583-0.17477-0.91756zm1.1218-0.12045c0.0643-0.0408 0.10361-0.16795 0.0874-0.28267-0.0257-0.18183-0.0827-0.212-0.44458-0.23522l-0.41508-0.0266v0.31064c0 0.30094 0.0102 0.3106 0.3277 0.3093 0.18023-6.9e-4 0.38029-0.0347 0.44458-0.0754z" /></g></svg>
