<svg fill="#545d69"   version="1.1" viewBox="0 0 128 128" xml:space="preserve" xmlns="http://www.w3.org/2000/svg"><g transform="translate(-230.62 -75.161)"><path d="m304.98 194.34c-7.3248-5.3299-14.409-11.73-15.743-14.222-2.2295-4.166-2.7286-4.2563-6.1931-1.121-2.0725 1.8756-10.906 5.8381-19.631 8.8054-13.55 4.6088-16.299 4.9589-18.856 2.4017s-2.2711-5.237 1.9629-18.383c2.726-8.4642 6.8246-17.395 9.1078-19.845 3.4203-3.6713 3.6257-4.7889 1.166-6.3465-1.642-1.0398-3.7003-1.9054-4.5742-1.9235-2.7991-0.0569-21.001-26.565-21.001-30.583 0-3.4441 2.157-3.8724 19.504-3.8724 10.727 0 21.377 1.0022 23.665 2.2272 3.5721 1.9117 4.1613 1.5024 4.1613-2.8909 0-5.6199 16.347-31.411 21.054-33.217 1.6197-0.62122 4.2197 0.21223 5.7778 1.8534 3.724 3.922 9.7418 25.342 9.7418 34.675 0 6.7895 0.46186 7.3028 5.9164 6.5791 3.254-0.43177 12.693 1.4302 20.976 4.1375 20.29 6.6319 20.989 10.785 3.8815 23.052-6.8678 4.9246-15.202 9.5266-18.521 10.227-4.6435 0.97949-5.6437 2.0731-4.3395 4.7452 0.93209 1.9099 1.7113 12.17 1.7315 22.8 0.0488 23.665-1.2591 24.383-19.787 10.901zm-5.1378-40.323c-1.5031-2.8085-3.0216-3.8436-3.5062-2.3899-0.46998 1.4104 0.33827 4.7936 1.7967 7.5184 1.503 2.8085 3.0216 3.8436 3.5061 2.3899 0.46999-1.4103-0.33826-4.7936-1.7966-7.5184zm-15.312-1.7801c1.4637-2.3437 2.0031-4.2613 1.1989-4.2613-2.1466 0-9.3311 6.8307-9.3311 8.8715 0 2.9273 5.3022-0.0813 8.1322-4.6103zm28.442-13.118c0-1.0454-1.373-1.9006-3.0512-1.9006-4.8362 0-9.9281 2.4475-8.8206 4.2396 1.342 2.1714 11.872 0.0968 11.872-2.339zm-29.927-2.7438c-2.5393-3.0597-10.95-6.1576-10.95-4.0332 0 1.9966 7.3664 6.8871 10.483 6.9594 2.2797 0.0488 2.3862-0.61391 0.46755-2.9262zm13.436-8.1357c1.5154-5.7949-0.60253-9.7278-3.1083-5.7727-2.4243 3.826-2.4338 10.449-0.0163 10.449 1.0453 0 2.4508-2.1043 3.1233-4.6761z" /></g></svg>
