<svg   enable-background="new 0 0 256 256" version="1.1" viewBox="0 0 128 128" xmlns="http://www.w3.org/2000/svg">
 <g transform="matrix(.8 0 0 .8 -39.316 -12.8)">
  <g fill="#545d69" fill-opacity=".55028">
   <path d="m194.42 96.556c-22.368 0.439-17.709 14.598-33.473 18.18-16.014 3.638-18.542-39.111-34.552-39.111-16.012 0-19.559 41.525-39.608 70.034l-0.571 0.808 42.985 24.813 65.22-37.65v-37.074z"/>
   <path d="m194.42 95.267c-7.488-9.61-12.567-20.658-23.494-20.658-19.338 0-14.249 31.545-35.62 31.545-21.374 0-23.62-33.931-47.833-2.035-7.715 10.163-13.925 21.494-18.802 32.218l60.528 34.942 65.22-37.65v-38.362z"/>
   <path d="m63.974 108.33c7.338-20.32 10.504-36.778 24.513-36.778 21.37 0 26.459 60.038 44.778 53.93 18.318-6.105 16.283-38.668 44.779-38.668 5.423 0 10.962 3.323 16.371 8.699v38.112l-65.22 37.65-65.222-37.65v-25.295z" opacity=".8"/>
  </g>
  <path d="m129.14 176-69.291-40v-80l69.291-40 69.292 40v80zm-61.15-44.699 61.15 35.3 61.151-35.3v-70.601l-61.151-35.3-61.15 35.3z" fill="#545d69"/>
 </g>
 <rect x="-388.35" y="-256.24"   fill="#545d69" stroke-linecap="round" stroke-opacity=".55598"  style="paint-order:markers stroke fill"/>
</svg>
