<svg   version="1.1" viewBox="0 0 128 128" xml:space="preserve" xmlns="http://www.w3.org/2000/svg"><g transform="matrix(.4932 0 0 .49141 718.24 -1088.9)"><path d="m-1328.2 2475.8c-5.0214-0.4215-7.9687-0.8674-16.532-2.5026-4.1693-0.796-10.193-2.5139-9.9101-2.8263 0.1464-0.1623 0.062-0.1761-0.1888-0.035-0.2503 0.145-1.7773-0.1725-3.3932-0.7021-19.508-6.4017-36.903-16.488-51.697-29.975-5.7397-5.2327-12.895-12.913-16.619-17.838-0.5814-0.769-1.622-2.1353-2.3125-3.0362-1.2661-1.6517-5.2264-7.3783-5.8881-8.5139-0.1964-0.3383-0.772-1.2586-1.2789-2.0476-1.9402-3.0197-6.6049-11.979-8.5575-16.436-5.1865-11.839-9.5701-27.577-10.695-38.397-1.0827-10.412-1.1543-11.993-0.9695-21.399 0.2022-10.296 0.8376-17.459 2.0604-23.226 0.3983-1.8788 0.886-4.2999 1.0836-5.3803 0.1978-1.0804 0.8439-3.7325 1.436-5.8937 4.4104-16.096 10.75-29.668 20.672-44.26 2.8346-4.1688 8.9519-11.626 13-15.847l2.8369-2.9586 1.1759 1.1398c0.6468 0.6269 1.076 1.3152 0.9539 1.5295-0.1221 0.214-0.084 0.2658 0.084 0.1105 0.1681-0.1519 1.392 0.7998 2.7196 2.1173l2.4139 2.3953-2.2159 2.3507c-1.8835 1.9982-5.157 5.7469-7.3497 8.4166-1.1705 1.4252-5.6261 7.5481-6.8876 9.4652-2.9883 4.5409-3.1933 4.8851-6.3442 10.652-0.868 1.5889-1.71 2.8071-1.8711 2.7076-0.1612-0.1001-0.1978 0.066-0.082 0.3704 0.1164 0.3038-0.1473 1.1554-0.5862 1.8937-0.4388 0.7383-1.2744 2.4674-1.8568 3.8426-5.6325 13.299-8.8577 25.593-10.633 40.53-0.4738 3.9879-0.4617 20.889 0.017 25.294 1.2902 11.843 3.7854 22.356 8.1985 34.543 0.8243 2.2761 5.259 12.256 5.7138 12.858 0.1485 0.1968 0.7471 1.2413 1.3304 2.3217 2.1031 3.8947 3.6986 6.5416 6.0728 10.074 3.6698 5.4598 4.7682 6.9765 6.6904 9.2392 0.5959 0.7014 1.4707 1.7463 1.9438 2.3217 8.9733 10.913 20.994 21.205 33.608 28.775 15.187 9.1135 30.819 14.634 49.112 17.343 6.3882 0.9458 7.4675 1.0038 18.395 0.9886 10.746 0 12.086-0.09 18.038-0.9824 18.71-2.8119 34.964-8.6175 50.184-17.926 7.3411-4.4895 15.503-10.778 21.912-16.882l2.446-2.3296 3.7165 3.7038 3.7165 3.7042-2.4121 2.3334c-7.0893 6.8585-19.196 15.941-26.7 20.03-1.1787 0.6424-3.4289 1.8696-5.0005 2.7273-3.8375 2.0943-11.154 5.4032-16.333 7.3863-5.2246 2.0006-15.359 4.9413-19.798 5.7442-1.5413 0.2796-4.5704 0.8405-6.7313 1.2485-8.8708 1.6738-24.973 2.2143-36.688 1.2313zm-1.1514-22.546c-2.5416-0.2451-7.42-1.0242-10.841-1.7308-6.7035-1.3849-5.8373-1.009-13.112-5.6938-0.9823-0.6327-2.8068-1.7766-4.0546-2.5419-1.2477-0.7656-2.6826-1.7297-3.1887-2.1422l-0.92-0.7504 1.1161-1.814c4.2837-6.962 6.6397-18.405 5.4624-26.531-1.0383-7.1663-3.6538-14.089-7.3466-19.445-0.9482-1.3752-1.724-2.6941-1.7242-2.9312-1e-4 -0.2382-0.118-0.358-0.262-0.2693-0.1439 0.09-0.8512-0.5437-1.5718-1.4059-1.5117-1.8088-5.9818-5.6838-8.5842-7.4418-5.164-3.4878-10.832-5.5682-18.752-6.8816-8.4493-1.4018-9.8167-1.7283-13.284-3.1722-10.741-4.4736-19.314-12.715-24.282-23.344-1.6216-3.4691-2.4602-6.1035-3.5546-11.167-0.6278-2.9044-0.7101-4.2682-0.5708-9.4653 0.1374-5.1225 0.3158-6.6589 1.141-9.8225 1.9775-7.5809 4.9508-13.23 10.6-20.138 1.3083-1.5999 6.2568-5.7925 8.8647-7.5109 5.93-3.9064 12.762-6.4173 19.122-7.0268 5.4932-0.5265 13.582-0.114 19.466 0.9937 2.652 0.4988 5.5652 1.0359 6.4738 1.1926 3.5734 0.6179 15.471 4.2227 19.974 6.0525 9.4352 3.8336 16.464 7.4356 24.182 12.392 2.6032 1.6717 4.6596 3.1581 4.5698 3.3034-0.09 0.145 0.06 0.2658 0.3338 0.2658 1.0781 0 10.438 7.5764 16.008 12.958 5.4436 5.2592 12.736 13.586 15.813 18.056 0.4062 0.5902 1.4566 2.1177 2.3342 3.3945 3.5743 5.2009 9.6672 15.877 10.906 19.109 0.2258 0.5893 1.1246 2.6787 1.9974 4.6431 2.1474 4.8339 6.0556 16.533 6.8607 20.538 0.099 0.4912 0.5805 2.7411 1.0706 5.0004 1.8003 8.2992 2.48 15.643 2.4958 26.967 0.014 10.186-0.2502 13.881-1.6454 22.994l-0.4035 2.6351-1.8188 0.7995c-6.0548 2.662-12.125 4.9189-14.9 5.5398-2.2375 0.5009-3.1971 0.3518-9.2422-1.4342-7.7422-2.2872-10.968-3.1857-12.262-3.4149-0.7524-0.1346-1.4407-0.4325-1.5297-0.6641-0.089-0.2313 0.2461-1.9393 0.7446-3.7946 1.8309-6.8157 2.4705-12.541 2.4912-22.304 0.017-7.5353-0.107-9.7587-0.7884-14.239-0.8348-5.4898-2.5787-12.708-4.1971-17.372-2.0154-5.808-5.9055-14.165-8.5627-18.395-2.1161-3.3683-4.1048-6.3251-5.5249-8.215-0.8858-1.1788-1.7284-2.3037-1.8725-2.5002-2.6183-3.5695-8.8364-9.8632-14.306-14.48-0.736-0.6213-1.2336-1.2989-1.1056-1.506 0.1318-0.214 0.063-0.2727-0.1588-0.1347-0.215 0.1347-1.6464-0.6889-3.1805-1.8263-10.714-7.9444-22.099-13.185-35.558-16.367-8.7718-2.0735-14.4-2.5043-16.706-1.2785-2.933 1.5588-4.4644 5.2892-3.5561 8.6623 1.0436 3.8758 3.1059 5.1288 9.9693 6.0563 5.3857 0.7283 11.82 2.3082 16.086 3.9509 1.4689 0.5655 2.7921 1.028 2.9404 1.028 0.502 0 9.7378 4.583 11.103 5.5095 0.7454 0.506 1.4377 0.9199 1.5385 0.9199 0.1764 0 3.6198 2.3489 6.2143 4.2392 5.7112 4.1608 16.878 15.821 16.201 16.916-0.1377 0.2209-0.072 0.283 0.1553 0.1415 0.5684-0.3514 4.8064 6.273 7.6475 11.954 3.9356 7.8692 6.131 14.552 7.6164 23.182 2.5157 14.618 0.9712 29.646-4.4797 43.588-0.7322 1.8729-1.7137 4.127-2.1811 5.0093l-0.8497 1.604zm-65.029-26.314c-3.406-1.1111-4.3986-1.6762-6.8036-3.8722-4.0116-3.6628-5.9581-8.0822-5.9449-13.497 0.028-11.504 10.005-19.763 21.415-17.727 8.6636 1.5454 14.704 8.8708 14.724 17.854 0.028 12.155-11.941 20.976-23.39 17.242zm147.06-13.886c-0.6135-24.118-7.2971-48.448-19.042-69.318-8.3983-14.924-17.076-25.87-30.362-38.299-5.2999-4.9582-14.008-11.671-19.694-15.183-1.3463-0.8312-2.3062-1.6517-2.1772-1.8602 0.1385-0.2244 0.057-0.2658-0.2026-0.1036-0.2447 0.1519-1.007-0.107-1.7518-0.5964-3.7573-2.4633-14.01-7.7259-19.356-9.9354-16.424-6.7888-33.168-10.628-49.975-11.46-4.4364-0.2209-8.1011-0.4277-8.1437-0.4622-0.043-0.034-0.1012-3.9924-0.1302-8.7956l-0.053-8.7328 3.9067-3.3931c4.6788-4.0639 8.5057-7.0086 12.605-9.6993 4.6306-3.039 9.3493-5.6596 10.191-5.6596 1.5088 0 8.3035 1.0901 12.49 2.0038 10.263 2.2398 22.612 6.0151 31.253 9.5543 6.6178 2.7104 8.3813 3.497 12.766 5.6951 20.06 10.054 34.975 20.766 50.454 36.232 8.0061 8 12.637 13.325 19.191 22.067 3.2896 4.388 10.307 15.423 13.396 21.064 3.6081 6.5895 9.1743 18.796 11.482 25.181 1.9501 5.3945 3.42 9.8218 4.1841 12.603 1.9271 7.0142 3.6778 14.517 4.4769 19.186 0.4876 2.8485 0.9748 5.6765 1.0827 6.2844 0.1522 0.8574-0.1204 1.6583-1.2153 3.5716-4.909 8.5778-9.043 14.309-15.758 21.844l-1.9893 2.2326-8.7639-3e-4h-8.7639zm41.894-64.266c-0.5931-2.0373-3.7066-9.7901-6.3578-15.831-1.2075-2.7518-7.541-15.224-8.5348-16.807-0.4863-0.7749-1.4992-2.4535-2.251-3.7304-0.7518-1.2772-2.2644-3.6879-3.3614-5.3579-1.097-1.6697-2.1562-3.3069-2.3539-3.6382-0.3687-0.6176-2.1049-3.1257-4.1856-6.047-10.716-15.044-27.193-31.947-41.984-43.072-2.2114-1.6627-3.9309-3.1687-3.8211-3.3465 0.1097-0.176-0.021-0.2382-0.2893-0.1346-0.5584 0.214-3.3496-1.8833-3.2006-2.4053 0.054-0.1898-0.067-0.2416-0.2685-0.1173-0.202 0.1242-1.0496-0.2382-1.8841-0.8088-0.8344-0.5695-2.1974-1.4832-3.0289-2.0304-0.8315-0.5471-1.4094-1.1605-1.2842-1.3627 0.1325-0.2141 0.052-0.2589-0.1913-0.1105-0.5512 0.3417-2.9797-1.1691-2.6745-1.6631 0.1425-0.2313 0.067-0.2761-0.1926-0.1174-0.388 0.2417-2.0038-0.603-7.1825-3.7466-5.5948-3.3962-19.382-9.808-28.767-13.378l-3.5854-1.3642 1.2227-3.6841c1.2051-3.631 1.2413-3.688 2.5139-3.9527 0.7101-0.1485 5.7113-0.2727 11.114-0.2727 11.095 0 16.886 0.544 25.002 2.3742 19.278 4.3465 35.217 12.02 50.362 24.245 8.6702 6.9986 17.23 16.373 23.468 25.7 11.912 17.812 18.153 36.082 20.131 58.934 0.4107 4.7438 0.2303 15.354-0.3127 18.379-0.253 1.4093-0.261 1.4152-3.4647 2.5298-1.7661 0.6144-3.478 1.2361-3.804 1.3814-0.4348 0.1933-0.6572 0.045-0.8343-0.565z" fill="#545d69" /></g></svg>
