<svg fill="#545d69"   version="1.1" viewBox="0 0 128.01 128.01" xml:space="preserve" xmlns="http://www.w3.org/2000/svg"><g transform="translate(-40.995,-84.495)"><g transform="matrix(3.4111 0 0 3.4111 1149.7 -1184.5)"><path d="m-304.95 372.34a1.4329 1.4329 0 0 0-1.4325 1.433 1.4329 1.4329 0 0 0 1.4325 1.433 1.4329 1.4329 0 0 0 1.433-1.433 1.4329 1.4329 0 0 0-1.433-1.433zm-2.9089 2.6055a3.0395 3.0395 0 0 0-3.0396 3.0391 3.0395 3.0395 0 0 0 3.0396 3.0396 3.0395 3.0395 0 0 0 3.0391-3.0396 3.0395 3.0395 0 0 0-3.0391-3.0391zm4.2984 4.5155a2.0408 2.0408 0 0 0-2.0407 2.0407 2.0408 2.0408 0 0 0 2.0407 2.0407 2.0408 2.0408 0 0 0 2.0407-2.0407 2.0408 2.0408 0 0 0-2.0407-2.0407zm-8.9881 16.326v10.595h12.939v-10.595z" fill-opacity=".48197"  stroke-linecap="round"  style="paint-order:markers stroke fill"/><path d="m-313.52 406.79c-4.273-3.5448-3.7186-8.8817-2.5255-11.455 0.40325-0.86103 1.2581-2.163 1.8793-2.9104 4.8123-5.7895 1.2561-7.8171 1.2561-7.8171 1.9551-0.0152 3.0914 0.0205 5.8078 0.0205 1.3679 10.598-4.5812 8.6558-4.8863 14.973-5e-3 7.7672 11.823 7.6215 11.816 0.0498-0.37023-6.4359-6.1009-4.408-5.0133-15.053h5.7979s-3.2787 2.1317 0.77161 7.5588c0.75549 0.86315 1.6455 2.1647 1.9778 2.8923 1.7849 3.9084 1.3934 8.6252-2.5993 12.042s-10.009 3.2444-14.282-0.30046z" /></g></g></svg>
