<svg fill="#545d69"   version="1.1" viewBox="0 0 128.01 128.01" xml:space="preserve" xmlns="http://www.w3.org/2000/svg"><g transform="translate(-40.995,-84.495)"><path d="m41.192 156.86 0.19234-34.183 14.426-8.3144c7.9344-4.5729 14.691-8.3329 15.014-8.3556 0.68625-0.048 27.065 15.329 28.485 16.605l0.95968 0.86228-0.21978 5.2869-0.21977 5.2869-28.808-17.074-2.9811 1.6695c-1.6396 0.91822-5.9773 3.3986-9.6393 5.5118l-6.6582 3.8424-0.19352 28.902-0.19352 28.902-4.6863 2.6207c-2.5775 1.4414-4.9073 2.6207-5.1774 2.6207h-0.49114zm122.08 31.427-4.6153-2.7356-0.19349-28.845-0.1935-28.845-18.981-10.895-29.106 17.145-0.21977-5.3086-0.21978-5.3086 0.58953-0.55425c0.81825-0.76926 28.351-16.974 28.84-16.974 0.21782 0 7.0076 3.7452 15.088 8.3228l14.692 8.3228 0.0224 34.216 0.0224 34.216-0.55486-0.0112c-0.30516-6e-3 -2.6317-1.2411-5.1702-2.7457zm-102.29-31.542v-23.336l4.4784-2.6248c2.4631-1.4436 4.8436-2.6247 5.2899-2.6247s7.2392 3.7452 15.095 8.3228l14.284 8.3228 0.0308 6.1825 0.0308 6.1825-0.92476-0.37183c-0.50861-0.20439-7.0836-3.8745-14.611-8.1556l-13.686-7.7838-0.7398 34.029-9.2475 5.1923v-23.336zm83.056 20.448-4.6105-2.7328-0.19824-16.716-0.19825-16.716-14.056 7.971c-7.7309 4.3841-14.319 7.9806-14.641 7.9924l-0.58477 0.0224 0.21474-6.0443 0.21502-6.0443 14.056-8.3499c7.7309-4.5924 14.487-8.3643 15.014-8.3819 0.52662-0.0176 3.1067 1.2042 5.7335 2.7149l4.7759 2.7469v46.292l-0.55486-0.0112c-0.30517-6e-3 -2.6296-1.2398-5.1654-2.7428z" /></g></svg>
