<svg   version="1.1" viewBox="0 0 128 128" xml:space="preserve" xmlns="http://www.w3.org/2000/svg"><g transform="matrix(.43391 0 0 .43391 8.7723 -1.7018e-5)"><g transform="translate(-167.47 -1544.3)"><g transform="matrix(.80567 0 0 .80567 791.58 -47.923)"><path d="m-616.18 1976.2-0.084 0.1436-157.93 91.18-0.44001 183.21-0.0205 0.012 104.91 0.029 54.14 91.453-0.0654 0.1187 156.85-91.513h0.12123v-182.5l-157.19 90.756zm-4.9401 8.6442v9.6628h3e-3l0.26683 167.44-71.295 41.162c-14.264-24.099-26.095-44.056-27.889-46.938zm-101.74 176.21 0.11481 0.1943 26.26 44.358-78.146 45.118zm58.911 89.716 43.237 0.012 0.11674 73.269c-1.4326-2.3432-21.755-36.741-43.354-73.281zm48.201 0.013 50.495 0.014-50.35 91.411zm56.279 0.016 90.966 0.025-8.3761 4.8355-0.12186 0.033-125.66 73.305c14.433-25.711 28.762-52.982 43.189-78.199z" color="#000000" fill="#636970" stroke-linecap="round" style="-inkscape-stroke:none;paint-order:markers stroke fill"/></g></g></g></svg>
