<svg fill="#636970"   version="1.1" viewBox="0 0 128 128" xml:space="preserve" xmlns="http://www.w3.org/2000/svg"><g transform="translate(-41,-84.5)"><path d="m65.499 211.66c-8.9283-2.3366-17.026-8.8139-20.894-16.713-3.7062-7.5689-3.5788-5.915-3.5788-46.431 0-40.516-0.12747-38.863 3.5788-46.431 3.9157-7.9966 12.051-14.445 21.124-16.743 4.442-1.1253 74.011-1.1253 78.453 0 11.629 2.9461 21.002 12.32 23.948 23.948 1.1253 4.442 1.1253 74.011 0 78.453-2.9461 11.629-12.32 21.002-23.948 23.948-4.317 1.0937-74.491 1.0665-78.682-0.0304zm14.635-28.981c6.9116-1.5337 13.34-5.5072 18.101-11.189 3.0631-3.6552 5.7324-8.0783 12.165-20.158 6.8257-12.818 9.1684-16.507 12.627-19.883 3.7529-3.663 9.6394-5.9084 15.49-5.9084 1.4823 0 2.3337-0.38524 3.779-1.7097 1.692-1.5506 1.8656-1.9492 1.8656-4.2837 0-2.3345-0.17359-2.7331-1.8656-4.2836-1.7561-1.6094-2.0727-1.7097-5.3953-1.7097-6.3224 0-13.284 2.104-18.237 5.512-6.2106 4.273-10.2 9.7594-18.688 25.698-7.2796 13.67-9.4703 17.146-12.945 20.541-4.0036 3.9125-9.6702 6.1837-15.428 6.1837-3.1951 0-6.1035 2.856-6.1035 5.9934 0 1.7346 1.3793 4.1898 2.8746 5.1169 1.7845 1.1064 6.9726 1.1412 11.76 0.0787z" /></g></svg>
