<svg   version="1.1" viewBox="0 0 128 128" xml:space="preserve" xmlns="http://www.w3.org/2000/svg"><g transform="translate(-41 -84.5)"><g transform="matrix(.67725 0 0 .67725 41 137.33)" fill="#636970"><g clip-path="url(#a)" fill="#636970"><path d="m11.329 7.6316e-4 -11.328 32.135h5.9961l7.9453-22.016-2.707 22.016h6.6875l12.807-22.111s-6.9069 20.001-7.6309 22.111h6.5449c3.729-10.623 11.221-32.135 11.221-32.135h-10.244l-11.439 19.717 2.5488-19.717zm73.777 1.8867c-2.549 0.52-7.6934 1.8262-7.6934 1.8262-2.691 7.569-5.3174 15.281-8.0234 22.881-0.489 1.621-1.0079 3.7937 0.33008 5.1777 1.966 1.495 5.019 1.0539 7.332 0.62891 0.55-0.11 1.1471-0.15691 1.6191-0.50391 1.023-2.187 2.0783-4.4203 3.0703-6.6543-0.441 0.126-0.85064 0.26633-1.3066 0.36133-0.866 0.189-2.0303 0.54884-2.7383-0.28516-0.362-0.519-0.18862-1.2258-0.01563-1.8398l2.9902-8.6699 0.15625-0.30078c1.4-0.078 4.1387-0.07813 4.1387-0.07813 0.755-2.046 2.2188-6.3887 2.2188-6.3887s-2.5806 0.016-3.9336 0c-0.11 0.016-0.2052-0.063078-0.1582-0.20508h-0.01563zm99.25 5.3398c-2.7486-0.043561-5.1792 1.2483-7.1738 3.5371-0.424-1.48-1.0692-2.8336-2.5332-3.2266-3.996-0.992-6.8127 1.1637-7.6777 2.0137-0.393 0.378-0.78594 0.75619-1.2109 1.1172l0.81836-2.8164h-6.75l-1.8398 5.3516-2.9277 8.4805-2.6426 7.6016c-0.299 0.897-0.66232 1.9503-0.94532 2.8633h7.1133c1.384-4.091 3.8854-11.408 4.6094-13.344 1.022-2.722 2.6596-4.9259 4.3906-4.2969 1.762 0.646 0.2358 4.5486-0.1582 5.6816l-4.1699 11.959h7.1914c1.369-4.028 3.9475-11.613 4.6875-13.58 1.023-2.723 2.6596-4.9259 4.3906-4.2969 1.762 0.646 0.2358 4.5486-0.1582 5.6816l-4.248 12.195h7.0176s4.4533-12.589 6.5293-18.789c0.394-1.416 0.58437-3.1944-0.26563-4.4844-0.472-0.756-1.3068-1.1794-2.0938-1.4004-0.66675-0.15637-1.3188-0.23799-1.9531-0.24805zm-133.51 0.054688c-2.4847-0.057656-4.9803 0.42102-7.2812 0.91602-0.204 0.064-1.9671 0.45673-2.5801 0.67773-0.819 1.967-1.747 3.8871-2.502 5.8711 1.448-0.52 2.9254-1.1502 4.4824-1.5742 0.205-0.063 0.42611-0.12741 0.66211-0.19141 1.479-0.282 3.2255-0.75375 4.6895-0.21875 0.267 0.158 0.48683 0.42498 0.54883 0.70898 0.08 0.96-0.47044 1.8248-1.2734 2.3438-1.416 0.897-3.021 1.2437-4.627 1.6367-0.74 0.157-1.4779 0.34541-2.1699 0.56641-3.399 0.897-6.8296 3.2746-8.0566 6.7676-0.394 1.023-0.74048 2.2652-0.77148 3.4922v0.2207c0.016 1.07 0.32981 2.1091 1.1328 2.9121 2.659 2.454 6.719 0.944 9.709 0.125 0 0.048 0.04687 0.55078 0.04687 0.55078h7.1758c0.409-1.306 0.92656-2.5797 1.3516-3.8867l4.2969-12.479c0.409-1.29 1.0376-2.7379 1.0996-4.1699v-0.36328a3.88 3.88 0 0 0-0.39258-1.5879v-0.00195c-0.63025-1.1791-1.8888-1.7937-3.0684-2.0606-0.818-0.1575-1.6444-0.23664-2.4727-0.25586zm99.717 0.060547c-2.2781 0.025701-4.5522 0.46422-6.6621 0.91797-0.204 0.064-1.9661 0.45773-2.5801 0.67773-0.818 1.968-1.746 3.8861-2.502 5.8691 1.448-0.519 2.9264-1.1483 4.4844-1.5723 0.204-0.063 0.42415-0.12545 0.66015-0.18945 1.479-0.283 3.2265-0.7557 4.6895-0.2207 0.268 0.158 0.48778 0.42498 0.55078 0.70898 0.079 0.96-0.47239 1.8248-1.2754 2.3438-1.416 0.897-3.021 1.2437-4.625 1.6367-0.74 0.157-1.4789 0.34641-2.1719 0.56641-3.398 0.898-6.8267 3.2746-8.0547 6.7676-0.39299 1.023-0.73948 2.2661-0.77148 3.4941v0.21875c0.016 1.07 0.33081 2.1091 1.1328 2.9121 2.659 2.454 6.718 0.944 9.707 0.125 0 0.048 0.0488 0.55078 0.0488 0.55078h7.1738c0.409-1.306 0.92952-2.5797 1.3535-3.8867l4.2949-12.479c0.409-1.29 1.0386-2.7379 1.1016-4.1699v-0.36133a3.864 3.864 0 0 0-0.39255-1.5898c-0.629-1.18-1.8884-1.7955-3.0684-2.0625-1.0228-0.19687-2.0582-0.26949-3.0938-0.25781zm-19.814 0.052734c-6.53 0.284-10.921 6.642-12.746 12.166-1.07 3.257-2.1712 7.3645-0.28321 10.605 2.517 3.62 7.9461 2.5337 11.58 1.6367 0 0 2.2504-4.8768 3.2734-7.3008-2.203 0.661-4.8779 1.967-7.2539 0.70703-0.613-0.488-0.97461-1.1954-0.97461-1.9824 0.031-2.423 0.897-4.5164 2.25-6.3574 1.463-1.936 3.713-2.926 6.168-2.375 1.085 0.204 2.0297 0.73761 3.0527 1.0996 0.598-2.392 1.8398-7.2695 1.8398-7.2695l0.0156-0.015625c-2.014-0.834-4.5619-0.91406-6.9219-0.91406zm-63.287 0.068359c-1.253 0.00656-2.4839 0.16325-3.6172 0.54688-2.769 0.724-5.2228 3.493-6.0098 6.168-0.834 2.109-0.36106 4.7061 0.96094 6.4531 0.786 1.306 2.218 2.376 2.375 3.918-0.016 0.583-0.37674 1.132-0.92773 1.416-2.328 1.023-4.8306 0.06356-6.7656-1.1484-0.048-0.016-0.26758-0.14258-0.26758-0.14258l-1.6367 7.082c2.061 0.645 4.3896 1.0389 6.7656 0.96094 4.028-0.142 8.3228-2.4401 9.6758-6.4531 0.976-2.345 0.45726-5.2564-1.0527-7.3184-0.897-1.243-2.6748-2.3902-1.9668-4.0742a2.02 2.02 0 0 1 1.3848-0.92969c1.967-0.315 3.9481 0.06394 5.5371 0.96094 0 0 1.2064-4.4173 1.6484-6.5937-1.8673-0.45215-4.0166-0.85662-6.1035-0.8457zm6.1035 0.8457c0.0012 2.874e-4 0.0027-2.874e-4 0.0039 0v-0.015624c-8.37e-4 0.00413-0.0031 0.01148-0.0039 0.015624zm47.104-0.8418c-2.2672-0.26631-4.311 1.4585-5.9219 2.918 0.11-0.802 0.70703-2.3613 0.70703-2.3613h-6.8125l-3.0059 8.6406c-0.708 2.078-1.4314 4.1243-2.1074 6.1543l-3.2422 9.3008h7.1133s3.5236-10.403 4.0586-11.615c1.101-2.502 1.5898-2.9427 2.8008-4.1387 1.259-1.038 3.1154-1.7771 4.8144-1.0371 0.13768 0.06011 0.27748 0.1067 0.44336 0.16602l2.1367-7.7832c-0.33238-0.12587-0.66049-0.2061-0.98438-0.24414zm-1.1523 8.0273-2e-3 0.0059h0.0156c-5e-3 -0.0019-8e-3 -4e-3 -0.0137-0.0059zm-20.768-8.0215c-0.81408-0.021109-1.637 0.038281-2.4277 0.14453-0.362 0.063-0.75519 0.13975-1.1172 0.21875-5.192 1.306-9.2352 6.1843-11.076 11.031-0.724 2.046-1.4961 4.3278-1.6211 6.5938v1.1973c0.047 0.929 0.23603 1.8712 0.58203 2.7832 1.054 2.314 3.5563 3.1649 5.9473 3.3379 2.093 0.063 4.185-0.06316 6.168-0.41016 0.818-0.141 1.6056-0.33078 2.3926-0.55078 1.07-2.172 3.0684-6.75 3.0684-6.75-0.63 0.141-1.2597 0.42466-1.8887 0.59766-1.07 0.283-2.3293 0.67624-3.5723 0.86523-1.542 0.22-3.0994 0.15789-4.3574-0.78711-0.929-0.755-1.007-2.0291-0.83398-3.1621 0.126-0.33 0.1252-0.72556 0.4082-0.97656h12.918c0.786-2.33 1.9194-4.9249 1.9824-7.5059v-0.56641a7.525 7.525 0 0 0-0.61329-2.8809v-0.01563c-1.1565-2.325-3.5168-3.1007-5.959-3.1641zm-2.2852 5.4473c0.63 0.016 1.2728 0.12541 1.6348 0.69141 0.582 1.008 0.20537 2.3761-0.14062 3.4141h0.01563v2e-3l-0.03125 0.0625h-5.916c0.016-0.66 1.6045-3.1011 3.0195-3.7461 0.41-0.19 0.97697-0.42383 1.418-0.42383zm-50.098 8.7012-1.7637 4.9727h0.01563s-4.6567 2.203-5.0977 0c-0.613-3.147 6.8457-4.9727 6.8457-4.9727zm100.34 0.0625-1.7617 4.9746h0.0156s-4.6577 2.203-5.0977 0c-0.61399-3.147 6.8438-4.9746 6.8438-4.9746zm39.965 6.7363c-0.314 0-0.61249 0.06383-0.89649 0.17383-0.26699 0.126-0.51865 0.28233-0.72265 0.48633-0.221 0.205-0.37791 0.44161-0.50391 0.72461s-0.18945 0.58211-0.18945 0.91211v0.01563a2.183 2.183 0 0 0 0.18945 0.89844 2.3 2.3 0 0 0 1.2266 1.1953c0.284 0.11 0.58249 0.17383 0.89649 0.17383 0.299 0 0.59786-0.06383 0.88086-0.17383a2.418 2.418 0 0 0 0.74023-0.48828 2.13 2.13 0 0 0 0.50391-0.72461 2.256 2.256 0 0 0 0-1.8086c-0.125-0.283-0.29891-0.51961-0.50391-0.72461a2.31 2.31 0 0 0-1.6211-0.66016zm-0.0137 0.3457a2.015 2.015 0 0 1 0.7539 0.14258 1.823 1.823 0 0 1 0.61328 0.4082 1.823 1.823 0 0 1 0.41016 0.61328c0.11 0.236 0.15625 0.50544 0.15625 0.77344 0 0.267-0.0623 0.53453-0.15625 0.76953-0.095 0.252-0.23616 0.45591-0.41016 0.62891-0.17299 0.173-0.37728 0.31616-0.61328 0.41016-0.236 0.11-0.4869 0.1582-0.7539 0.1582-0.268 0-0.52182-0.0642-0.75782-0.1582-0.23599-0.095-0.43832-0.23716-0.61132-0.41016-0.173-0.174-0.31616-0.37728-0.41016-0.61328-0.10774-0.22906-0.15355-0.488-0.15625-0.74805a2.114 2.114 0 0 1 0.15625-0.77734 1.741 1.741 0 0 1 0.41016-0.62891c0.173-0.174 0.37533-0.31516 0.61132-0.41016 0.236-0.11 0.48982-0.1582 0.75782-0.1582zm-0.85157 0.62891 0.0176 0.01758v2.6426h0.36133v-1.1328h0.67578l0.51953 1.1328h0.39258l-0.55078-1.1641c0.173-0.11 0.1422-0.09508 0.2832-0.20508 0.142-0.11 0.20508-0.28353 0.20508-0.51953 0-0.267-0.0618-0.45508-0.21875-0.58008-0.158-0.127-0.39398-0.19141-0.70898-0.19141zm0.39454 0.36328h0.76953a0.42 0.42 0 0 1 0.18945 0.04687c0.063 0.032 0.11058 0.062 0.14258 0.125a0.542 0.542 0 0 1-0.0156 0.47266 0.423 0.423 0 0 1-0.1582 0.125c-0.079 0.017-0.15833 0.04883-0.23633 0.04883h-0.6914z" fill="#636970"/></g></g></g></svg>
