<svg fill="#636970"   version="1.1" viewBox="0 0 128.01 128.01" xml:space="preserve" xmlns="http://www.w3.org/2000/svg"><g transform="translate(-40.995,-84.495)"><g transform="matrix(2.4323 0 0 2.4323 203.55 -52.111)" ><path d="m-51.462 61.318-5.4147 3.1295-5.4147 3.13-0.09612 6.3541 8.66e-4 6.3299c0.05885-0.0059 0.79595-0.07714 1.9115-0.01395l-5.17e-4 5.17e-4c1.1622 0.06583 2.717 0.2786 4.2855 0.86713 3.1651 1.1876 5.1536 2.8901 5.5647 3.238 0.64816-1.4053 1.8772-2.7248 3.4158-3.607 1.0184-0.58393 2.0099-1.1159 2.2035-1.1824 0.19934-0.06844 0.04995-0.68211-0.34468-1.4149-0.63079-1.1713-0.83587-1.2935-2.1663-1.2935-1.315 0-1.8981-0.38846-1.8981-1.264 0-0.08114 0.84833-0.14728 1.8846-0.14728h1.8841l1.9337 3.5533 3.2024-0.10025v-11.31l-5.4715-3.1321zm13.557 21.138c-0.55224 3.4e-5 -0.9999 0.4477-0.99994 0.99994 3.4e-5 0.55224 0.4477 0.9999 0.99994 0.99994 0.55224-3.4e-5 0.9999-0.4477 0.99994-0.99994-3.4e-5 -0.55224-0.4477-0.9999-0.99994-0.99994zm-5.5144 0.04341c-0.55223 3.4e-5 -0.99989 0.4477-0.99994 0.99994-2.39e-4 0.55244 0.44751 1.0004 0.99994 1.0005 0.55243-3.4e-5 1.0002-0.44801 0.99994-1.0005-4.7e-5 -0.55224-0.44771-0.9999-0.99994-0.99994zm-8.1215 6.3831v2.4314h22.241v-2.4314zm1e-3 4.2116v2.128h22.236v-2.128z" fill-opacity=".48387"/><path d="m-29.639 61.291-10.855 6.2968v11.309l3.205-0.10129 0.92552-1.5875c0.91005-1.5609 0.95964-1.5893 2.9549-1.694 1.9504-0.10233 2.0141-0.07815 1.6418 0.61753-0.28854 0.53914-0.73712 0.72399-1.7575 0.72399-1.1749 0-1.4745 0.16906-2.1043 1.188-0.85712 1.3869-0.89878 1.634-0.2744 1.634 0.82868 0 3.66 2.0149 4.6442 3.3052 0.52985 0.69467 1.0896 1.8229 1.2439 2.5068l0.2806 1.2433h-21.534l0.22841-1.1405c0.08233-0.41162 0.2229-0.8241 0.40928-1.2299-0.40517-0.34298-2.4913-2.0306-5.6612-3.22-3.1344-1.1761-6.2131-0.85163-6.2131-0.85163a5e-3 5e-3 0 0 1-0.0047-0.0026l-1.8981 0.19585c-2.5599 0.26421-2.7589 0.42369-2.1058 1.6867 0.46672 0.90253 0.66762 1.0062 1.4981 0.77463 0.52747-0.14709 2.229-0.24948 3.7812-0.22738 3.388 0.04817 6.0752 0.96625 8.23 2.8107l1.4712 1.2594v2.0944h22.225v-2.4955l1.6759-1.217c0.92163-0.66933 2.5487-1.4962 3.6158-1.8376 1.9951-0.63836 6.4818-0.85549 8.1489-0.39429 0.76281 0.21105 0.98474 0.104 1.3229-0.6382 0.63992-1.4045 0.5331-1.5151-1.7105-1.7689l-2.1167-0.23926v-12.51l-5.6338-3.2458zm-21.894 30.023v1.7803h22.225v-1.7803zm-0.0078 3.8194-1.2971 1.1389c-0.71774 0.6302-1.9914 1.4495-2.8303 1.8206l-1.525 0.6749 0.61288 1.0382c0.33732 0.57104 0.74311 1.0382 0.90175 1.0382 0.38277 0 3.4409-1.5758 4.2783-2.2045 0.59655-0.44789 1.1327-0.22539 5.4627 2.265 2.6408 1.5189 5.0917 2.7616 5.4462 2.7616 0.35445 0 2.8048-1.2574 5.4451-2.7941l4.8007-2.7941 1.1054 0.84284c0.60783 0.46362 1.7203 1.1002 2.4722 1.4144 1.3362 0.55831 1.3813 0.5525 2.0014-0.25373 0.90101-1.1714 0.81-1.5075-0.54157-1.9963-0.65558-0.23706-1.8462-0.90491-2.6458-1.4841l-1.4542-1.0532v-0.32556h-22.233z"/></g></g></svg>
