<svg   version="1.1" viewBox="0 0 128 128" xml:space="preserve" xmlns="http://www.w3.org/2000/svg"><g transform="translate(-40.995,-84.495)"><g transform="matrix(.26458 0 0 .26458 64.114 86.791)" fill="none"><path d="m267.14 35.152c-9.9636-29.817-63.439-38.821-108.63-36.821-44.871 1.9805-85.792 12.718-83.241 20.945 2.6719 8.5743 25.28 7.995 39.058 7.6418 2.3608-0.0606 4.4635-0.11443 6.1608-0.11443 42.734 0 83.888 7.8419 93.721 19.131 15.328 17.632-11.068 61.124-92.25 120.41-15.574 11.379-27.198 21.85-29.769 26.986-1.3876 2.7383-0.72845 6.7122 3.5331 7.2637 4.4665 0.58394 15.184-1.768 32.858-10.343 72.121-34.978 154.88-106.24 138.56-155.1zm84.409 124.4-1.2416-0.20201c-39.894-6.5235-111.27-9.0878-135.67 28.304-18 27.601 13.669 64.924 44.799 101.61 1.4716 1.7356 2.9418 3.4697 4.4075 5.2008 2.7648 3.2676 5.5547 6.5191 8.321 9.7425l6e-3 6e-3c23.241 27.079 44.741 52.133 34.409 67.444-8.1146 12.058-54.083 13.711-79.989 14.642-4.1774 0.15041-7.8344 0.28164-10.726 0.43499-6.9349 0.3716-14.703 0.64882-22.458 0.92457-20.544 0.73138-40.994 1.4598-45.616 3.9504-5.714 3.0789-8.8946 12.641 12.516 16.461 17.189 3.0848 58.108 9.3473 101.31 9.3163 45.089-0.0103 92.453-7.3935 102.73-42.304 7.451-25.312-15.147-52.265-38.128-79.675l-0.00397-0.00397-9.7e-4 -3e-3 -3e-3 -3e-3 -9.7e-4 -3e-3 -3e-3 -9.7e-4 -9.7e-4 -3e-3 -3e-3 -3e-3 -9.7e-4 -3e-3 -0.00397-0.00397-9.7e-4 -3e-3 -3e-3 -3e-3 -9.7e-4 -3e-3c-2.4655-2.9403-4.9354-5.885-7.3728-8.8342-6.2463-7.566-12.51-14.64-18.437-21.331l-9.7e-4 -3e-3c-20.21-22.82-36.481-41.192-34.664-59.471 1.8049-18.36 37.858-19.423 97.65-20.47 12.473-0.23003 37.225-0.82724 32.452-10.657-4.1789-8.5112-22.105-11.435-44.265-15.051zm-294.03 61.534c37.557-1.9612 83.179 3.9135 108.8 21.484 12.74 8.725 21.7 24.793 16.512 43.212-14.788 52.271-69.989 115.51-192.65 164.11-39.004 15.455-69.672 21.365-76.108 17.217-6.0637-3.9032 8.6286-30.867 16.432-45.188l0.0012-3e-3 0.0024-4e-3 0.0029-4e-3c1.1002-2.0187 2.0631-3.7867 2.8113-5.2023 19.581-37.075 44.047-73.177 67.897-106.23 0.83298-1.1546 1.709-2.3888 2.6227-3.6761l0.0018-9.7e-4c8.7227-12.289 20.885-29.424 31.998-27.896 10.994 1.5085-1.8842 23.934-10.352 38.188-14.23 23.925-53.426 90.379-40.497 94.347 28.585 8.7884 162.71-82.65 142.93-133.58-9.1674-23.631-67.403-25.885-104.07-25.885-2.8943 0-6.3828 0.10618-10.183 0.22267h-0.01626c-18.105 0.55296-43.267 1.3197-44.933-8.1382-2.1732-10.561 55.352-21.198 88.803-22.971z" clip-rule="evenodd" fill="#636970" fill-rule="evenodd" /></g></g></svg>
