<svg   version="1.1" viewBox="0 0 128 128" xml:space="preserve" xmlns="http://www.w3.org/2000/svg"><defs><style>.cls-1{fill:#141e8c;}.cls-2{fill:#fff;}</style></defs><g transform="matrix(.36062 0 0 .36062 748.71 -938.01)"><path d="m-1898.7 2601.1a177.47 177.47 0 0 0-177.47 177.47 177.47 177.47 0 0 0 177.47 177.47 177.47 177.47 0 0 0 177.47-177.47 177.47 177.47 0 0 0-177.47-177.47zm-19.137 54.752c0.678 0 1.3561 0 2.034 0.022 0.8495 0.099 1.7659-0.1 2.5623 0.2698 1.0198 0.3481 2.1563 0.053 3.1991 0.3408 0.6941 0.5169 1.6044 0.2312 2.3823 0.4489 0.5472 0.4963 1.3238 0.3031 1.9755 0.4836 0.5245 0.5245 1.3079 0.2969 1.9476 0.4848 0.3694 0.4298 0.9746 0.3439 1.4697 0.4735 0.3744 0.4469 0.9909 0.3731 1.5015 0.4959 0.2374 0.3317 0.6541 0.4063 1.0277 0.4959 0.3072 0.4956 0.9914 0.2967 1.4561 0.5098 0.21 0.4074 0.7671 0.2914 1.0527 0.5487 0.2068 0.4009 0.8312 0.1843 1.0152 0.5622 0.3431 0.289 0.9745 0.2786 1.1929 0.7564 0.2921 0.5099 1.0995 0.2681 1.3132 0.8228 0.5633 0.076 1.0475 0.429 1.3714 0.8851 1.1947 0.4346 1.9281 1.5402 2.8914 2.3054 0.7631 0.4527 1.6303 0.9226 1.9842 1.7977 0.7631 1.2693 2.0256 2.0709 2.8272 3.2889 0.1365 0.5787 0.6942 0.8826 1.0058 1.3487 0.049 0.6537 0.6665 1.0021 0.9938 1.5005 0.028 0.7954 1.0829 1.0979 1.0424 1.9114 0.3677 0.2213 0.54 0.6438 0.4889 1.0624 0.4328 0.1193 0.503 0.5823 0.4959 0.9654 0.502 0.1971 0.4512 0.7995 0.4838 1.2409 0.2022 0.3566 0.5946 0.7045 0.4721 1.1847 0.59 0.2389 0.4412 0.9641 0.5347 1.4685 0.4925 0.2463 0.4184 0.8649 0.4575 1.3241 0.6117 0.4921 0.3548 1.3567 0.5731 2.0031 0.685 0.9122 0.092 2.1367 0.604 3.1083 0.4168 1.403 0.1837 2.907 0.2936 4.3525-0.044 0.6697 0.3878 1.2223 0.4013 1.8849 0.039 1.08 0.1066 2.1775-0.059 3.2487-0.3977 0.9245-0.3552 1.9573-0.3672 2.9482-0.064 1.1514 0.05 2.3201-0.1562 3.4584-0.5715 1.2557-0.1811 2.678-0.478 3.9908-0.5798 0.8835-0.1802 2.0054-0.4958 2.9544-0.5933 0.8686-0.1666 1.9619-0.4794 2.9049-0.5913 0.6918-0.1684 1.6803-0.4933 2.4702-0.5331 0.5241-0.2052 1.3403-0.4761 1.9776-0.5537 0.6432-0.2207 1.5713-0.4636 2.3303-0.4854 0.5566-0.3106 1.3293-0.4783 1.989-0.5196 0.5273-0.3113 1.306-0.4863 1.9501-0.5258 0.5276-0.3055 1.313-0.4905 1.9576-0.5131 0.5206-0.3042 1.2976-0.4834 1.9336-0.5151 0.5328-0.3065 1.3148-0.4933 1.9601-0.4206 0.3696-0.3492 0.9711-0.4695 1.4641-0.544 0.5034-0.3112 1.299-0.4984 1.9337-0.4282 0.3737-0.3424 0.9797-0.4794 1.4752-0.4386 0.3606-0.3488 0.9718-0.4864 1.4631-0.4595 0.3689-0.3356 1.0085-0.5068 1.5041-0.4326 0.3259-0.3421 0.9057-0.4435 1.3729-0.4169 0.3634-0.3992 0.9492-0.4889 1.4529-0.4078 0.3723-0.398 0.9506-0.486 1.4574-0.4073 0.3728-0.4005 0.9538-0.4878 1.4613-0.4245 0.3841-0.3887 0.9874-0.5014 1.5042-0.3217 0.2496-0.3971 0.6657-0.4944 1.0405-0.4596 0.3208-0.3643 0.9221-0.4695 1.399-0.4507 0.3478-0.3898 0.9522-0.4879 1.4502-0.4228 0.3391-0.4036 0.9081-0.4654 1.3979-0.2701 0.2768-0.4192 0.6493-0.5068 1.0277-0.4429 0.3563-0.3898 0.9633-0.4904 1.467-0.4186 0.3444-0.4031 0.9114-0.4655 1.4034-0.2661 0.2756-0.4191 0.6458-0.5043 1.0221-0.4483 0.357-0.3742 0.9706-0.4959 1.4712-0.4276 0.3458-0.3659 0.9375-0.4749 1.4209-0.2806 0.2664-0.4036 0.6471-0.4918 1.0196-0.4539 0.3393-0.3791 0.9487-0.4736 1.4114-0.2881 0.2614-0.4114 0.642-0.4962 1.0156-0.446 0.3348-0.3877 0.9303-0.4765 1.4199-0.4397 0.3752-0.3882 0.987-0.5069 1.5015-0.3267 0.245-0.393 0.6672-0.4958 1.039-0.4549 0.318-0.3611 0.913-0.4641 1.3852-0.4408 0.3519-0.4008 0.9489-0.4849 1.4516-0.3329 0.2496-0.4087 0.6725-0.5098 1.054-0.4473 0.3013-0.3707 0.8843-0.4544 1.3492-0.411 0.3559-0.4152 0.9331-0.4875 1.4327-0.2478 0.2899-0.4169 0.6496-0.4998 1.0306-0.4379 0.3572-0.3924 0.9628-0.4905 1.4667-0.4158 0.3444-0.4038 0.9116-0.4654 1.4033-0.2687 0.2751-0.4144 0.6488-0.5043 1.0237-0.4276 0.3468-0.3889 0.9335-0.4765 1.4279-0.4169 0.3662-0.3976 0.9519-0.4889 1.4561-0.4293 0.3929-0.3885 1.0064-0.5113 1.529-0.315 0.2637-0.4146 0.6703-0.5013 1.06-0.4553 0.2696-0.3331 0.8741-0.4446 1.3157-0.4287 0.3575-0.397 0.9472-0.4893 1.4478-0.3807 0.3541-0.4106 0.8982-0.4687 1.3867-0.1627 0.3157-0.4557 0.6062-0.4358 1.0054 0.1247 0.4941-0.3585 0.7712-0.4626 1.2064 0.03 0.4911-0.1147 0.979-0.4819 1.3258 0.029 0.5226-0.07 1.0926-0.4863 1.4517 0.049 0.5437-0.1113 1.0908-0.4724 1.4946-0.316 0.5851 0.4108 1.2031 0.9624 0.8833 0.9806-0.6925 2.2398-0.2796 3.3447-0.5121 0.7554-0.5209 1.7168-0.3414 2.5801-0.4863 0.5067-0.5587 1.3302-0.3227 1.989-0.4805 0.3054-0.5038 0.9724-0.3695 1.4657-0.4626 0.2751-0.5386 0.968-0.3879 1.4617-0.4892 0.2775-0.5317 0.9597-0.3883 1.4517-0.4835 0.2815-0.5337 0.9624-0.3949 1.4583-0.4859 0.1705-0.341 0.5622-0.4262 0.9111-0.434 0.5338 0.1375 0.7648-0.5642 1.2871-0.4826 0.3496-0.1787 0.674-0.6135 1.1457-0.4937 0.1919-0.1762 0.4047-0.5045 0.7661-0.4655 0.4831 0.054 0.8801-0.2199 1.2427-0.4958 0.4928 0.1219 0.7131-0.5895 1.2227-0.493 0.3561-0.2071 0.7392-0.569 1.2164-0.4904 0.5048 0.065 0.7679-0.599 1.2619-0.4655 0.318-0.2954 0.6954-0.6083 1.1636-0.5112 0.1886-0.5165 0.801-0.4681 1.248-0.5014 0.3527-0.2079 0.703-0.588 1.1816-0.475 0.2387-0.5865 0.9664-0.4376 1.4672-0.5321 0.2798-0.5352 0.9666-0.3923 1.4626-0.486 0.2719-0.504 0.8596-0.4119 1.3231-0.4559 0.5167-0.595 1.3804-0.4114 2.0748-0.5363 0.4286-0.5811 1.2257-0.3289 1.8369-0.472 0.6395-0.5949 1.5744-0.3447 2.3603-0.4919 1.1373-0.8015 2.6229-0.076 3.8094-0.7022 1.8803-0.3434 3.8033-0.1579 5.7029-0.1664 0.8106-0.037 1.5049 0.4677 2.3139 0.4344 0.7576 0.086 1.6204-0.1229 2.2907 0.2997 0.5815 0.3712 1.3893 0.011 1.9143 0.4585 0.4078 0.3595 1.0671 0.094 1.4473 0.4475 0.2479 0.3811 0.8863 0.162 1.0523 0.5861 0.363 0.2503 0.9318 0.092 1.3358 0.3225 0.2465 0.4769 1.0689 0.1925 1.1622 0.8007 0.7236-0.087 1.1014 0.6268 1.6307 0.9768 0.535-0.05 0.8122 0.4866 1.1918 0.7609 0.8329 0.4739 1.5768 1.0869 2.2316 1.7893 0.86 0.9002 1.8359 1.711 2.5308 2.7528 0.1976 0.692 1.0766 0.9939 1.1057 1.742 0.1546 0.2682 0.558 0.4887 0.48 0.8836 0.2041 0.3661 0.618 0.7182 0.4956 1.2124 0.5063 0.1887 0.4701 0.7886 0.4978 1.2325 0.1825 0.3559 0.4912 0.7107 0.4529 1.1575 0.053 0.6428-0.1556 1.5457 0.5835 1.8753 1.9336 0.4716 3.9702 0.033 5.9271 0.3841 0.7518 0.4501 1.6671 0.2486 2.4845 0.4508 0.3865 0.3752 0.948 0.3546 1.4447 0.4486 0.3696 0.3911 0.9343 0.4135 1.4378 0.4795 0.2936 0.2544 0.663 0.4206 1.05 0.5057 0.2341 0.3369 0.6652 0.3745 1.0211 0.4999 0.2353 0.359 0.6852 0.387 1.0527 0.5168 0.1751 0.5115 1.0233 0.1999 1.1303 0.7744 0.8392 0.1664 1.3781 0.873 1.9699 1.422 0.4711 0.588 1.3537 0.6058 1.7342 1.2873 0.2949 0.9824 1.2122 1.5538 1.7986 2.343 0.2275 0.4044 0.4112 0.8289 0.7376 1.1684-0.084 0.5296 0.6308 0.8027 0.4931 1.3271 0.2973 0.312 0.6089 0.6926 0.5072 1.1567 0.5439 0.2007 0.4664 0.8529 0.5083 1.3187 0.6617 0.6851 0.3627 1.6562 0.5418 2.5003 0.5755 0.7779 0.3327 1.7915 0.4056 2.6887-0.088 0.5394-0.033 1.3589 0.6564 1.4381 0.9536-0.025 1.9445-0.1311 2.8884 0.091 1.0716 0.546 2.3046 0.2263 3.439 0.4698 0.5748 0.4534 1.3433 0.3078 2.0103 0.4746 0.3806 0.4141 0.9774 0.3516 1.4781 0.4736 0.3616 0.4262 0.9495 0.3896 1.4517 0.4753 0.2527 0.3283 0.6738 0.4054 1.0529 0.5098 0.2194 0.369 0.6815 0.382 1.0417 0.5179 0.1893 0.5079 1.0532 0.2024 1.1453 0.8144 0.6351-0.061 1.0535 0.4781 1.4436 0.888 1.0061 0.267 1.5809 1.212 2.3735 1.8098 0.9027 0.4528 1.6826 1.135 2.2668 1.9622 0.4054 1.0521 1.4429 1.5955 1.9795 2.5253 0.1662 0.6488 0.8157 0.9794 1.0804 1.5624-0.084 0.4152 0.4093 0.5148 0.4849 0.8865-0.061 0.4143 0.3658 0.6171 0.4903 0.9738-0.081 0.496 0.588 0.7201 0.5062 1.2286 0.2019 0.3615 0.6209 0.7114 0.4911 1.204 0.5446 0.2059 0.4655 0.8626 0.5074 1.3311 0.5913 0.5171 0.4048 1.3766 0.5358 2.0681 0.3818 0.2942 0.3881 0.8095 0.4002 1.2484-0.023 0.5367 0.02 1.075 0.3122 1.5437 0.2478 2.3817 0.1839 4.8223 0.1613 7.2366-0.05 1.069 0.025 2.1574-0.1671 3.2113-0.4811 0.7339-0.1468 1.6597-0.4409 2.4449-0.5252 0.5176-0.2121 1.3182-0.4669 1.9516-0.4062 0.3915-0.3417 0.985-0.4651 1.4892-0.3247 0.2428-0.4078 0.6546-0.4945 1.0305-0.4796 0.3054-0.3187 0.9621-0.4918 1.4309-0.3408 0.2337-0.3882 0.6666-0.4988 1.0321-0.4225 0.157-0.2965 0.7098-0.5344 1.0166-0.4733 0.1931-0.1709 1.0364-0.7759 1.115 0.066 0.6603-0.522 1.0704-0.914 1.503-0.057 0.6035-0.5272 1.0316-0.9533 1.4089-0.1525 0.795-0.8504 1.2913-1.3392 1.8798-0.6636 1.3739-1.9702 2.2576-2.8939 3.437-0.3167 0.538-0.5662 1.284-1.2728 1.418-1.3286 0.8789-2.3066 2.2137-3.5701 3.1911-0.7934 0.3337-1.3146 1.0592-2.0122 1.5346-0.5881 0.1218-0.949 0.636-1.3994 0.9855-0.3853 0.068-0.7047 0.2943-0.9902 0.5582-0.6532 0.015-1.0319 0.5988-1.5086 0.9503-0.4106 0.061-0.7153 0.3295-1.0335 0.5722-0.7658-0.061-1.0582 0.9905-1.8116 0.9763-0.2679 0.1555-0.492 0.5561-0.8866 0.4834-0.3712 0.1986-0.7174 0.6181-1.2134 0.4974-0.1428 0.3756-0.5497 0.4675-0.9113 0.4746-0.5336-0.1359-0.7612 0.5617-1.2826 0.4859-0.3664 0.1968-0.7157 0.6269-1.2099 0.49-0.1896 0.5159-0.8009 0.4753-1.2505 0.5044-0.354 0.2059-0.7047 0.594-1.1846 0.4721-0.2255 0.5523-0.8555 0.4593-1.3241 0.5068-0.3414 0.3866-0.8731 0.5073-1.3697 0.4769-0.3625 0.1905-0.7086 0.6057-1.1943 0.4764-0.2404 0.5915-0.9655 0.4421-1.4712 0.5347-0.2727 0.5401-0.9671 0.3913-1.4601 0.4875-0.2773 0.5365-0.9669 0.3915-1.4613 0.4864-0.2426 0.4934-0.8599 0.4125-1.3161 0.4529-0.4796 0.5614-1.2908 0.4377-1.9487 0.515-0.3712 0.3976-0.938 0.4771-1.4547 0.453-0.5153 0.6046-1.3848 0.4162-2.0821 0.5446-0.4585 0.6068-1.3036 0.3097-1.9432 0.4914-0.6263 0.65-1.6058 0.2697-2.3896 0.4933-0.6664 0.6249-1.6573 0.2606-2.4516 0.5047-0.7345 0.6975-1.8913 0.09-2.667 0.6454-0.8691 0.4548-1.9473-0.022-2.7993 0.4457-1.1144 0.4606-2.3561 0.1327-3.5118 0.3504-0.6223 0.251-1.2877 0.3496-1.9608 0.3687-1.5967 0.059-3.2021-0.015-4.7932 0.1286-1.0909 0.3739-2.2686 0.3611-3.414 0.3845-1.6624-0.03-3.3347 0.051-4.9891-0.1217-1.1612-0.3805-2.3975-0.3611-3.6079-0.354-0.9724-0.052-1.9621 0.03-2.9211-0.1543-1.0604-0.5942-2.327-0.1393-3.4536-0.4816-0.905-0.5244-1.985-0.2253-2.955-0.4684-0.7121-0.533-1.6426-0.2627-2.4446-0.4764-0.5222-0.4782-1.2652-0.3216-1.8988-0.4567-0.3829-0.3069-0.8739-0.4408-1.3675-0.4167-0.6186 0.1088-1.0034-0.5159-1.6097-0.4904-0.4559 0.1-0.7309-0.3423-1.1332-0.4493-0.4145-0.029-0.8449-0.034-1.1707-0.346-0.4498-0.3944-1.0367-0.069-1.3989 0.2752-0.3978-0.04-0.6753 0.2727-0.9654 0.4875-0.413-0.044-0.6995 0.2944-1.0085 0.5043-0.4021-0.038-0.6955 0.273-0.9889 0.4959-0.5293-0.085-0.805 0.6311-1.3285 0.4948-0.3173 0.2909-0.6937 0.6106-1.1593 0.5068-0.1894 0.5164-0.7998 0.4724-1.248 0.5044-0.3565 0.2056-0.7065 0.5887-1.1871 0.475-0.1933 0.5102-0.8005 0.4675-1.2478 0.4973-0.3549 0.2057-0.7042 0.5929-1.1846 0.4739-0.2392 0.5886-0.9636 0.4396-1.4672 0.5332-0.2467 0.4911-0.8645 0.4145-1.3226 0.4585-0.4856 0.5615-1.3034 0.4267-1.9631 0.5138-0.534 0.5601-1.3753 0.378-2.0637 0.511-0.4747 0.6081-1.2878 0.3021-1.9381 0.4878-0.6259 0.6522-1.6067 0.2672-2.3907 0.4944-0.624 0.5863-1.5398 0.2994-2.3024 0.4654-0.9855 0.6792-2.2303 0.2621-3.3231 0.511-0.8755 0.3866-1.8433 0.3931-2.785 0.3796-1.1578 0.1081-2.3627-0.1265-3.4818 0.2607-1.7424 0.3391-3.5471 0.2138-5.3176 0.2294-1.0649-0.034-2.1414 0.013-3.1974-0.1342-1.0348-0.4227-2.1916-0.2995-3.2915-0.3449-0.8684-0.055-1.7965 0.092-2.5952-0.3221-0.8964-0.3886-2.0059 0.1216-2.8232-0.4823-0.6862-0.2837-1.4514-0.055-2.1558-0.2925-0.5443-0.4755-1.3053-0.2897-1.9487-0.4626-0.5221-0.523-1.3019-0.3067-1.9422-0.4849-0.3777-0.4232-0.9819-0.3535-1.4835-0.4793-0.3437-0.4124-0.9093-0.3946-1.3974-0.457-0.2721-0.28-0.657-0.4157-1.0336-0.5098-0.3493-0.4457-0.9582-0.3815-1.4543-0.4861-0.2507-0.3219-0.6661-0.4003-1.0417-0.5002-0.2166-0.3739-0.6835-0.3822-1.0418-0.5182-0.1861-0.4934-0.9623-0.2083-1.0941-0.7117-0.4656-0.1456-0.9791-0.3002-1.2304-0.755-0.3321-0.4354-1.0937-0.195-1.2478-0.7841-0.8199-0.082-1.2918-0.8214-1.8868-1.2951-1.1917-0.5141-1.9453-1.6329-2.946-2.4128-0.6177-0.3303-1.2487-0.6991-1.6551-1.297-0.5181-1.1409-1.5174-1.9386-2.3651-2.8271-2.3447 0-4.6899 0.02-7.0342-0.032-0.8574-0.1006-1.7959 0.1193-2.5876-0.2983-1.1688-0.28-2.41-0.037-3.5888-0.302-0.6948-0.5084-1.5973-0.2423-2.3771-0.4446-0.5545-0.4947-1.332-0.3182-1.9935-0.4878-0.3834-0.417-0.9803-0.3547-1.4847-0.4764-0.3452-0.4139-0.9111-0.3961-1.4019-0.4585-0.2697-0.2782-0.6478-0.4141-1.0209-0.5058-0.2484-0.3273-0.6747-0.3856-1.0418-0.5069-0.2309-0.3609-0.684-0.3848-1.047-0.5153-0.2168-0.5099-1.076-0.206-1.1472-0.8188-0.6356 0.066-1.0563-0.4725-1.4459-0.8836-0.8813-0.2515-1.481-0.9918-2.093-1.625-0.3721-0.5607-1.1145-0.4001-1.6969-0.4377-0.9843 0.071-1.9901-0.076-2.9588 0.1345-1.0426 0.5499-2.249 0.2476-3.3652 0.4431-0.7496 0.5205-1.7124 0.3409-2.5721 0.4849-0.6685 0.6175-1.644 0.2859-2.4531 0.4918-0.5023 0.5596-1.3255 0.3171-1.9809 0.4779-0.4808 0.6054-1.2953 0.2987-1.9491 0.4904-0.3031 0.4677-0.8634 0.3839-1.3256 0.4307-0.4586 0.5404-1.2338 0.4341-1.8655 0.5043-0.3324 0.1944-0.6888 0.4629-1.1154 0.4529-0.4512-0.1112-0.6887 0.3328-1.0859 0.4407-0.421-0.023-0.8577 0.039-1.1761 0.3532-0.4249 0.191-1.0288 0.2925-1.4377 0.018-0.1529-0.3886 0.3444-0.6936 0.5776-0.9418 0.5914-0.4096 0.7543-1.1332 1.1856-1.6691 0.5459-0.4609 0.9585-1.0418 1.3161-1.657 2.0336-2.2146 4.1349-4.3863 6.4274-6.3394 0.5634-0.1991 0.8995-0.7311 1.378-1.0573 0.6156-0.042 0.9602-0.6048 1.4049-0.9489 0.6347-0.072 1.0268-0.6091 1.4905-0.9836 0.4036-0.083 0.7398-0.3043 1.0415-0.5792 0.7966 0.064 1.0947-1.0614 1.9005-0.9833 0.3319-0.6134 1.0669-0.4768 1.6444-0.4973-0.2545-0.3114-0.6074-0.5542-0.7869-0.9199-0.3194-1.102-0.051-2.2776-0.2811-3.3916-0.2379-0.5393-0.3502-1.112-0.368-1.7058-0.023-0.8691-0.059-1.7913 0.2181-2.6158 0.543-1.373 0.011-2.9152 0.4545-4.3104 0.3803-0.5756 0.2354-1.2834 0.4072-1.9142 0.5154-0.5245 0.2778-1.2905 0.4809-1.9187 0.2921-0.2769 0.3842-0.6667 0.4749-1.0471 0.4611-0.3156 0.3654-0.9181 0.4695-1.3923 0.3615-0.2567 0.3925-0.7251 0.5446-1.1024 0.4957-0.2362 0.2039-1.0721 0.813-1.1527-0.039-0.4197 0.1-0.8638 0.4933-1.0705-0.062-0.7582 0.8202-1.0439 1.0306-1.6985 1.2268-1.657 2.7564-3.0811 4.2789-4.4695 0.275-0.4062 0.7933-0.4169 1.1372-0.7264 0.3469-0.4578 0.461-1.1224 0.3226-1.6775-0.5477-0.6989-0.3925-1.6403-0.4556-2.4724 0.032-0.4715-0.3859-0.9156-0.3959-1.3106-0.066-0.8783-0.1402-1.7865 0.048-2.6542 0.6409-1.2532 0.1787-2.7208 0.5238-4.0458 0.4881-0.5775 0.2083-1.3927 0.4958-2.0363 0.4269-0.258 0.2069-0.9462 0.663-1.1351 0.2475-0.4762 0.013-1.3091 0.6237-1.6229-0.063-0.5577 0.468-0.8691 0.7631-1.2567 0.4431-0.7923 1.0163-1.5023 1.6834-2.1213 0.9387-0.9072 1.7898-1.9366 2.8906-2.6551 0.6895-0.2249 1.0071-1.1151 1.7856-1.0924 0.2109-0.37 0.6312-0.533 1.0431-0.4905 0.2448-0.5788 0.9618-0.4283 1.4616-0.5251 0.2812-0.5345 0.9684-0.3917 1.4642-0.486 0.3071-0.5677 1.0332-0.3966 1.5624-0.439 0.055-1.8098-0.078-3.6246 0.093-5.4302-0.046-0.5965 0.3816-1.0543 0.4284-1.6291-0.1133-0.4427 0.3169-0.6831 0.4452-1.0566-0.019-0.3833 0.2921-0.6135 0.4685-0.9188 0.1028-0.3012 0.131-0.6137 0.4042-0.8313 0.3372-0.5524 0.7247-1.0666 1.1725-1.5419 0.9619-1.0575 1.9961-2.0987 3.2219-2.8309 0.2288-0.3854 0.6976-0.2364 0.994-0.5131 0.232-0.3308 0.6624-0.2281 0.95-0.4815 0.2456-0.305 0.6288-0.2607 0.94-0.4377 0.4766-0.544 1.2308-0.2483 1.831-0.4683 0.9026-0.6197 2.0496-0.2615 3.0574-0.5098 0.4429-0.5352 1.2088-0.2663 1.7922-0.486 0.6112-0.086 0.7272-0.7464 0.8646-1.2315 0.5057-0.2405 0.2977-0.9162 0.4735-1.3574 0.3112-0.2299 0.387-0.6214 0.4684-0.9769 0.3623-0.2138 0.3903-0.6618 0.507-1.0206 0.3624-0.1964 0.3764-0.6317 0.4822-0.9794 0.3737-0.1836 0.3774-0.6298 0.4875-0.9737 0.3694-0.1824 0.3801-0.6289 0.4859-0.9727 0.3052-0.174 0.4086-0.5489 0.3937-0.8822-0.071-0.4233 0.2747-0.6711 0.4445-1.0097-0.016-0.4378 0.3307-0.7003 0.5418-1.0446-0.1407-0.4072 0.3754-0.6026 0.4501-0.9667-0.032-0.4178 0.3645-0.6255 0.5028-0.9794 0-0.4047 0.3276-0.6601 0.4903-1.0072 0.082-0.4727 0.4947-0.804 0.5722-1.2967 0.2875-0.2801 0.4049-0.6869 0.5057-1.0734 0.3413-0.227 0.3935-0.6546 0.4959-1.0182 0.4669-0.291 0.3295-0.9172 0.467-1.3714 0.3192-0.2214 0.3893-0.619 0.472-0.9734 0.3608-0.2143 0.3886-0.6621 0.5072-1.0211 0.3601-0.1965 0.3776-0.6303 0.482-0.9779 0.3383-0.175 0.394-0.5754 0.4599-0.9115 0.1933-0.1984 0.4256-0.4183 0.4376-0.733-0.025-0.3791 0.4596-0.4701 0.4596-0.8572-0.029-0.391 0.3627-0.5437 0.4589-0.8895 0.03-0.3794 0.2766-0.6332 0.4805-0.9306 0.061-0.5224 0.5113-0.8683 0.6124-1.3828 0.1844-0.292 0.4227-0.614 0.4156-0.9987-0.097-0.4618 0.306-0.7256 0.4656-1.101 0.011-0.4038 0.33-0.6613 0.4913-1.0086 0.038-0.4489 0.4472-0.718 0.5396-1.1541 0.1334-0.3759 0.4566-0.6929 0.5226-1.1164 0.267-0.2717 0.4056-0.6443 0.4827-1.0221 0.3494-0.2259 0.3887-0.6618 0.5039-1.0237 0.3526-0.2186 0.3955-0.6557 0.5014-1.0193 0.3518-0.2026 0.3763-0.6377 0.4933-0.9862 0.467-0.2772 0.315-0.9124 0.46-1.3605 0.3463-0.226 0.3769-0.6612 0.4915-1.0196 0.3279-0.1812 0.3941-0.573 0.453-0.91 0.282-0.2202 0.4533-0.5642 0.4739-0.9349 0.221-0.2371 0.4377-0.5149 0.4738-0.8603 0.1732-0.3335 0.4724-0.6541 0.4597-1.0779-0.098-0.4599 0.2988-0.7252 0.4628-1.0969 0.011-0.4069 0.3315-0.6653 0.4944-1.0152 0.04-0.4711 0.4904-0.7542 0.5557-1.2248 0.1956-0.3469 0.4456-0.7061 0.5277-1.1205 0.4477-0.3371 0.3441-0.9444 0.4666-1.4213 0.328-0.2493 0.3931-0.6715 0.5002-1.0459 0.3581-0.2038 0.3901-0.6451 0.493-0.9998 0.4696-0.2946 0.3371-0.9203 0.4694-1.3799 0.35-0.2276 0.378-0.6673 0.4989-1.0278 0.3648-0.1884 0.3688-0.6292 0.4779-0.9712 0.4652-0.3113 0.3638-0.9174 0.4725-1.3894 0.3391-0.2383 0.4021-0.6675 0.5054-1.0416 0.3655-0.189 0.3764-0.63 0.4823-0.9749 0.4609-0.3109 0.3693-0.9131 0.471-1.3839 0.3301-0.2491 0.4022-0.6719 0.5097-1.0486 0.4572-0.3034 0.3621-0.8985 0.4571-1.363 0.5856-0.5191 0.3008-1.3605 0.5416-2.0102 0.6292-0.6135 0.092-1.6362 0.7023-2.2368 0.1769-1.7344 0.1734-3.483 0.061-5.2216 0.1144-0.5949-0.4989-1.0221-0.3873-1.6031 0.073-0.4523-0.4503-0.6795-0.4992-1.0694-0.5751-1.0663-1.5435-1.9038-2.4318-2.7287-0.3483-0.4198-0.8213-0.6661-1.3256-0.847-0.2019-0.3676-0.6386-0.3666-0.9947-0.4999-0.2775-0.4407-0.8615-0.3374-1.3007-0.4324-0.538-0.5565-1.3582-0.3403-2.0239-0.5399-0.7571-0.6512-1.8755-0.1071-2.6677-0.6443-1.2217-0.3625-2.5415-0.1-3.7959-0.2957-0.5166-0.1442-1.0196-0.4102-1.5815-0.3783-0.8937-0.093-1.8345 0.097-2.6931-0.2141-0.7584-0.5978-1.9001 0.03-2.6332-0.6205-0.6194-0.3558-1.6301 0.1222-2.0499-0.6358-0.376 0.076-0.7117-0.1226-0.9757-0.3695-0.2215-0.2297-0.6118-0.043-0.8092-0.372-1.4754-0.9483-2.716-2.2012-3.9043-3.4806-0.6384 0.3908-1.1966 0.8946-1.7113 1.4348-0.5825 0.3997-0.6886 1.1516-1.1409 1.6489-0.4821 0.2265-0.5633 0.7814-0.7231 1.2285-0.3498 0.2091-0.3923 0.6405-0.486 0.9988-0.489 0.2905-0.3163 0.9516-0.4889 1.4114-0.3349 0.228-0.3855 0.6512-0.4864 1.0126-0.4739 0.2855-0.3211 0.9182-0.4669 1.3755-0.4484 0.3458-0.3756 0.9569-0.4666 1.4089-0.4495 0.3699-0.3782 0.9902-0.5072 1.5-0.4312 0.3394-0.3644 0.9302-0.4695 1.4104-0.2439 0.2722-0.4125 0.6244-0.4196 1.0026 0.1 0.4684-0.3556 0.703-0.4738 1.1029 0.094 0.4424-0.4191 0.5867-0.4906 0.9834 0.075 0.4122-0.3841 0.5725-0.4679 0.9393 0.057 0.4104-0.3677 0.6045-0.4904 0.9543-0.026 0.5273-0.538 0.7691-0.8133 1.1593-0.3106 0.7007-0.7213 1.4148-1.4363 1.776-0.5353 0.1243-0.8828 0.5488-1.2838 0.8933-0.2165 0.2919-0.6727 0.1683-0.8793 0.3485 0.021 0.3467-0.6414 0.5118-0.5604 0.078 0.2276-0.767 1.1496-1.0951 1.3437-1.8952 0.1671-0.5941 0.8734-0.7979 0.9837-1.4183 0.1977-0.4363-0.1851-0.9179-0.6569-0.777-0.2019 0.5496-0.8645 0.4578-1.3311 0.5039-0.3547 0.4261-0.9631 0.5373-1.4836 0.4194-0.3206 0.034-0.5926-0.3582-0.2891-0.5813 0.5746-0.011 1.0141-0.4127 1.3747-0.8243 0.5191-0.2659 1.075-0.519 1.4745-0.9731 0.4739-0.3928 0.8044-0.9037 1.0229-1.4755 0.3443-0.408 0.8252-0.7659 0.9052-1.344 0.2173-0.3331 0.4505-0.6991 0.5373-1.1108 0.44-0.3389 0.3484-0.9361 0.4599-1.4129 0.3173-0.2635 0.4123-0.6761 0.5098-1.0625 0.5544-0.4386 0.2769-1.2497 0.485-1.8509 0.3796-0.3441 0.3692-0.8835 0.4387-1.3524 0.1864-0.3326 0.4601-0.6612 0.4423-1.0827-0.1006-0.4676 0.3498-0.7041 0.4709-1.1027-0.1-0.4386 0.426-0.5926 0.4905-0.9863-0.094-0.4324 0.4243-0.5844 0.4889-0.9748-0.066-0.41 0.3114-0.5229 0.4544-0.8647 0.016-0.5545 0.5577-0.8174 0.8368-1.2322 0.4389-1.008 1.2566-1.784 2.1062-2.4592 0.1615-0.2314 1.0584-0.667 0.666-0.7444-0.8755-0.2223-1.7656-0.091-2.6271-0.3167-0.7107-0.5652-1.6794-0.1971-2.4684-0.5016-0.3706-0.4363-1.0152-0.2483-1.4642-0.4724-0.2297-0.3879-0.7769-0.2639-1.0516-0.5414-0.2259-0.3637-0.7598-0.2213-1.0132-0.4982-0.2147-0.3773-0.8333-0.1904-1.0193-0.5563-0.1049-0.3849-0.7052-0.092-0.9192-0.475-0.5439-0.6542-1.3917-0.9004-1.9644-1.5217-1.4405-1.4244-2.9814-2.7757-4.1991-4.4045-0.1982-0.4543-0.7792-0.762-0.703-1.3059-0.3126-0.3143-0.5893-0.7106-0.4984-1.1787-0.5197-0.056-0.3857-0.6558-0.6319-0.9738-0.4714-0.3692-0.1817-1.0513-0.5111-1.5071-0.404-0.2886-0.2087-0.8119-0.3656-1.2175-0.6228-0.8172-0.331-1.9007-0.4968-2.8485-0.3192-0.4925-0.5586-1.1226-0.342-1.7178 0.4622-0.561 0.4141-1.3218 0.4339-2.0066-0.044-0.4417 0.3182-0.7052 0.4563-1.0835-0.039-0.339 0.2109-0.5478 0.4142-0.7812 0.3709-0.8646 1.0329-1.629 1.8537-2.1075 0.483-0.1128 0.7512-0.6908 1.2721-0.6553 0.3647-0.1951 0.7118-0.6155 1.2015-0.498 0.4074-0.7189 1.3523-0.3313 1.9863-0.5828 0.6833-0.7167 1.8352-0.074 2.5751-0.6318 0.9605-0.42 2.0539-0.086 3.0472-0.3438 1.2287-0.6067 2.6368-0.2412 3.9425-0.4735 0.913-0.6004 2.0584-0.2627 3.0698-0.5028 0.4738-0.568 1.2998-0.2247 1.9062-0.5058 0.5464-0.5348 1.3939-0.1789 2.0249-0.5348 0.3505-0.4224 0.9805-0.1631 1.4129-0.4515 0.2542-0.2951 0.6477-0.3159 0.9837-0.471 0.2742-0.2659 0.6331-0.3493 0.9737-0.5123 0.3799-0.3387 0.9486-0.3192 1.2854-0.7342 0.77-0.1334 1.2516-0.8075 1.8175-1.2754 0.795-0.402 1.5027-0.9634 2.0831-1.6445 0.314-0.4545 1.0485-0.7574 0.8841-1.4201-0.1598-0.3053-0.023-0.751-0.3673-0.9237-0.4222-0.5426-0.1205-1.3151-0.4057-1.9241-0.2812-0.032-0.4619-0.4605-0.1608-0.5876 0.978 0.3473 1.4811 1.3669 2.3605 1.8784 2.1276-1.7969 3.9488-3.9233 6.0862-5.7087 0.7706-0.3166 1.2263-1.0728 1.9242-1.4956 0.6003-0.1277 0.9474-0.6557 1.4187-0.9961 0.4101-0.072 0.7151-0.3508 1.057-0.5678 0.4159 0.08 0.6174-0.3625 0.9778-0.4834 0.4145 0.069 0.6177-0.3653 0.9764-0.4889 0.3972 0.072 0.5884-0.3361 0.9283-0.4615 0.4316 0.023 0.6059-0.1948 0.9061-0.4405 0.3723-0.1721 0.9185 0.039 1.1896-0.2756 0.3643-0.5082 1.0576-0.078 1.4393-0.5182 0.6405-0.467 1.5115-0.055 2.14-0.559 0.8923-0.3546 1.9037-0.063 2.8331-0.2844 1.0247-0.4277 2.1477-0.3145 3.2314-0.3812v4e-4c0.6782 0 1.3561-0.011 2.0342-0.011zm-0.3651 4.1077c-1.8111 0.022-3.6259 0-5.4326 0.1396-0.5687 0.313-1.2361 0.3677-1.881 0.3911-0.368 0.1404-0.7154 0.4688-1.1611 0.4376-0.5129-0.1094-1.0209 0.1188-1.4043 0.4101-0.3818 0.048-0.7049 0.2676-1.0058 0.5002-0.4697 0.032-0.99 0.07-1.3546 0.4252-0.3815 0.088-0.7344 0.3009-1.0474 0.5487-0.6506 0.019-1.0059 0.6227-1.4862 0.9598-0.6464 0.031-0.9748 0.6558-1.4627 0.9739-0.5651 0.038-0.9234 0.5129-1.2967 0.8781-0.6297 0.3131-1.191 0.7634-1.6937 1.2603-1.4303 1.4387-3.0267 2.7499-4.1791 4.4355-1.54 1.8002-3.2524 3.5009-5.0867 5.0274-0.5498 0.2023-0.8977 0.7047-1.3634 1.0346-0.4028 0.08-0.7177 0.3247-1.0292 0.5776-0.7896-0.057-1.0894 1.0485-1.8893 0.9848-0.279 0.4504-0.8458 0.503-1.3253 0.4944-0.3556 0.2026-0.7067 0.5953-1.189 0.4809-0.2408 0.5859-0.9672 0.4336-1.4682 0.5288-0.2692 0.5318-0.8905 0.3739-1.3418 0.486-0.6592 0.6682-1.6355 0.2813-2.4288 0.5325-0.6673 0.465-1.5082 0.3627-2.277 0.4024-0.6302-0.049-1.1141 0.4448-1.7457 0.4277-0.8972 0.1125-1.8186-0.041-2.7033 0.1543-1.2802 0.6201-2.7412 0.2238-4.0939 0.4963-0.4454 0.4841-1.1574 0.3015-1.7375 0.4179-0.3586 0.073-0.5894 0.5017-1.0296 0.4298-0.5551-0.1195-0.8451 0.5126-1.3523 0.5197-0.9134 0.5077-1.815 1.4129-1.8717 2.5318-0.11 0.3076-0.5808 0.5763-0.3585 0.9738 0.6214 0.6625 0.2629 1.6379 0.4875 2.4421 0.3709 0.228 0.4276 0.6758 0.414 1.0723 3.5385 0.056 7.0772 0.018 10.616 0.029 0.6567-0.2962 1.0329-1.044 1.6951-1.3659 0.3831-0.036 0.5618-0.3336 0.8848-0.4889 0.6541-0.083 1.5593-0.2875 1.9875 0.3727 0.7233 0 1.3548 0.6301 1.3619 1.3535 0.2835 0.1368 0.3945 0.4414 0.4172 0.7363 0 0.7104 0.2443 1.6321-0.3798 2.1573-0.063 0.704-0.6457 1.3759-1.3853 1.3674-0.1375 0.2877-0.4448 0.3995-0.7434 0.4208-0.7079 0-1.6326 0.2472-2.1545-0.3795-0.7723-0.065-1.417-0.7317-1.395-1.5179h-8.8046c-0.4663-0.09-0.7561 0.032-0.6728 0.5427-0.051 0.7417 0.7904 1.0418 0.9833 1.6666 0.504 0.8779 1.2634 1.6025 2.0136 2.2807 0.5025 0.562 1.2744 0.7396 1.7686 1.315 0.3411 0.4849 0.8832 0.7144 1.4222 0.906 0.1991 0.3127 0.5692 0.3954 0.9155 0.4365 0.2334 0.3479 0.6659 0.4472 1.0569 0.5332 0.201 0.3575 0.6396 0.3736 0.9879 0.4945 0.2627 0.4513 0.8682 0.3227 1.3032 0.4379 0.366 0.43 0.9669 0.3931 1.4712 0.4959 0.525 0.5436 1.3303 0.3194 1.9794 0.5179 0.6675 0.5405 1.5713 0.2784 2.3402 0.4709 0.6968 0.4482 1.5487 0.3909 2.3416 0.3838 0.6333-0.04 1.2108 0.2143 1.8134 0.3577 3.7135 0.17 7.4417 0.1859 11.157-0.011 0.9458-0.4526 2.0312-0.2925 3.046-0.4365 0.5652-0.5476 1.4442-0.2982 2.1056-0.5285 0.5288-0.6576 1.5551-0.065 2.1055-0.671 0.4058-0.2974 0.9837-0.026 1.333-0.3804 0.3591-0.4006 0.9233-0.1383 1.3362-0.4076 0.2909-0.2961 0.7028-0.3088 1.0432-0.5183 0.2625-0.2898 0.6645-0.2831 0.9807-0.4958 0.3395-0.3186 0.85-0.2939 1.1817-0.6439 0.3817-0.1773 0.8372-0.2998 1.1383-0.6437 0.2142-0.1755 0.5811-0.6877 0.8356-0.2998-0.1922 0.5984-0.7226 1.0877-1.2779 1.3763-0.6571 0.133-0.9586 0.8269-1.5537 1.0628-0.3859-0.068-0.4946 0.3591-0.8195 0.4673-0.383-0.013-0.6342 0.2478-0.9217 0.4691-0.4239 0.028-0.7434 0.3106-1.0845 0.5362-0.3936-0.088-0.6034 0.3109-0.9255 0.4681-0.5337-0.073-0.7997 0.6356-1.3256 0.5001-0.3124 0.2986-0.6939 0.6024-1.1577 0.5085-0.2356 0.6173-0.9876 0.3998-1.4892 0.5776-0.2748 0.5396-0.9816 0.2379-1.4176 0.5288-0.5639 0.5547-1.451 0.1289-2.0747 0.5655-1.1236 0.4691-2.3888 0.1401-3.5654 0.3559-0.6734 0.3585-1.4619 0.3897-2.2141 0.3819-0.851 0.066-1.7132-0.031-2.5567 0.1081-1.2003 0.4669-2.5253 0.3789-3.7937 0.3859-0.7531 0.061-1.5168-0.1329-2.2584 0.023-0.5015 0.1106-0.5411 0.7379-0.2078 1.054 1.5416 0.334 3.2149 0 4.6919 0.3574 0.4301 0.4391 1.1516 0.16 1.5914 0.5362 0.6185 0.4676 1.4646 0.029 2.0312 0.5564 0.9522 0.374 2.1045-0.05 3.0138 0.5101 1.2366 0.3071 2.5406 0.034 3.7874 0.2686 1.2687 0.6041 2.7119 0.2187 4.044 0.5106 0.5792 0.4317 1.338 0.2894 1.9997 0.4607 0.5285 0.5182 1.3092 0.301 1.9516 0.485 0.2582 0.3171 0.7009 0.3374 1.0346 0.5068 0.226 0.4001 0.785 0.2724 1.0625 0.5567 0.2444 0.4056 0.8979 0.1753 1.0749 0.6095 0.5935 0.2703 1.0997 0.6893 1.5746 1.1291 0.9732 0.9859 2.1019 1.8758 2.7759 3.1091 0.2743 0.3285 0.6107 0.6832 0.5145 1.163 0.5454 0.2124 0.4518 0.8763 0.5043 1.3461 0.6498 0.6241 0.3575 1.5953 0.525 2.3881 0.1848 0.3574 0.3872 0.7452 0.3738 1.1744 0 1.1234 0.1396 2.2723-0.1049 3.3776-0.4986 0.9123-0.2394 1.978-0.4575 2.9518-0.4746 0.5589-0.298 1.3309-0.4749 1.988-0.4268 0.3755-0.3406 0.9819-0.4765 1.4792-0.4596 0.3651-0.338 1.0037-0.5028 1.5-0.4636 0.3464-0.3264 0.9775-0.4822 1.4572-0.3507 0.2103-0.3632 0.6524-0.4806 0.9992-0.4431 0.3-0.3802 0.8809-0.4504 1.3436-0.281 0.2636-0.4123 0.6407-0.504 1.0097-0.3214 0.2501-0.3938 0.6729-0.5083 1.0416-0.4312 0.3118-0.3818 0.877-0.445 1.3451-0.2802 0.2672-0.4135 0.6452-0.5053 1.0167-0.3242 0.2508-0.3911 0.6733-0.5084 1.043-0.343 0.2259-0.3981 0.6491-0.4918 1.0156-0.4707 0.2909-0.3364 0.9195-0.471 1.3766-0.3461 0.2299-0.3807 0.6677-0.4973 1.0295-0.3657 0.1884-0.3721 0.6267-0.478 0.9694-0.3723 0.1829-0.3815 0.6314-0.4889 0.9767-0.6435 0.3485-0.1521 1.1916-0.6689 1.6108-0.3045 0.2237-0.089 0.6539-0.3712 0.8661-0.2728 0.1948-0.3331 0.5455-0.3757 0.8477-0.3366 0.2732-0.4664 0.6685-0.5472 1.0705-0.083 0.567 0.6287 0.6038 1.0141 0.4431 0.8255-0.024 1.6805-0.088 2.5036 0.06 1.1266 0.4763 2.3843 0.3915 3.5851 0.3844 0.5589-0.083 1.2343 0.2076 1.6629-0.269 0.4863-0.4732 0.9229-1.0474 1.6097-1.223 0.4924-0.5117 1.4182-0.6592 1.9546-0.1235 0.8583 0.3697 1.7763 0.9923 1.938 1.9934 0.4805 0.2598 0.4706 0.8734 0.4267 1.345-0.2123 1.2741-1.4444 1.9731-2.2302 2.884-0.7227-0.011-1.4453-0.015-2.1679-0.022-0.4319-0.4822-0.8638-0.9644-1.2955-1.4466-0.4068-0.653-1.2721-0.4314-1.9221-0.4548-0.9491-0.1027-1.9861 0.1422-2.8561-0.3416-1.7845-0.2915-3.6252-0.1143-5.433-0.1682-0.296 0.2297-0.5568 0.6613-0.6723 1.054-0.1383 0.371-0.4544 0.6881-0.5218 1.1081-0.2889 0.2813-0.4 0.6872-0.5059 1.0734-0.3398 0.2223-0.3961 0.6413-0.4877 1.0042-0.353 0.2144-0.3875 0.6453-0.5043 1.0043-0.4734 0.2668-0.3045 0.9099-0.4571 1.3549-0.3452 0.2307-0.38 0.6675-0.4973 1.0292-0.3618 0.1902-0.3708 0.6278-0.4776 0.9708-0.3693 0.1805-0.3816 0.629-0.4863 0.9724-0.3698 0.1824-0.3817 0.6304-0.4878 0.9752-0.3693 0.1829-0.3812 0.6275-0.486 0.9712-0.3678 0.1823-0.3817 0.6296-0.4878 0.9739-0.3672 0.1838-0.3806 0.6275-0.4846 0.9708-0.3672 0.1854-0.3815 0.6299-0.4877 0.9738-0.3824 0.2191-0.3856 0.6913-0.5249 1.0431-0.4379 0.1679-0.2893 0.7559-0.3991 1.1358 0.061 0.4161-0.596 0.4031-0.4292 0.7884-0.167 0.3616-0.3876 0.8745 0.048 1.158 0.8552 0.2316 1.8048 0.1498 2.699 0.188 1.0509 0.1 2.1826-0.1517 3.164 0.3285 1.4282 0.2179 2.8994 0.1824 4.3446 0.1059 0.4552 0.1038 0.7335-0.2864 0.8831-0.6601 0.3798-0.8251 1.2869-1.2688 2.1745-1.2383 0.6208 0.068 1.4813-0.1441 1.8772 0.4752 0.9309-0.042 1.467 0.9661 1.3587 1.7912 0.4061 0.2074 0.5979 0.7333 0.3951 1.1456-0.2955 0.2351-0.4389 0.5921-0.4779 0.9679-0.1961 0.1985-0.4184 0.4225-0.434 0.7339 0.015 0.4047-0.3855 0.4272-0.6743 0.502-0.8942 0.681-2.0903 0.3753-3.1319 0.4285-0.4548-0.2067-0.6923-0.7568-1.0459-1.1127-0.209-0.4218-0.6573-0.3031-1.046-0.3145-1.3345-0.047-2.6827 0.062-4.0074-0.1246-0.9888-0.3852-2.0603-0.3796-3.106-0.3669-1.0373-0.093-2.1182 0.1007-3.1212-0.2342-0.3629-0.2821-0.8799-0.2818-1.2274-0.5431-0.5047 0.1432-0.6407 0.6536-0.725 1.1024-0.3673 0.1995-0.3946 0.6513-0.5043 1.0072-0.351 0.2032-0.3788 0.6388-0.4959 0.9888-0.3529 0.1915-0.367 0.6339-0.486 0.9738-0.3552 0.1872-0.3654 0.6319-0.4862 0.9698-0.4779 0.2934-0.2979 0.9506-0.4781 1.4033-0.3368 0.2302-0.3876 0.6568-0.4889 1.0207-0.5205 0.2234-0.2218 1.0939-0.8492 1.1791 0.1162 0.4836-0.2158 0.8651-0.5083 1.201 0.1526 0.4442-0.4129 0.6577-0.4625 1.0651 0.052 0.3803-0.387 0.5493-0.478 0.8906 0.022 0.5042-0.5362 0.7775-0.5362 1.2827 0.1123 0.4427-0.2004 0.8022-0.4544 1.1289 0.086 0.4086-0.2886 0.6751-0.4929 0.9737 0.1 0.4138-0.2978 0.6772-0.4945 0.9852 0.1511 0.4475-0.4332 0.6632-0.4558 1.0874 0.059 0.4118-0.2679 0.7562-0.2119 1.1689 0.124 0.6709 0.9378 0.5458 1.4517 0.5932 1.0495 0.1219 2.1794-0.158 3.1611 0.3227 2.5623 0.3046 5.169 0.1405 7.7501 0.1817 0.6538 0.1372 1.0702-0.4846 1.4734-0.8954 0.3961-0.3519 0.6676-0.8963 1.1833-1.0749 0.6897 0.1176 1.4615-0.1282 2.0972 0.2316 0.223 0.3936 0.7397 0.2384 1.0501 0.5413 0.3703 0.2151 0.4278 0.6177 0.554 0.9808 0.6826 0.6797 0.3902 1.722 0.4476 2.5849-0.5997 0.5655-1.1548 1.2156-1.7717 1.7398-0.7678 7e-4 -1.5469 0.028-2.3137-0.057-0.4012 0.039-0.523-0.5174-0.9012-0.4068-0.5096-0.011-0.6691-0.5437-0.5776-0.9643-1.6414-0.025-3.2833-0.025-4.9247-0.025-1.3008-0.027-2.6092 0-3.9019-0.1418-0.7884-0.373-1.6833-0.3167-2.5395-0.3422-0.8589-0.081-1.8884 0.1473-2.568-0.5165-0.2745 0.1354-0.4678-0.194-0.7397-0.1869-0.6972 0.015-0.6821 0.8488-0.7395 1.3546-0.2203 0.2925-0.4594 0.6071-0.4842 1.0061-0.2547 0.2868-0.4449 0.6441-0.5175 1.0371-0.4522 0.344-0.3776 0.9565-0.486 1.4503-0.3167 0.2599-0.4126 0.6708-0.5058 1.0555-0.4705 0.3243-0.3355 0.9594-0.4918 1.4379-0.3342 0.2331-0.39 0.6561-0.4916 1.021-0.4725 0.2816-0.3231 0.9169-0.4654 1.3714-0.3207 0.2195-0.3869 0.6185-0.4709 0.9709-0.4723 0.3467-0.3779 0.9762-0.5043 1.4767-0.3295 0.2462-0.4126 0.6599-0.4988 1.0416-0.4752 0.3024-0.3333 0.9429-0.475 1.381-0.4544 0.392-0.3368 1.0367-0.5293 1.5473-0.348 0.1838-0.3061 0.5643-0.3551 0.9144 0.012 0.7221-0.7241 1.0049-1.1809 1.417 1.0853 0.042 2.1872-0.09 3.2601 0.1129 0.6309 0.3345 1.3586 0.3871 2.0652 0.3566 1.0621 0.1264 2.2034-0.1528 3.2008 0.3199 2.7225 0.3229 5.4885 0.1264 8.2293 0.1873 0.7766-0.5148 1.3123-1.3164 1.9835-1.9311 0.5678-0.011 1.1543-0.068 1.7164 0.039 1.0416 0.3395 1.8022 1.2628 2.2342 2.2346 0.4088 0.3966 0.5228 1.0632 0.2899 1.5866-0.2602 0.2622-0.4259 0.5238-0.5113 0.8943-0.3502 0.6445-0.9515 1.1303-1.643 1.3546-0.4849 0.532-1.539 0.6428-1.9685-0.026-0.5609-0.071-1.0075-0.4706-1.363-0.8785-0.437-0.7465-1.3882-0.6511-2.1257-0.6234-1.9871-0.023-4.0754 0.068-5.9806-0.083-0.7751 0.019-1.459-0.4063-2.2376-0.37-1.1222-0.093-2.2655 0.054-3.3733-0.1698-0.9613-0.4655-2.0412-0.3218-3.0716-0.3452-0.5113-0.2119-1.0446 0.1906-1.1028 0.7143-0.356 0.3943-0.3502 0.9513-0.4387 1.4506-0.4174 0.3723-0.3945 0.9676-0.4919 1.4752-0.5468 0.5101-0.3209 1.3059-0.5043 1.9476-0.5127 0.5492-0.3105 1.3342-0.5035 1.9864-0.5074 0.5299-0.2724 1.3183-0.4937 1.9586-0.5005 0.5269-0.2666 1.3028-0.482 1.9366-0.5586 0.653-0.2413 1.5858-0.4739 2.3562-0.5259 0.6721-0.3017 1.5637-0.457 2.3398-0.5782 0.8932-0.3282 1.9958-0.442 2.9946 0.6879 0.1207 1.3947 0.016 2.0785 0.1548 0.6495 0.3753 1.4221 0.4001 2.1558 0.3851 1.0459 0.1187 2.1711-0.1517 3.1504 0.3218 1.8125 0.2228 3.6629 0.1951 5.4924 0.1631 0.7748-0.081 1.5806 0.067 2.3324-0.1513 1.1382-0.6033 2.5062-0.011 3.6434-0.6033 0.4453-0.1016 0.3311-0.5231 0.4805-0.8492 0.1582-0.4309 0.6738-0.1963 0.8999-0.538 0.23-0.2774 0.6285-0.2462 0.9019-0.324 0.2367-0.6214 1.1713-0.5563 1.4121 0.03 0.8163-0.086 1.8587 0.3913 1.834 1.3312 0.469 0.3118 0.4547 0.9212 0.4618 1.4205 0.079 0.8072-0.028 1.699-0.6656 2.2723-0.4251 0.4699-1.0848 0.5452-1.5473 0.9643-0.6384 0.084-1.5162 0.2955-1.9682-0.31-0.2753-0.1162-0.6637-0.1124-0.895-0.3768-0.2485-0.3762-0.622-0.7205-1.116-0.6851-1.0355 0.1017-2.1387-0.1739-3.1182 0.2668-1.8455 0.3551-3.7541 0.1867-5.6272 0.2101-0.9265-0.1-1.9205 0.1113-2.7943-0.2801-1.2511-0.31-2.5782-0.1116-3.8586-0.2433-0.6585 0.056-1.1786-0.4394-1.8245-0.4394-0.5928 0.1421-1.4456-0.3136-1.8229 0.3493-0.2104 1.016 0.1289 2.1523-0.3603 3.1237-0.2201 1.5194-0.161 3.0751-0.1681 4.6113 0.039 0.9895-0.031 1.9914 0.1146 2.9723 0.5826 1.5984 0.2266 3.3231 0.4596 4.9746 0.4471 0.7491 0.3751 1.6555 0.4043 2.4988 0.4452-0.1664 1.0674-0.4655 1.4366 0.011 0.4569 0.2788 1.0772 0.1982 1.6089 0.2379 0.7173-0.082 1.3351 0.339 2.0379 0.3602 4.3603 0.1484 8.7288 0.1716 13.09 0.017 0.5143 0.09 0.9827-0.1257 1.4206-0.3686 0.5827 0.016 0.9894-0.4885 1.1039-1.0182 0.016-0.4174 0.3811-0.4016 0.6733-0.4948 0.8996-0.6874 2.0934-0.3849 3.1416-0.4431 0.5823 0.5822 1.1646 1.1645 1.7468 1.7468v2.5556c-0.585 0.5855-1.1702 1.1712-1.7553 1.7567-0.8874-0.011-1.7748-0.011-2.6622-0.018-0.3926-0.4562-0.7563-0.9725-1.3047-1.255-0.4307-0.2923-0.9444-0.1594-1.3426 0.1233-2.5481 0.1709-5.1261 0.1778-7.6874 0.1707-2.3034-0.04-4.6142 0.011-6.9111-0.1583-0.691-0.2566-1.4211-0.363-2.1595-0.3559-0.6532 0.043-1.1979-0.3161-1.783-0.5284-0.6598-0.3647-0.4847-0.022-0.1789 0.4316 0.5181 0.6216 0.4849 1.4555 0.5517 2.2175 0.51 0.3056 0.3791 0.9736 0.4709 1.471 0.538 0.2739 0.3924 0.9632 0.4864 1.4562 0.5357 0.283 0.3913 0.9677 0.4859 1.4652 0.4668 0.2284 0.42 0.8082 0.4534 1.2453 0.217 0.3445 0.5393 0.7273 0.4691 1.1912-0.062 0.5024 0.5997 0.7651 0.4654 1.258 0.2982 0.3155 0.6033 0.6971 0.5128 1.1635 0.3441 0.1295 0.4728 0.49 0.4724 0.8316-0.1105 0.4754 0.3051 0.7335 0.4751 1.119-0.064 0.3999 0.3358 0.6075 0.4874 0.9335-0.03 0.8096 1.0835 1.1125 0.9987 1.935 0.3711 0.1491 0.4608 0.5467 0.5476 0.8933 0.2354 0.5168 0.8642 0.8127 1.0192 1.4047 1.5975 1.917 3.3984 3.6772 5.2424 5.3624 0.4376 0.5289 1.099 0.741 1.5951 1.1941 0.2861 0.5345 0.9505 0.5109 1.3699 0.8752 0.2303 0.4903 0.7719 0.6193 1.244 0.7538 0.265 0.3991 0.8143 0.3869 1.1603 0.6883 0.33 0.6471 1.1077 0.6291 1.6958 0.7701 0.2532 0.314 0.6629 0.3955 1.039 0.4879 0.1696 0.3389 0.5757 0.3873 0.9071 0.4554 0.3171 0.4655 0.9289 0.393 1.4132 0.4919 0.3681 0.4126 0.9511 0.3998 1.4558 0.489 0.3834 0.4186 0.9807 0.3953 1.4962 0.4987 0.5052 0.5454 1.3029 0.316 1.9391 0.5014 0.5368 0.4968 1.3063 0.3247 1.9546 0.4889 0.6584 0.5745 1.6054 0.2568 2.3852 0.4919 0.7681 0.4541 1.7075 0.3524 2.5695 0.3808 0.7435-0.057 1.4355 0.1979 2.1459 0.3559 4.3169 0.1575 8.6464 0.1855 12.964-0.014 1.277-0.519 2.6866-0.2465 4.0223-0.4449 0.8591-0.5718 1.9365-0.2958 2.898-0.468 0.7449-0.5584 1.6979-0.3374 2.5556-0.4945 0.507-0.5597 1.3326-0.323 1.992-0.4822 0.432-0.5758 1.2263-0.3185 1.8355-0.4696 0.5568-0.5553 1.3499-0.3699 2.0541-0.4984 0.3016-0.5066 0.9684-0.3735 1.4603-0.4669 0.282-0.5338 0.9673-0.393 1.4641-0.4864 0.2244-0.4624 0.7966-0.422 1.2301-0.4489 0.3644-0.1953 0.7072-0.6007 1.1925-0.4776 0.196-0.5116 0.8023-0.4691 1.252-0.4988 0.3536-0.2053 0.704-0.5945 1.1831-0.4724 0.1264-0.3494 0.4868-0.4728 0.8286-0.4728 0.3368-0.046 0.7497 0.039 0.8448-0.3666 0.4441-0.161 1.0346-0.2546 1.2674-0.6842-0.1817-0.5107-0.6993-0.6674-1.1772-0.755-0.1847-0.3855-0.6412-0.4034-0.9962-0.5139-0.1878-0.3635-0.6319-0.3799-0.9764-0.4877-0.2078-0.3664-0.6599-0.3913-1.0181-0.5069-0.2133-0.4305-0.8308-0.3514-1.1456-0.7037-0.245-0.5284-0.8553-0.5777-1.3188-0.7909-0.1665-0.5114-1.0288-0.1643-1.1303-0.7716-0.9304-0.095-1.3859-1.0258-2.1466-1.4468-0.527-0.037-0.804-0.5426-1.1955-0.8364-1.2569-0.6498-2.1809-1.7533-3.193-2.7139-0.7064-0.8006-1.8455-1.0793-2.4218-2.014-0.6958-1.4204-2.0864-2.3032-2.9782-3.5797-0.1575-0.5966-0.7143-0.9372-1.0457-1.4231-0.035-0.6449-0.6605-0.9724-0.9777-1.4627-0.031-0.6136-0.6023-0.9493-0.9296-1.4004-0.057-0.3908-0.3024-0.7019-0.5501-0.9987 0.011-0.407-0.2826-0.7093-0.5083-1.0141 0.058-0.5341-0.6336-0.8209-0.5069-1.3535-0.3024-0.304-0.6004-0.6805-0.5112-1.1399-0.5053-0.196-0.4704-0.7986-0.4959-1.2453-0.196-0.3641-0.5996-0.707-0.4765-1.1926-0.5943-0.2416-0.4403-0.9744-0.5318-1.4822-0.5905-0.2397-0.3014-0.981-0.5724-1.4352-0.5334-0.5276-0.1724-1.3384-0.5-1.9616-0.4672-0.4924-0.2155-1.2035-0.4272-1.7925-0.2628-0.4126-0.4202-0.8771-0.3791-1.3759 0.048-0.6237-0.1628-1.2058-0.3932-1.7698-0.2612-1.2395 0.1251-2.5709-0.4186-3.7559-0.2365-4.083-0.1852-8.1828-0.144-12.273 0.036-1.4113 0-2.8312 0.1378-4.235 0.5241-1.4477 0.1685-3.0173 0.4526-4.5047 0.6165-1.0558 0.1479-2.3416 0.5073-3.4532 0.5753-0.8888 0.1498-1.9888 0.4833-2.9364 0.6537-0.7584 0.014-1.9327 0.6536-2.7004 0.2866-0.6526 0.064-1.4386 0.2866-2.1235 0.5201-0.6981 0.2848-1.6069 0.4654-2.3992 0.4996-0.5553 0.3215-1.3369 0.4919-2.0015 0.5102-0.5357 0.3083-1.314 0.4903-1.9614 0.516-0.5242 0.3004-1.3047 0.4875-1.9422 0.5209-0.5264 0.2998-1.3089 0.4864-1.9501 0.5174-0.5262 0.2972-1.3082 0.4888-1.9476 0.418-0.3685 0.3536-0.9676 0.467-1.4601 0.5482-0.5043 0.3138-1.3017 0.5013-1.9381 0.4269-0.3739 0.3434-0.9801 0.4794-1.4753 0.4284-0.353 0.3592-0.9532 0.4751-1.4391 0.5439-0.5108 0.3199-1.3064 0.5043-1.9477 0.4261-0.3769 0.3464-0.9835 0.4779-1.4836 0.4521-0.352 0.3503-0.9725 0.4875-1.4627 0.4534-0.3498 0.3475-0.9709 0.4877-1.4587 0.4451-0.3533 0.3431-0.9694 0.4845-1.4558 0.4637-0.3659 0.3338-1.009 0.5073-1.5044 0.4432-0.3343 0.3466-0.9373 0.4431-1.3726 0.451-0.3695 0.3817-0.9942 0.5098-1.5059 0.4444-0.3532 0.3475-0.9664 0.4875-1.4528 0.4122-0.3432 0.3719-0.9196 0.4628-1.3979 0.2567-0.2846 0.4157-0.6546 0.5014-1.0346 0.4361-0.3417 0.3809-0.9332 0.475-1.4228 0.4416-0.3777 0.3786-0.995 0.5098-1.507 0.4229-0.3404 0.3603-0.9257 0.4655-1.4031 0.404-0.3712 0.3972-0.95 0.4849-1.4561 0.276-0.2742 0.4116-0.6518 0.4973-1.0306 0.4475-0.331 0.3767-0.9281 0.4724-1.4128 0.4443-0.3836 0.3895-1.0078 0.5153-1.5291 0.3184-0.2552 0.4163-0.6633 0.5-1.0489 0.4531-0.2731 0.3362-0.8731 0.446-1.3183 0.4479-0.3821 0.3838-1.0077 0.5138-1.5254 0.3157-0.2556 0.4145-0.659 0.4973-1.0431 0.4559-0.2762 0.341-0.8796 0.449-1.3282 0.414-0.3556 0.406-0.9332 0.482-1.4297 0.2618-0.278 0.4121-0.6473 0.4999-1.0221 0.417-0.3444 0.4014-0.9195 0.471-1.4104 0.2619-0.2783 0.4146-0.6468 0.5017-1.0221 0.4614-0.367 0.3714-1.0029 0.5124-1.51 0.4423-0.3374 0.3581-0.9423 0.4515-1.3825 0.2866-0.2593 0.4103-0.6372 0.4933-1.0082 0.4604-0.3454 0.3707-0.9661 0.497-1.4602 0.447-0.3666 0.3596-0.9922 0.4973-1.4931 0.3175-0.255 0.4123-0.6632 0.4989-1.0472 0.453-0.275 0.3427-0.8762 0.4459-1.323 0.446-0.3695 0.3834-0.9853 0.5056-1.4946 0.33-0.2461 0.3896-0.6671 0.4958-1.0391 0.4526-0.3188 0.3651-0.9128 0.4643-1.3864 0.4299-0.3377 0.4071-0.9129 0.471-1.4045 0.275-0.2727 0.4143-0.6475 0.5053-1.0211 0.4304-0.3495 0.3903-0.9387 0.4795-1.4351 0.4409-0.3774 0.3787-0.995 0.5098-1.5072 0.4242-0.3433 0.3591-0.9334 0.468-1.4129 0.4296-0.3777 0.3778-0.9869 0.5028-1.496 0.4511-0.3718 0.3409-1.0069 0.5044-1.5056 0.4445-0.3343 0.3482-0.938 0.4445-1.374 0.4209-0.3619 0.3984-0.95 0.4904-1.4532 0.4047-0.3734 0.3996-0.9506 0.4864-1.4572 0.4019-0.3755 0.4026-0.9501 0.4849-1.4587 0.4292-0.3852 0.3895-0.9937 0.5068-1.5125 0.4291-0.3528 0.38-0.9415 0.4694-1.4364 0.5558-0.507 0.3237-1.3102 0.5139-1.952 0.5225-0.5209 0.3031-1.2985 0.4823-1.9377 0.5117-0.5289 0.3114-1.3058 0.489-1.949 0.5143-0.5315 0.3057-1.3147 0.4918-1.9591 0.5065-0.5396 0.3077-1.3218 0.4944-1.9699 0.5124-0.5304 0.2754-1.3214 0.4973-1.9637 0.6143-0.7061 0.1534-1.7531 0.5609-2.546 0.5566-0.7478 0-1.8232 0.5969-2.5392 0.287-0.6939 0.065-1.5366 0.3384-2.258 0.6537-0.8943 0.011-2.133 0.6032-3.053 0.4526-0.9201-0.082-2.0921 0.516-2.9782 0.252-0.957 0.1326-1.9847 0.195-2.9714-0.032-0.6209 0.1757-1.1959 0.3394-1.784 0.174-3.2525 0.1813-6.5185-0.011-9.7714-0.5501-1.1167-0.2168-2.4027-0.4694-3.5877-0.528-0.5088-0.2771-1.306-0.4486-1.9487-0.5544-0.4055-0.3306-1.1642-0.4545-1.7471-0.1925-0.3552-0.5595-0.6961-0.4434-1.1604-0.6005-0.2527-0.4374-0.9993-0.5429-1.5155-0.4686-0.084-0.3313-0.6375-0.557-0.9363-0.3075-0.244-0.3306-0.6343-0.4834-0.9727-0.3555-0.3526-0.3763-0.8942-0.7103-1.2715-0.1017-0.3711-0.3021-0.7312-0.5531-1.0404-0.015-0.5995-0.5426-0.9684-0.9001-1.3825-0.2204-0.9946-1.2674-1.4692-1.6375-2.3742-1.4998-1.8162-3.2075-3.4689-4.9596-5.0471-0.4064-0.4934-1.0366-0.6597-1.4828-1.1016-0.2883-0.5164-0.9343-0.499-1.3494-0.8519-0.2313-0.4936-0.7734-0.6245-1.2495-0.7605-0.2307-0.3358-0.6471-0.4019-1.0182-0.5072-0.2045-0.351-0.6422-0.3682-0.9902-0.4929-0.1634-0.3288-0.5765-0.3673-0.8977-0.4531-0.2474-0.3184-0.6549-0.4235-1.0415-0.5152-0.2594-0.454-0.871-0.3232-1.3077-0.4406-0.3733-0.4474-0.993-0.3732-1.5016-0.5083-0.3428-0.4249-0.9333-0.3592-1.4128-0.4685-0.3848-0.4326-1.0034-0.3802-1.5196-0.5094-0.6475-0.5918-1.6142-0.2554-2.3881-0.5046-0.9528-0.6697-2.2149-0.09-3.2054-0.6371-1.8715-0.2835-3.796-0.1608-5.6903-0.2118zm-2.8118 9.5207v3e-4c0.8717-0.011 1.7539-0.028 2.612 0.1521 0.4142 0.1987 0.8671 0.3642 1.3455 0.3373 0.48-0.065 0.8466 0.2272 1.2281 0.4551 0.392 0.039 0.6616 0.3102 0.9959 0.4907 0.3827 0.059 0.6405 0.328 0.987 0.4864 0.4588 0.049 0.7253 0.4289 1.1244 0.6187 1.3502 0.9758 2.5472 2.1835 3.5764 3.4971 0.2358 0.3733 0.4788 0.743 0.7542 1.091-0.071 0.5313 0.6307 0.7954 0.4988 1.3189 0.2898 0.3113 0.5982 0.6844 0.5094 1.1426 0.7009 0.4053 0.3626 1.3218 0.5611 1.97 0.6477 0.4565 0.2183 1.37 0.5875 1.9726 0.4116 0.7371 1.3447 0.4813 2.0139 0.6702 0.538 0.5219 1.3184 0.3221 1.9663 0.5028 0.5302 0.5131 1.322 0.2752 1.9638 0.4975 0.4288 0.4013 1.0457 0.3438 1.5906 0.4012 0.3689-0.061 0.5258 0.3389 0.7807 0.431 0.2593-0.028 0.8722 0.1067 0.7051 0.4585-0.4919 0.411-1.2123 0.1736-1.7951 0.3409-0.4612 0.6027-1.3074 0.3027-1.9465 0.4889-0.4632 0.5974-1.304 0.3033-1.9432 0.4834-0.4654 0.6024-1.3084 0.3032-1.9506 0.489-0.4582 0.5984-1.2982 0.3028-1.9337 0.4848-0.6313 0.647-1.6112 0.2689-2.3975 0.4959-0.5108 0.5513-1.3301 0.3215-1.9894 0.4769-0.4669 0.5988-1.308 0.3044-1.9491 0.4889-0.4755 0.5998-1.2901 0.2992-1.9377 0.486-0.634 0.6473-1.6158 0.2674-2.4047 0.4947-0.4681 0.5305-1.2452 0.3355-1.8673 0.4541-0.5277 0.5566-1.3649 0.3747-2.0473 0.5073-0.6238 0.6461-1.5936 0.2754-2.3742 0.4929-0.6731 0.6038-1.6416 0.294-2.4505 0.4863-0.4756 0.559-1.2894 0.4253-1.9101 0.2354-0.1064 0.5495-0.7826 0.8395-1.2483 0.5362-0.4023-0.2878 0.1681-0.6552 0.4794-0.6055 0.3456 0.1556 0.7575 0.07 0.9506-0.2822 0.1365-0.3088 1.0889 0.077 0.8064-0.269-0.4918-0.6463-1.361-1.1336-1.4331-2.0128-0.6495-0.3623-0.3777-1.2158-0.5207-1.8187-0.4495-0.441-0.5425-1.1571-0.309-1.7273 0.4742-0.3929 0.2761-1.082 0.539-1.5653 0.4469-0.2679 0.1889-1.0427 0.7661-1.1388 0.019-0.5399 0.3228-1.0722 0.8253-1.2963 0.4233-0.062 0.7425-0.3286 1.0336-0.6307 0.4194-0.5542 1.1951-0.2876 1.6928-0.7136 0.5839-0.2589 1.3703-0.3483 1.9418 0.011 0.2995 0.9171 1.0811 1.5507 1.7372 2.2177 1.0584-0.016 2.1251 0.032 3.1784-0.024 0.195 0.093 0 0.6341 0.074 0.8826 0.5473 0.2143 0.4551 0.8803 0.5068 1.3534 0.5944 0.6145 0.4237 1.5623 0.4421 2.3409-0.1059 0.545 0.4481 1.029 0.9639 0.7667 0.5206-0.507 1.3054-0.4465 1.9839-0.5061 0.3752-0.3913 0.9386-0.4753 1.4557-0.4504 0.4769-0.567 1.2928-0.4417 1.9505-0.5179 0.3501-0.3732 0.8819-0.4779 1.374-0.4552 0.3353-0.1863 0.6862-0.5088 1.126-0.4648 0.4113 0.018 1.155-0.022 1.0518-0.6109-0.3191-0.6829-1.1815-0.6948-1.8299-0.6216-0.037-0.723 0.027-1.5172-0.092-2.261-0.4856-0.4904-0.3712-1.2257-0.423-1.853 0.089-0.5278-0.4275-0.86-0.4566-1.352 0.1418-0.4822-0.2955-0.8351-0.4571-1.2204-0.012-0.7117-0.8326-0.9738-1.0126-1.5889-0.6105-1.0726-1.5884-1.8982-2.4933-2.7274-0.3321-0.4121-0.8114-0.6159-1.2839-0.816-0.1931-0.3932-0.6855-0.3168-1.0141-0.5152-0.1761-0.4378-0.8147-0.2237-1.0262-0.5784-0.5843-0.4521-1.5359-5e-4 -2.0726-0.5907-1.4013-0.1757-2.8207-0.1679-4.225-0.032-0.4138 0.1908-0.8562 0.4325-1.3436 0.3878-0.5-0.1624-0.8852 0.283-1.2963 0.4383-0.4324-0.043-0.6346 0.4872-1.0211 0.4993-0.4612-0.066-0.6123 0.5838-1.0431 0.5072-1.2021 0.8396-2.2157 1.907-3.2094 2.9764-0.5199 0.3688-0.6067 1.0798-1.0611 1.4839-0.6592 0.3687-0.4748 1.2102-0.766 1.7827-0.5202 0.3979-0.1073 1.2379-0.6439 1.6027-0.215 1.9439-0.1902 3.907-0.03 5.8538 0.4172 0.4926 0.4469 1.1998 0.2255 1.7848-0.083 0.4491-0.6471-0.1478-0.5718-0.4548 0.1048-0.3825-0.3879-0.4423-0.4127-0.7967-0.1265-0.5818 0.03-1.229-0.3584-1.7274-0.2624-0.959-0.1434-1.9793-0.2016-2.9645 0.039-0.8537-0.046-1.7858 0.3471-2.562 0.2967-0.5824-0.056-1.3833 0.476-1.8468 0.2924-0.4166-0.1721-0.7603-0.2965-1.1149-0.041-0.7836-1.0766-1.0645-1.0192-1.8633-0.3592-0.2163-0.5401-0.6257-0.4918-1.0375-0.4108-0.1886-0.5018-0.6636-0.4699-1.0721 0.045-0.2244-0.056-0.741 0.3228-0.741 0.8833 0.6565 1.4933 1.7311 2.6125 2.0318 0.3383 0.372 0.878 0.5744 1.3451 0.3105 0.3431-0.9059 1.04-1.6183 1.8105-2.1796 0.6992-0.2415 1.1854-0.8262 1.7274-1.3 0.2559-0.3236 0.7863-0.1966 0.9587-0.575 0.2107-0.3303 0.7027-0.1176 0.9064-0.3515 0.3075-0.6084 1.1646-0.1248 1.5294-0.6282 0.4194-0.3604 1.0486-0.069 1.4301-0.4427 0.8341-0.3446 1.7757-0.2102 2.6582-0.2591zm2.121 19.685c-0.2154 0.018-0.4459 0.1605-0.5711 0.3379-0.3524 0.5219 0.4418 1.0023 0.8951 0.7356 0.4855-0.2654 0.1323-1.0735-0.324-1.0735zm-14.297 0.2189c0.2148-0.032 0.5641 0.1834 0.4958 0.4375-0.034 0.5386-0.9153 0.2536-0.6802-0.2078l0.014-0.041 0.021-0.068c0.021-0.073 0.077-0.1108 0.1496-0.1213zm9.3502 1.2398c-0.2488 0-0.4351 0.1716-0.5168 0.3947-0.2866 0.5394 0.4387 0.9788 0.8826 0.6813 0.5818-0.2616 0.1865-1.1483-0.3658-1.076zm63.806 95.357c-1.3881-9e-4 -2.8108-0.011-4.2068 0.1176-0.9337 0.4779-2.0215 0.2934-3.0309 0.446-0.5225 0.4827-1.2877 0.3753-1.9392 0.456-0.5575 0.5693-1.3593 0.3717-2.0682 0.5124-0.2989 0.5116-0.9701 0.3642-1.4612 0.46-0.2711 0.5407-0.9648 0.3911-1.4572 0.4874-0.2781 0.5352-0.9626 0.393-1.4572 0.4863-0.1633 0.3464-0.5586 0.4237-0.9053 0.4337-0.5566-0.1297-0.8072 0.6192-1.3722 0.4819-0.2848 0.3167-0.6989 0.5338-1.1333 0.4933-0.5056-0.067-0.7674 0.6048-1.2618 0.4669-0.3146 0.2992-0.7001 0.6049-1.1647 0.5068-0.1213 0.3605-0.497 0.4716-0.8404 0.4787-0.473-0.1063-0.7229 0.3074-1.1072 0.4743-0.5098-0.078-0.745 0.6298-1.2828 0.5013-0.3108 0.293-0.6852 0.5862-1.1427 0.4963-0.1909 0.513-0.8052 0.4673-1.2521 0.4999-0.352 0.2122-0.7074 0.5872-1.1874 0.475-0.2335 0.5977-0.9592 0.426-1.4613 0.5362-0.2828 0.5296-0.9626 0.3887-1.4572 0.4804-0.279 0.5374-0.9667 0.3937-1.4631 0.4864-0.1547 0.3574-0.6055 0.4269-0.9052 0.434-0.4211-0.1049-0.6081 0.3081-0.9816 0.3851-0.525 0.1998-1.1825-0.015-1.6411 0.2999-0.6809 0.5466-1.6845 0.052-2.3918 0.4841-0.7894 0.4937-1.779 0.1503-2.6392 0.3764-1.0162 0.5385-2.2136 0.3509-3.3231 0.3998-0.6925 0.073-1.5755-0.2406-2.1181 0.3966-0.5549 0.4493-0.6714 1.1768-0.8186 1.834-0.5287 0.5135-0.285 1.3034-0.4905 1.9341-0.4232 0.3773-0.3498 0.9785-0.4739 1.4777-0.5421 0.4916-0.2993 1.2833-0.4914 1.9076-0.4209 0.3596-0.3511 0.9563-0.4644 1.4433-0.5613 0.5096-0.2912 1.325-0.515 1.9503-0.3422 0.3743-0.4168 0.8745-0.3976 1.3644 0.9936-0.4414 2.086-0.3699 3.1442-0.3628 0.5827 0.5831 1.1655 1.1665 1.7483 1.7497v2.5791c-0.6478 0.6229-1.2959 1.2457-1.9437 1.8687-0.051 1.0005 0.1028 2.022-0.1516 3.0036-0.3145 0.4221-0.3692 0.9731-0.3373 1.4901-0.2242 0.4935 0.1621 1.0844 0.7133 1.0376 0.8041-0.083 1.5699 0.1822 2.3514 0.313 4.9003 0.1719 9.8096 0.1498 14.712 0.024 0.057-1.8245-0.1139-3.6611 0.1605-5.474 0.2787-0.3577 0.3643-0.9124-0.035-1.2194-0.1553-0.4468-0.4015-0.8944-0.7613-1.2284-0.4155-0.3824-0.7204-0.8433-0.9192-1.3672-0.4809-0.4635-0.5971-1.4504 0.011-1.8717 0.1613-0.4196 0.3213-0.9083 0.699-1.22 0.3282-0.3998 0.816-0.5411 1.2432-0.7786 0.4704-0.4954 1.494-0.5593 1.8813 0.078 0.6056 0.1172 1.0742 0.5454 1.4912 0.9721 0.7738 0.5622 0.8902 1.5684 0.8426 2.4522 0.1372 0.5933-0.4813 0.8712-0.8206 1.2344-0.3725 0.4755-1.1097 0.8707-0.9771 1.5675 0.4102 0.5327 0.4985 1.3703 0.011 1.8952-0.2742 1.5158-0.1093 3.0598-0.1674 4.5893 0.5262-0.01 1.0522-0.01 1.5785-0.017 1.0994-0.056 2.2177 0.058 3.303-0.1491 1.4112-0.599 2.9957-0.1302 4.4589-0.4985 1.0124-0.5218 2.1804-0.2121 3.2607-0.4087 0.8566-0.5528 1.9201-0.3288 2.8815-0.4713 0.5202-0.3138 1.1428-0.4536 1.7588-0.4259 0.7285 0.1549 1.2709-0.5601 1.9948-0.4479 0.098-0.6762-0.2091-1.5173 0.345-2.0502 0.2168-1.6579 0.1911-3.3393 0.015-4.9995-0.4697-0.3293-0.2692-0.9795-0.4625-1.4527-0.8834-0.1955-1.6-0.9309-1.805-1.8065 0.03-0.4118-0.2037-0.7583-0.5153-1.0068 0.049-0.2547 0.3992-0.4067 0.4694-0.6858 0.029-0.7639 0.4736-1.4946 1.1154-1.9131 0.3084-0.2397 0.7866-0.1402 0.9488-0.5417 0.4805-0.2232 1.2463-0.3499 1.5984 0.158 0.2794 0.2481 0.7504 0.2656 1.0279 0.5735 0.4825 0.4607 1.0436 0.8794 1.41 1.4353-0.1178 0.6988 0.1307 1.4834-0.2229 2.1345-0.3757 0.2062-0.2229 0.6624-0.4793 0.9614-0.4345 0.3769-0.8164 0.8834-0.7894 1.496-0.089 0.5413 0.3621 0.9117 0.4074 1.4264 0.1017 1.2621 0.1244 2.5417 0.014 3.8039 0.011 0.4665-0.3237 0.7691-0.4791 1.1721-0.2276 0.4602 0.2941 0.9544 0.7342 0.6674 0.4268-0.5413 1.1978-0.2948 1.7881-0.4347 0.3719-0.3913 0.9362-0.4716 1.4503-0.4475 0.5149-0.6039 1.3869-0.4165 2.0847-0.543 0.2991-0.5165 0.9707-0.3718 1.4656-0.4666 0.2268-0.4652 0.8031-0.423 1.2395-0.4535 0.3552-0.2028 0.7044-0.5937 1.1835-0.472 0.1366-0.3689 0.5364-0.4779 0.8942-0.4779 0.5282 0.1072 0.8049-0.5573 1.3041-0.4794 0.305-0.1398 0.5819-0.5028 0.9847-0.4936 0.4812 0.075 0.8538-0.2488 1.2245-0.4911 0.3526 0.114 0.5236-0.2693 0.8119-0.3988 0.3092-0.1875 0.7584 0.059 0.8173-0.427 0.4464-0.165 0.9696-0.2395 1.2508-0.6813-0.3505-0.5653-0.3967-1.2425-0.3364-1.889-0.073-0.5251 0.2733-0.9392 0.409-1.4165 0.046-0.6469 0.1212-1.3263-0.044-1.9638-0.4582-0.764-0.3633-1.673-0.4102-2.5256 0.068-0.4751-0.3659-0.7437-0.4277-1.1856-0.1728-0.2803 0.1731-0.9-0.1729-0.9503-1.2292 0.07-1.9905-1.018-2.7807-1.7742v-2.5502c0.5842-0.5841 1.1682-1.1682 1.7523-1.7522h2.556c0.5832 0.5836 1.1661 1.1671 1.7493 1.7508-0.016 0.6268 0.038 1.2551-0.016 1.8809 0.05 0.5882-0.3866 1.023-0.4406 1.5865-0.023 0.5771-0.1027 1.2454 0.2576 1.7314 0.4506 1.1117-0.1 2.4101 0.5186 3.4815 0.2124 0.8725 0.275 1.8799-0.02 2.771-0.2577 0.2473-0.3823 0.6154-0.5031 0.9677-0.1674 0.4124-0.3575 0.8283 0.043 0.4328 1.2894-0.9602 2.38-2.1579 3.5141-3.3004 0.6713-0.7704 1.5211-1.4274 1.909-2.401 0.4086-0.2115 0.3074-0.756 0.5487-1.0529 0.5445-0.528 0.057-1.5089 0.6077-2.0609 0.2635-0.9375 0.1882-1.9748 0.072-2.9456-0.1826-0.2592-0.3979-0.5492-0.3801-0.9056 0.1324-0.54-0.4592-0.8068-0.4812-1.3114 0.1252-0.7195-0.5271-1.1629-0.8998-1.6653-0.027-0.7025-0.7728-1.0041-1.0343-1.5763-0.51-1.0246-1.4158-1.8204-2.2829-2.5568-0.3568-0.4338-0.9703-0.4438-1.3121-0.898-0.2832-0.5139-0.9398-0.4753-1.3411-0.8366-0.2325-0.4987-0.7812-0.6236-1.2593-0.762-0.2197-0.3427-0.6419-0.3893-1.0041-0.5028-0.201-0.3481-0.6373-0.373-0.9834-0.4875-0.278-0.4613-0.9144-0.3162-1.3615-0.4614-0.3732-0.4391-0.9833-0.3644-1.4892-0.497-0.7144-0.6915-1.8785-0.1017-2.6597-0.6656-1.2869-0.2424-2.6352-0.1531-3.9479-0.1935zm-98.116 12.006c-0.1159 0.054-0.3682 0.4081-0.5271 0.5563-0.3213 0.5437-0.9807 0.5702-1.5403 0.5879-0.4808-0.095-0.7618 0.3784-1.1927 0.4471-0.5194-0.1509-0.9342 0.292-1.3176 0.4655-0.7167 0.016-0.9751 0.8605-1.6082 1.0171-0.9582 0.5377-1.7215 1.405-2.4338 2.2411-0.093 0.2561-0.8023 0.6962-0.4381 0.8199 0.7139 0.141 1.4591 0.654 1.452 1.4532 0.2852 0.137 0.3962 0.4427 0.4168 0.7392 0.011 0.6876 0.2359 1.5661-0.3225 2.1027-0.1548 0.4889-0.3619 1.0657-0.8851 1.2956-0.435 0.04-0.69 0.3885-1.0571 0.5764-0.3691-0.045-0.793 0.1806-0.7117 0.6121 0.2054 0.4941-0.039 1.0558 0.2757 1.521 0.3352 0.3552 0.2678 0.9213 0.6799 1.2275 0.2659 0.778 0.8717 1.3885 1.4128 1.993 0.2013 0.4175 0.8844 0.5342 1.0309 0.015 0.3999-0.3454 0.3758-0.9072 0.4472-1.3865 0.2619-0.2787 0.415-0.6444 0.5003-1.0196 0.4371-0.3593 0.3961-0.9607 0.4904-1.4656 0.4357-0.363 0.3947-0.9598 0.4859-1.4668 0.3119-0.2344 0.4053-0.6249 0.4808-0.9906 0.4716-0.3446 0.3827-0.9746 0.5044-1.4737 0.3283-0.2501 0.4118-0.6635 0.5028-1.0458 0.492-0.2935 0.3038-0.9637 0.4915-1.4297 0.3407-0.2223 0.382-0.6499 0.4834-1.0081 0.4864-0.2991 0.3058-0.9577 0.4863-1.4158 0.3438-0.2344 0.3841-0.6702 0.5-1.0348 0.42-0.1574 0.2968-0.7091 0.5336-1.0154 0.3809-0.1303 0.2499-0.6389 0.3368-0.9621-0.086-0.4441 0.4541-0.5324 0.4541-0.894v-3e-4c0.028-0.2409 0.053-0.4818 0.081-0.7228 0.078-0.2943 0.058-0.3704-0.012-0.3382zm124.32 5.5074c-0.4966-4e-4 -0.9961 0.026-1.4874 0v5e-4c-0.515-0.028-0.5987 0.4996-0.6882 0.881-0.49 0.2559-0.2825 0.9496-0.475 1.3839-0.3409 0.2345-0.3863 0.6694-0.5003 1.0336-0.5226 0.1726-0.1923 1.0501-0.7964 1.1373-0.05 0.8344-0.8367 1.2708-1.2744 1.8926-0.562 1.0984-1.4554 1.9774-2.4232 2.726-0.813 0.2947-1.3005 1.0674-2.0099 1.5203-0.6138 0.135-0.9697 0.6777-1.4513 1.028-0.4826 0.065-0.8459 0.4067-1.1802 0.7436-0.2101 0.347-0.6796 0.1883-0.8867 0.4641-0.2395 0.4096-0.7707 0.2093-1.0375 0.56-0.2636 0.3379-0.7262 0.1444-0.9724 0.4874-0.2309 0.3216-0.6592 0.1417-0.8901 0.42-0.2446 0.3059-0.6727 0.3091-0.9768 0.3805-0.2652 0.6668-1.1529 0.1895-1.5349 0.6597-0.232 0.3257-0.7137 0.156-0.9328 0.3709-0.3267 0.617-1.2076 0.1147-1.5811 0.6652-0.2664 0.3175-0.7713 0.027-0.9423 0.4211-0.4996 0.3991-1.2069 0.1639-1.7896 0.3338-0.2995 0.4699-0.8591 0.384-1.3191 0.4321-0.3621 0.4148-0.9343 0.5091-1.4571 0.4765-0.5169 0.6041-1.3891 0.4149-2.0872 0.5458-0.4255 0.5774-1.2206 0.326-1.8275 0.4694-0.6984 0.6241-1.6608 0.3284-2.5003 0.5113-0.6502 0.6439-1.6425 0.2206-2.421 0.5435-0.6956 0.5238-1.6077 0.1982-2.3856 0.4662-0.995 0.5694-2.166 0.2566-3.2432 0.4362-0.4869 0.2146-1.0079 0.4131-1.5607 0.3925-0.927 0.1255-1.9318-0.1554-2.7952 0.2947-1.1846 0.3027-2.5403 0.1894-3.8343 0.2327-0.7428-0.047-1.4285 0.2417-2.1555 0.3174-6.8327 0.2239-13.672 0.1527-20.508 0.106-1.5705-0.058-3.119 0.047-4.622-0.1964-1.0705-0.3979-2.2233-0.1688-3.3359-0.2558-0.1065 0.8195 0.1926 1.7607-0.3228 2.4793-0.3993 1.0823 0.094 2.3518-0.4695 3.4048-0.2976 1.4266-0.1394 2.9076-0.2254 4.357 0.036 0.7154-0.2433 1.3714-0.3533 2.0642-0.1268 2.8431-0.1579 5.6998 0.029 8.5421 0.5257 1.1788 0.3025 2.502 0.3628 3.7552 1.1561 0.035 2.3248-0.078 3.4705 0.1191 0.6051 0.2788 1.2804 0.3823 1.9509 0.3489 1.0941 0.1161 2.2487-0.1317 3.2944 0.2819 1.5236 0.3738 3.1193 0.146 4.6737 0.2503 0.036-0.5236-0.1059-1.1632 0.3379-1.557 0.2475-2.3589 0.122-4.7326 0.1554-7.0991-0.1737-0.6162-0.8708-0.9482-1.1951-1.5009-0.3868-0.4149-0.093-1.1041-0.5656-1.4623-0.4126-0.1428 0-0.5331 0.2313-0.6176 0.012-0.5548 0.1907-1.1056 0.5354-1.5437 0.3273-0.4698 0.8161-0.7578 1.3469-0.933 0.6207-0.5452 1.6599-0.5336 2.3288-0.059 0.272 0.4595 0.7981 0.5969 1.2634 0.7773 0.1959 0.2631 0.1581 0.6704 0.4199 0.9229 0.3315 0.7262 0.3111 1.6293 0.064 2.3893-0.3216 0.2703-0.2709 0.7274-0.4934 1.0485-0.3529 0.1317-0.8721 0.1038-1.0346 0.5373-0.4971 2.3259-0.03 4.742-0.4225 7.0845-0.4314 0.7031-0.292 1.5632-0.3075 2.3516 6.7376 0.171 13.478 0.1249 20.217 0.082 0.028-0.5043-0.1548-1.1558 0.3369-1.4985 0.227-2.5361 0.1206-5.0847 0.1454-7.627-0.3505-0.7309-1.1149-1.1875-1.6548-1.786-0.4072-0.1931-0.2961-0.6596-0.2832-1.0288-0.1365-0.7933 0.1999-1.5859 0.7678-2.1345 0.4339-0.453 0.9333-0.8275 1.5191-1.049 0.4549-0.5151 1.4633-0.6046 1.8919-0.011 0.3892 0.1433 0.8432 0.2842 1.1358 0.6326 0.3983 0.3192 0.6264 0.7536 0.8052 1.2194 0.5189 0.5005 0.6452 1.5472-0.031 1.9779-0.1335 0.8687-0.9219 1.3856-1.4961 1.9656-0.052 2.6465 0.1204 5.3121-0.1774 7.9439-0.3293 0.3766-0.4371 0.8894-0.2218 1.3521 0.6146-0.043 1.2333-0.024 1.8454-0.098 0.8892-0.2688 1.82-0.3254 2.7466-0.2942 0.872-0.066 1.7643 0.046 2.6209-0.1518 1.2531-0.6057 2.6871-0.1393 3.9927-0.5057 1.0061-0.5298 2.1727-0.2091 3.2479-0.4098 0.7129-0.4588 1.5927-0.3868 2.4073-0.4252 0.4638 0.058 0.8021-0.2498 1.2204-0.3741 0.2957-0.1598 0.7772 0.048 0.9565-0.1939 0.2032-0.2429-0.017-0.7515 0.3456-0.8434 0.2649-0.399 0.2074-0.9895 0.2365-1.4759 0.1273-0.9899-0.1736-2.0809 0.3385-2.9903 0.2514-1.2923 0.1699-2.6429 0.087-3.9563-0.8658-0.3534-1.745-1.003-1.9087-1.9836-0.3824-0.1967-0.4499-0.655-0.442-1.0431-0.07-0.6058 0.1698-1.1816 0.6255-1.5814 0.4324-0.2495 0.2107-0.9275 0.7331-1.0907 0.4188 0.054 0.6371-0.3884 1.0438-0.4388 0.6766-0.054 1.4332-0.1794 2.0634 0.1372 0.2405 0.3934 0.8213 0.1562 1.0541 0.5761 0.022 0.6113 0.5803 0.9626 0.8935 1.4279 0.1413 0.6579 0.3328 1.588-0.3324 2.0267 0.017 0.6362-0.4956 1.0893-0.9973 1.388v1.9531c-0.094 0.9714 0.1605 2.0366-0.3284 2.9298-0.2698 1.3702-0.1148 2.7976-0.1609 4.1918 0.681-0.1296 1.3799-0.06 2.0601-0.1873 0.4692-0.5262 1.2407-0.3359 1.8604-0.4527 0.3693-0.3942 0.934-0.4709 1.4473-0.4489 0.5144-0.6032 1.3851-0.4163 2.0821-0.5432 0.3117-0.5051 0.9649-0.377 1.4627-0.4666 0.2815-0.5372 0.9711-0.393 1.4683-0.4863 0.2632-0.5047 0.8551-0.411 1.3146-0.46 0.3409-0.3902 0.8765-0.504 1.374-0.4771 0.3548-0.2072 0.7376-0.5424 1.208-0.4729 0.4988 0.064 0.7576-0.5959 1.2454-0.4654 0.3973-0.4184 0.9535-0.5776 1.518-0.4973-0.1783-0.6491-0.4603-1.4968 0.1111-2.0349 0.2371-2.277 0.1076-4.5687 0.1452-6.8528-0.6226-0.5961-1.2427-1.1948-1.8645-1.7919-0.2051-0.4477-0.026-0.9959-0.077-1.4851-0.1418-1.1116 0.6652-2.232 1.7449-2.4702 0.6618-0.6922 1.7078-0.3862 2.5626-0.4486 0.5725 0.563 1.1316 1.1532 1.7163 1.6954 0.067 0.739 0.02 1.5018-0.011 2.2475 0.022 0.46-0.4598 0.6898-0.4428 1.1335-0.074 0.4711-0.5624 0.5594-0.9547 0.4808-0.033 2.1113-0.021 4.2224-0.021 6.3337 0.07 0.499-0.1372 1.0653 0.079 1.5195 0.3011 0.3702 0.6789-0.028 0.9433-0.2317 0.3869 0.056 0.6623-0.2489 0.931-0.4709 0.6348 0.011 1.0071-0.56 1.4572-0.9101 0.3884-0.053 0.7-0.2906 0.9837-0.5502 0.5877 0.011 0.9703-0.4904 1.3561-0.86 0.8044-0.2244 1.3435-0.8995 1.9601-1.4184 1.1979-0.5874 2.0279-1.6628 3.003-2.5365 0.3873-0.5021 1.0806-0.5667 1.4961-1.0318 0.1253-0.2537 0.6309-0.7189 0.091-0.7451-0.4733-0.029-0.4554-0.7325-0.02-0.8217 0.1891-1.8044 0.1366-3.6207 0.1466-5.4319-0.1049-0.6765 0.2731-1.5268-0.3171-2.0565-0.7558-0.054-1.47-0.4814-1.8768-1.12-0.1942-0.4052-0.3733-0.8061-0.6443-1.1684-0.06-0.6524-0.2768-1.5445 0.3837-1.9681 0.013-0.521 0.3278-1.0235 0.8081-1.2345 0.3541-0.076 0.6198-0.168 0.8555-0.442 0.7064-0.196 1.4932-0.2102 2.2016-0.026 0.2768 0.2 0.5258 0.3773 0.8744 0.4405 0.5422 0.1809 0.7852 0.7025 0.9217 1.211 0.5385 0.5815 0.5325 1.5054 0.2397 2.2108-0.409 0.2749-0.1917 0.9244-0.6387 1.1441-0.1702 1.2127-0.134 2.4403-0.1474 3.6614-0.068 0.7713 0.095 1.5208 0.2598 2.2697 0.1215-0.074 0.2907-0.772 0.4296-1.0768 0.073-0.5324 0.5283-0.8885 0.6355-1.4121 0.2078-0.3066 0.4265-0.6506 0.489-1.043 0.4571-0.3493 0.3649-0.9624 0.4889-1.4572 0.5915-0.4264 0.1958-1.3162 0.7286-1.7524 0.207-1.854 0.1726-3.7238 0.086-5.5843 0.085-0.5585-0.2582-1.0119-0.4171-1.5052 0.1216-0.5108-0.2498-0.905-0.467-1.3173 0.111-0.5058-0.1637-0.9571-0.4595-1.341 0.019-0.7368-0.8262-1.0149-1.0182-1.6397-0.7054-1.1413-1.7481-2.059-2.7197-2.9834-0.425-0.4837-0.9548-0.832-1.5331-1.106-0.3488-0.3878-0.7565-0.7681-1.3026-0.8519-0.2781-0.255-0.6395-0.4444-1.0313-0.5068-0.3352-0.4376-0.9262-0.385-1.4129-0.4739-0.4002-0.4697-1.0654-0.3638-1.5903-0.5497-0.5697-0.6156-1.5685-0.1168-2.1748-0.6554-0.9649-0.3803-2.0884 0.046-2.9962-0.5127-0.4797-0.1269-0.9734-0.1535-1.47-0.1539zm-137.56 11.762c-0.3491 0.2518-0.7588 0.4016-1.1927 0.3937-0.5143-0.059-0.959 0.1739-1.3464 0.482-0.4116-0.09-0.6144 0.3586-0.9753 0.4804-0.4121-0.065-0.6175 0.361-0.9723 0.4879-0.4935-0.1081-0.6705 0.5619-1.1428 0.5124-1.1493 0.8318-2.151 1.8444-3.0918 2.9011-0.4154 0.3478-0.6743 0.811-0.8561 1.314-0.3578 0.2159-0.3763 0.6439-0.5055 1.0071-0.3422 0.2002-0.369 0.6283-0.4808 0.9712-0.4569 0.2876-0.322 0.9189-0.4666 1.3741-0.7034 0.7213-0.1048 1.8991-0.6787 2.6872-0.3064 1.7334-0.205 3.5409-0.079 5.2997 0.2429 0.3939 0.4252 0.8598 0.3884 1.3464 0.1175 0.3893 0.5857 0.7203 0.4487 1.1985-0.086 0.4872 0.535 0.7045 0.5002 1.1538 0.8143 1.1568 1.8585 2.1199 2.8547 3.1153 0.2065 0.3277 0.8297 0.4531 0.9086-0.02-0.039-0.5322-0.072-1.1158-0.364-1.5957-0.3619-1.8974-0.1428-3.8572-0.2059-5.7813 0.1277-0.4358-0.3766-0.5118-0.5964-0.7861-0.3936-0.266-0.2552-0.8262-0.6233-1.0735-0.3495-0.5161-0.3591-1.3352 0.1305-1.7688 0.2994-0.7045 0.7365-1.4228 1.4769-1.7317 0.3645-0.06 0.5641-0.2847 0.8305-0.5014 0.5172-0.1588 1.1824-0.1651 1.5474 0.291 0.8753 0.3175 1.7082 0.9837 1.8823 1.9476 0.3563 0.16 0.4513 0.5648 0.4335 0.921 0.046 0.4006-0.1223 0.731-0.3946 1.0072-0.3197 0.9111-1.0592 1.6955-2.0319 1.8893 0.017 1.75-0.056 3.5046 0.1066 5.2497 0.4058 0.6 0.3569 1.3336 0.4058 2.0103-0.108 0.5375 0.5032 0.8307 0.4683 1.3393-0.1437 0.3117-0.2033 0.8064 0.2175 0.9323 0.4952 0.4283 1.1775 0.3673 1.78 0.4212 0.4369 0.2014 0.9147 0.6462 1.4254 0.3588 0.4169-0.1551 0.1308-0.8165 0.5746-0.8811 0.077-0.4434 0.1334-0.8903 0.1441-1.3407 0.06-0.8145-0.091-1.688 0.2316-2.4533 0.5521-0.9187-0.029-2.0979 0.5398-2.9977 0.3623-0.6511 0.088-1.4863 0.3325-2.1902 0.5254-0.717 0.2695-1.6463 0.4807-2.4515 0.4944-0.5376 0.2996-1.3054 0.4725-1.9491 0.528-0.5276 0.305-1.3134 0.4905-1.9586 0.526-0.5181 0.301-1.2974 0.4818-1.9352 0.4164-0.3699 0.363-0.9647 0.4696-1.4615 0.514-0.4892 0.3514-1.2416 0.4794-1.8659 0.2627-0.35 0.5071-0.79 0.3437-1.2505-0.1208-0.7205-0.955-0.7309-1.4311-1.0959-0.2292-0.5055-0.7813-0.6336-1.251-0.8103-0.2318-0.5477-0.539-1.1057-1.0085-1.5063-0.5147-0.3525-0.5791-1.019-0.9445-1.4704v-3e-4zm60.808 0.3743c-0.3853 0.012-0.7725 0.047-1.1636 0.03-0.039 0.437 2e-4 0.7993-0.1393 1.211-0.5736 0.696-0.2357 1.6675-0.5105 2.4695-0.5332 0.548-0.3392 1.3804-0.1191 2.0278 0.5849 0.4396 1.3142 0.2932 1.9824 0.3867 0.074-0.6352-0.1836-1.4045 0.2686-1.9363 0.309-0.8722 0.1953-1.8556 0.2038-2.7737 0.049-0.5022 0.1585-1.3104-0.5223-1.4142zm101.71 8.7866c-0.8555 0.022-1.7358-0.022-2.57 0.1945-0.6634 0.211-0.5348 0.994-0.6564 1.5218-0.4892 0.3676-0.3457 1.0387-0.5398 1.5415-0.3548 0.2229-0.3502 0.6776-0.4894 1.0251-0.5144 0.1874-0.1988 1.0637-0.8198 1.1427 0.079 0.6617-0.5183 1.0701-0.9086 1.5016-0.056 0.6049-0.524 1.0324-0.9518 1.4089-0.2386 0.9919-1.1817 1.5312-1.7519 2.3111-0.7384 1.2601-1.7807 2.3068-2.917 3.2136-0.9845 0.4695-1.6364 1.3868-2.498 2.0252-0.7956 0.2741-1.2809 1.0135-1.9597 1.4671-0.3617 0.1038-0.6784 0.2961-0.9288 0.5839-0.6372-0.011-1.014 0.5589-1.4653 0.9114-0.392 0.059-0.7069 0.3017-1.0046 0.5513-0.4215-0.022-0.7137 0.3098-1.036 0.5193-0.5309-0.07-0.801 0.6244-1.3157 0.4973-0.3183 0.3042-0.7066 0.599-1.1762 0.5113-0.1184 0.4355-0.5827 0.5092-0.9683 0.5014-0.1982 0.5-0.7993 0.4519-1.241 0.4839-0.3542 0.207-0.7058 0.5931-1.186 0.4749-0.2101 0.5237-0.8051 0.4662-1.2479 0.4988-0.354 0.2082-0.7068 0.5918-1.1871 0.4746-0.2025 0.5447-0.8612 0.4583-1.3257 0.5043-0.3547 0.4191-0.9284 0.5035-1.4462 0.4779-0.3599 0.4203-0.9353 0.5147-1.4598 0.4864-0.3611 0.4216-0.9386 0.5137-1.4646 0.4875-0.5231 0.5989-1.3917 0.4149-2.0927 0.5457-0.299 0.4754-0.8619 0.3861-1.3256 0.435-0.5162 0.5915-1.3793 0.4085-2.0722 0.5347-0.4718 0.608-1.2898 0.3051-1.938 0.4945-0.6354 0.6437-1.6175 0.2676-2.4061 0.4947-0.6832 0.6744-1.7365 0.1577-2.5268 0.5835-0.6534 0.4831-1.5048 0.1456-2.2272 0.4097-1.0682 0.6298-2.3554 0.1853-3.4986 0.5216-1.0078 0.5537-2.1868 0.2144-3.2681 0.4259-0.5779 0.3266-1.2612 0.389-1.9179 0.3819-1.0871 0.1121-2.2264-0.1373-3.2726 0.251-1.2169 0.3202-2.51 0.2343-3.7629 0.2584-1.1416 0.034-2.3161-0.07-3.4125 0.3108-2.4832 0.1536-4.9789 0.1546-7.4682 0.1737-3.3975-0.021-6.8 0.016-10.193-0.14-1.5444-0.3982-3.1562-0.332-4.7399-0.3404-1.2402-0.058-2.4952 0.036-3.7244-0.1539-1.0599-0.3643-2.1904-0.3321-3.297-0.3321-1.0273-0.1111-2.1402 0.1473-3.0963-0.3346-1.4117-0.255-2.8737-0.1414-4.3041-0.082 0.2522 0.651 0.1846 1.3518 0.3078 2.0264 0.5675 0.4236 0.3161 1.2072 0.461 1.8065 0.3793 0.3783 0.4745 0.9323 0.4476 1.4473 0.4202 0.3604 0.5146 0.9365 0.4862 1.4617 0.3008 0.2677 0.4635 0.6562 0.479 1.0555-0.118 0.445 0.3214 0.6656 0.4586 1.0376-0.087 0.476 0.5419 0.6866 0.5044 1.1592 0.071 0.3646 0.5217 0.625 0.4862 1.064-0.1096 0.4168 0.1455 0.7715 0.4351 1.0386-0.031 0.6391 0.5605 1.005 0.9001 1.4587 0.05 0.3879 0.2869 0.7012 0.5487 0.9822 0 0.6602 0.6052 1.0351 0.9668 1.5045 0.1928 0.9657 1.2589 1.4328 1.6137 2.3309 1.9797 2.2881 4.1528 4.4187 6.4053 6.4425 0.5394 0.2819 1.0177 0.6785 1.4448 1.1196 0.3793 0.4694 1.0263 0.4951 1.4294 0.9296 0.2929 0.5287 0.9558 0.5368 1.388 0.8865 0.2262 0.4981 0.7745 0.6229 1.2494 0.7604 0.2139 0.3087 0.5884 0.4091 0.9463 0.4751 0.2585 0.3088 0.6635 0.43 1.0361 0.5791 0.3512 0.4095 0.7859 0.8047 1.3546 0.8672 0.4101 0.4209 1.0111 0.5034 1.5667 0.3976-0.049-0.4977-0.289-1.2041 0.2564-1.517 0.1996-1.5016 0.106-3.0185 0.1315-4.5281-0.7579 7e-4 -1.4808-0.5957-1.4808-1.381-0.3096-0.1473-0.4039-0.4919-0.4265-0.8071 0.011-0.6712-0.2239-1.5393 0.3514-2.0436 0.1233-0.5188 0.3837-1.1181 0.9478-1.3176 0.3915-8e-4 0.5675-0.2452 0.8547-0.4486 0.6643-0.1106 1.5991-0.3162 2.0404 0.3529 0.7245 0 1.3544 0.6294 1.3615 1.3521 0.2853 0.1349 0.3936 0.4415 0.4141 0.7363 0.011 0.7104 0.2433 1.6296-0.3767 2.1576-0.049 0.6204-0.5018 1.1082-1.0292 1.3906-0.056 1.5265 0.1131 3.0677-0.1582 4.5335-0.4325 0.6618-0.2841 1.4852-0.3958 2.2291-0.289 0.4873 0.2609 0.8852 0.719 0.8214 0.2925 0.2495 0.662 0.4331 1.0529 0.5127 0.3446 0.4284 0.9294 0.3919 1.4225 0.4751 0.3902 0.4391 1.0136 0.3892 1.5362 0.5192 0.5076 0.5424 1.3208 0.2855 1.9547 0.5073 0.3655 0.4188 0.9621 0.3368 1.4487 0.4599 0.5081 0.5346 1.3138 0.3 1.9517 0.5095 0.5229 0.5096 1.31 0.2673 1.9436 0.4892 0.6448 0.5617 1.5794 0.2324 2.3397 0.4706 1.0109 0.6144 2.2599 0.2273 3.3649 0.493 0.6896 0.441 1.5448 0.3298 2.3254 0.3732-0.2149-0.4875-0.4677-1.1619 0.06-1.5504 0.263-3.6074 0.1162-7.2259 0.1608-10.839-0.5595-0.02-1.1224-0.3016-1.3575-0.8313-0.062-0.3838-0.3099-0.6665-0.5098-0.9876-0.062-0.6533-0.2791-1.5487 0.3838-1.9726 0.011-0.5753 0.4157-1.1595 0.9847-1.2882 0.4517-0.029 0.6932-0.5594 1.1017-0.5843 0.7156 0.1619 1.6568-0.1869 2.1646 0.4942 0.5228 0.028 1.0226 0.3473 1.2425 0.8256 0.054 0.3876 0.3172 0.662 0.5083 0.9877 0.059 0.6503 0.2802 1.5535-0.3878 1.9697 0.011 0.7888-0.7195 1.3898-1.4792 1.3893 0 1.893 0 3.7858-0.011 5.6786-0.056 1.7642 0.08 3.5515-0.2041 5.2568-0.3774 0.5219-0.272 1.2037-0.272 1.8142 3.2229 0.1305 6.4492 0.1334 9.6738 0.098 1.4368-0.052 2.8842 0.033 4.3128-0.143 1.6082-0.5144 3.3091-0.2 4.9547-0.4225 0.8192-0.48 1.8113-0.3534 2.7264-0.4031v-8.3956c-0.043-1.6334 0.087-3.2742-0.074-4.9023-0.5753-0.1719-1.1086-0.4991-1.478-0.9778-0.3497-0.3425-0.2919-0.9227-0.7133-1.1761-0.2401-0.4906-0.2703-1.2024 0.1507-1.6074 0.3229-0.5745 0.5844-1.2375 1.1834-1.5981 0.2865-0.2906 0.8173-0.1852 0.9903-0.575 0.507-0.3085 1.4007-0.3897 1.7247 0.2316 0.546 0.074 0.9992 0.4188 1.3448 0.8309 0.4079 0.3067 0.4037 0.8563 0.74 1.208 0.3876 0.4883 0.3732 1.4064-0.2149 1.7563 0.013 0.6345-0.4991 1.0828-0.9987 1.3824v12.848c0.015 0.395-0.135 1.1129 0.3683 0.5409 0.725-0.7053 1.745-0.4351 2.6403-0.6043 0.6725-0.6121 1.6469-0.2893 2.4574-0.4904 0.5037-0.5593 1.3271-0.3196 1.9836-0.4794 0.4798-0.6064 1.2958-0.2981 1.9491-0.4903 0.3019-0.467 0.8612-0.3831 1.3241-0.4307 0.5206-0.5907 1.3791-0.4081 2.0736-0.5333 0.307-0.5044 0.9666-0.3774 1.4628-0.4683 0.2865-0.5274 0.9652-0.3933 1.4616-0.4861 0.2839-0.5343 0.9693-0.388 1.4657-0.4877 0.2845-0.5444 0.985-0.3856 1.4861-0.489 0.1939-0.5033 0.846-0.36 1.2455-0.5875-0.1695-0.9446-0.4105-2.0281 0.1549-2.8905 0.1954-2.3994 0.1864-4.8141 0.012-7.2144-0.4385-0.6357-0.3485-1.3985-0.4045-2.118-0.684-0.022-1.3605-0.524-1.413-1.2358-0.085-0.3002-0.4974-0.4707-0.4358-0.8789 0-0.6888-0.2361-1.5649 0.3212-2.1041 0.1551-0.4916 0.3631-1.0728 0.8931-1.2985 0.3939-0.048 0.6688-0.3204 0.9992-0.5098 0.6533-0.062 1.5425-0.2723 1.972 0.3822 0.7231 0 1.3527 0.6336 1.362 1.355 0.2834 0.1373 0.3928 0.4426 0.4141 0.7377 0 0.6932 0.2375 1.5758-0.3317 2.113-0.1161 0.3434-0.2023 0.7536-0.5072 1.0156-0.5441 0.3703-0.6477 1.0876-0.5435 1.6965 0.3454 0.6241 0.432 1.3397 0.4072 2.0474 0.032 2.0429 0.1592 4.105-0.1368 6.1355-0.2173 0.3571-0.3644 0.7772-0.3481 1.2116 0.1301 0.5084 0.7719 0.3201 1.1541 0.2369 0.4268 0.129 0.629-0.3371 0.9987-0.4531 0.4666 0.064 0.702-0.4887 1.1703-0.4958 0.4627 0.1083 0.8533-0.1834 1.19-0.4571 0.4065 0 0.7029-0.3067 1.0291-0.5098 0.399 0.084 0.61-0.3194 0.9393-0.471 0.5346 0.061 0.8061-0.6467 1.3422-0.4958 0.2857-0.3971 0.7742-0.5203 1.2231-0.6315 0.076-0.4108 0.5861-0.2552 0.8421-0.4699 0.3412-0.4395 0.9989-0.3373 1.3675-0.748 0.2686-0.5973 1.0294-0.5289 1.4448-0.9668 0.2807-0.5974 1.0361-0.5364 1.4598-0.9724 0.2436-0.5155 0.8448-0.5463 1.2772-0.8258 0.2765-0.3497 0.632-0.645 1.0375-0.8454 0.5153-0.1629 0.5843-0.7521 0.4134-1.1934 0.026-0.8773-0.2235-1.8711 0.2852-2.6593 0.2277-1.226 0.1864-2.5131 0.1103-3.7626 0.036-0.4111-0.123-0.7461-0.3008-1.0972-0.2492-1.0147 0.072-2.1877-0.63-3.0735-0.7633 0.011-1.445-0.6347-1.4698-1.399-0.3081-0.1488-0.3976-0.4934-0.421-0.807 0.011-0.6716-0.2251-1.5402 0.3518-2.0448 0.1266-0.3777 0.2226-0.8415 0.5864-1.1013 0.2806-0.3349 0.8255-0.1491 1.0217-0.5516 0.4738-0.2819 1.0878-0.236 1.6189-0.1814 0.3848-0.018 0.4831 0.4726 0.8419 0.4549 0.5944 0.083 1.0408 0.5859 1.1145 1.1644 0.4947 0.5425 0.5488 1.3241 0.4599 2.0277 0 0.452-0.1774 0.8376-0.432 1.196-0.076 0.4728-0.4346 0.8405-0.4864 1.3292 0.025 1.0536-0.1966 2.1769 0.2482 3.1736 0.4037 1.7894 0.1422 3.659 0.039 5.4757 1.2306-1.2731 2.5166-2.4955 3.6646-3.8454 0.3511-0.8035 1.1158-1.3107 1.5786-2.0425 0.044-0.656 0.8065-0.9139 0.9932-1.5188-0.014-0.4235 0.3604-0.6458 0.5403-0.9904-0.133-0.4069 0.3788-0.5987 0.4515-0.9628-0.028-0.4145 0.3581-0.6251 0.5028-0.9738 0.011-0.5016 0.5037-0.788 0.5733-1.2772 0.1784-0.3455 0.4372-0.6996 0.5142-1.1095 0.4296-0.3274 0.3514-0.9066 0.4514-1.3754 0.4306-0.3951 0.3946-1.0112 0.5165-1.5374 0.5148-0.4908 0.314-1.2665 0.4809-1.8898 0.6048-0.8083 0.2687-1.8782 0.4848-2.7972 0.4943-0.9567 0.3112-2.0513 0.3962-3.0841-0.528-0.032-1.3303 0.1916-1.5697-0.4559-0.6241-0.011-1.2178-0.457-1.3407-1.0775 0.062-0.3534-0.3792-0.403-0.4182-0.73-0.063-0.6253-0.2803-1.4798 0.3178-1.9151 0.1313-0.4531 0.2864-1.0295 0.7935-1.2449 0.4544-0.027 0.7352-0.4077 1.0677-0.655 0.4977-0.3163 0.074-0.8888 0.1667-1.3191-0.078-0.3209-0.4857-0.5707-0.4758-0.9625 0.1048-0.4599-0.1862-0.8423-0.4339-1.1929-0.024-0.4641-0.071-0.976-0.4196-1.3348-0.086-0.3823-0.302-0.7339-0.5483-1.0475-0.014-0.6672-0.6562-1.0131-0.9738-1.5195-0.011-0.7278-0.8578-0.9932-1.038-1.6265-1.0398-1.4921-2.4352-2.7215-3.7456-3.9825-0.4295-0.5568-1.1017-0.7932-1.642-1.2061-0.2993-0.5587-0.9861-0.6074-1.4506-0.9463-0.3247-0.6595-1.1105-0.6342-1.7208-0.784-0.2646-0.3051-0.659-0.4174-1.0485-0.4929-0.2738-0.4545-0.877-0.3417-1.3227-0.4475-0.3798-0.4536-1.0096-0.3809-1.5265-0.5182-0.6045-0.5755-1.5341-0.2731-2.2759-0.4696-0.8546-0.5079-1.8733-0.3401-2.8188-0.3946zm-175.4 16.515c-0.3806 0.058-0.5954 0.5338-0.9891 0.5047-1.0432 0.7285-1.9598 1.6221-2.7914 2.5816-0.4727 0.3881-0.5716 1.0227-0.9958 1.4466-0.5348 0.2806-0.5343 0.9482-0.88 1.377-0.5172 0.2322-0.6252 0.8066-0.7839 1.2882-0.4818 0.2853-0.2966 0.9211-0.4624 1.3672-0.3374 0.2371-0.3826 0.6628-0.4919 1.0276-0.4417 0.2973-0.3799 0.8765-0.4486 1.3371-0.5089 0.4902-0.389 1.2405-0.4934 1.8727-0.2665 0.4592-0.6425 1.0447-0.2397 1.547 1.0383 0.2497 1.815 1.2616 1.8021 2.3273 0.5184 0.2517 0.6486 1.0725 0.1346 1.3909-0.4724 1.0028-1.2318 1.8685-2.1782 2.4567-0.6542 0.4339-0.2819 1.2831-0.2917 1.9149 0.4235 0.6177 0.3235 1.3983 0.3965 2.1049-0.071 0.4682 0.4482 0.6791 0.4348 1.1445-0.054 0.4836 0.2189 0.8818 0.4943 1.2454-0.1006 0.4863 0.5579 0.7374 0.4864 1.244-0.1063 0.7139 0.5905 1.112 0.9155 1.6345 0.016 0.7181 0.8438 0.9833 1.0332 1.6042 0.9006 1.3521 2.1447 2.4628 3.3282 3.5746 0.4201 0.5523 1.1072 0.7496 1.6228 1.1778 0.2307 0.4892 0.7987 0.5768 1.2256 0.7218 0.184 0.3264 0.5724 0.3957 0.913 0.4474 0.2124 0.3135 0.5895 0.4424 0.96 0.4879 0.3274 0.4786 0.9595 0.3894 1.4516 0.5039 0.2545 0.2986 0.6412 0.4142 1.0181 0.4893 0.4143 0.4194 1.0857 0.5271 1.635 0.328 0.4327-0.1831 0.8959-0.3641 0.2174-0.6063-0.6484-0.2601-0.2157-1.1127-0.6318-1.5117-0.3982-0.351-0.1395-0.8965-0.3857-1.3069-0.583-0.6635-0.2218-1.5779-0.4855-2.3428-0.5675-1.0061-0.3166-2.1939-0.3812-3.2927-0.1669-0.5354-0.7165-0.8875-1.09-1.2966-0.6375-0.5146-0.9663-1.3327-0.8397-2.1445 0-0.4577 0.5349-0.6048 0.527-1.0551 0.3215-0.7388 0.9934-1.2762 1.7365-1.5502 0.4792-0.4742 1.4688-0.6185 1.9008 0 0.39 0.1465 0.8471 0.2853 1.1422 0.634 0.4004 0.3164 0.6254 0.7497 0.8039 1.2139 0.528 0.4996 0.6454 1.5506-0.026 1.9863-0.1384 0.8661-0.9238 1.3853-1.4986 1.9641 0.015 0.9702-0.049 1.9479 0.1038 2.9104 0.6191 0.6789 0.2189 1.6854 0.5058 2.4677 0.5682 0.3746 0.143 1.1782 0.6136 1.5811 0.3203 0.2341 0.1073 0.667 0.4097 0.8851 0.3168 0.2374 0.2909 0.68 0.3812 0.972 0.6044 0.2292 0.4133 0.9771 0.2064 1.4246 0.5723 0.2026 1.2655 0.04 1.7566 0.442 1.974 0.1875 3.9588 0.1584 5.9391 0.1513 0.7118-0.035 1.4444 0.062 2.1423-0.016 0.4779-0.1819 0.2111-0.7198-0.038-0.9891-0.014-0.4189-0.3234-0.7184-0.5402-1.0456 0.072-0.5298-0.6274-0.7969-0.4944-1.3132-0.303-0.3141-0.599-0.699-0.5142-1.1652-0.5125-0.1891-0.464-0.7995-0.4959-1.2449-0.2045-0.3546-0.5921-0.7038-0.475-1.1831-0.5873-0.238-0.4372-0.9622-0.5319-1.4628-0.5372-0.2786-0.3934-0.966-0.4862-1.4615-0.5373-0.2762-0.3927-0.9645-0.4875-1.4587-0.5018-0.2733-0.411-0.8631-0.4585-1.3282-0.5929-0.5145-0.4042-1.3739-0.5347-2.0642-0.6501-0.6297-0.2778-1.6088-0.4988-2.3962-0.604-0.6597-0.2876-1.6163-0.482-2.4131-0.5025-0.6248-0.3735-1.464-0.3984-2.2093 0.034-0.5867-0.094-1.1496-0.3232-1.6872-0.2919-3.593-0.1195-7.2541-0.1719-10.881-0.3962-0.011-0.8023 0.031-1.1871-0.086-0.5244-0.5333-1.3147-0.3313-1.9656-0.5087-0.3771-0.4212-0.9783-0.3519-1.4781-0.4764-0.3774-0.44-0.9867-0.3752-1.4987-0.4931-0.249-0.3372-0.6752-0.4111-1.0584-0.5098-0.1752-0.5194-1.0443-0.2037-1.1387-0.7978-0.8574-0.078-1.3202-0.877-1.9637-1.3375-0.7548-0.3121-1.4693-0.8373-1.7977-1.6188-0.058-0.3891-0.2776-0.5391-0.6601-0.5207-0.062-0.012-0.1197-0.012-0.1742 0zm-11.651 30.186c-0.128 0-0.2574 0.036-0.3644 0.1066-0.2656 0.361-0.7294 0.349-1.0859 0.5678-0.2979 0.3482-0.8247 0.2939-1.1568 0.6208-0.2484 0.2836-0.4776 0.5926-0.8843 0.6473-0.5212 0.081-0.6978 0.627-1.1208 0.8477-0.4706 0.2651-1.3002 0.4508-1.2307 1.1313 0.3885 0.4491 1.0289 0.1749 1.5309 0.1636 0.7746-0.6323 1.8311-0.2824 2.7356-0.4724 0.6501-0.3786 1.43-0.4346 2.1741-0.4183 0.4881-0.086 1.1338 0.2058 1.4843-0.2422 0.2401-0.4087-0.3717-0.6068-0.3646-0.9969-0.033-0.4432-0.4944-0.6357-0.5234-1.0673-0.1071-0.5674-0.6458-0.8972-1.194-0.888z" fill="#3d444d" style="paint-order:markers stroke fill"/></g><style type="text/css">
	.st0{fill:#D73526;}
	.st1{fill:#FFFFFF;}
	.st2{fill:#832310;}
</style></svg>
