<svg   version="1.1" viewBox="0 0 128 128" xml:space="preserve" xmlns="http://www.w3.org/2000/svg"><defs></defs><g transform="matrix(.34523 0 0 .34523 -133.79 -392.57)"><path d="m629.92 1347.7c-12.027-1.5026-18.629-5.3597-21.283-12.435l-0.70957-1.8916-0.13603-13.668c-0.0747-7.5172-0.0203-15.462 0.12088-17.654l0.25682-3.9864h18.562l6e-3 30.752 0.4578 1.6481c0.25182 0.9065 0.92476 2.3416 1.4955 3.1891l1.0376 1.541 2.2606 1.1016 2.2606 1.1017 11.908 0.076 2.7025-1.3669 2.7025-1.3667 1.139-2.2779 1.139-2.2781 0.14516-16.059 0.14516-16.06h18.664l-0.13776 18.338-0.13775 18.338-1.0574 1.9816c-0.58159 1.0898-1.8696 2.8625-2.8621 3.9392l-1.8047 1.9579-6.5767 3.2392-4.3281 0.9714-4.3281 0.9711-9.1118 0.1636c-5.0115 0.09-10.649-0.029-12.529-0.2634zm81.778-0.017c-1.754-0.2415-5.1291-0.9547-7.5003-1.5845l-4.3111-1.1455-2.9783-1.6649c-5.5537-3.1044-9.182-7.7233-10.727-13.656l-0.6796-2.609v-9.1845l0.6796-2.6093c2.4252-9.311 9.8403-15.212 22.023-17.526l3.9494-0.7501 19.59-0.034 3.4169 0.6015c7.128 1.2546 12.608 3.7522 16.541 7.5389l2.4287 2.3383 1.9048 3.8113c1.0476 2.0963 1.9048 4.1977 1.9048 4.6698v0.8584h-20.819l-0.82292-1.8249c-2.8472-6.3141-11.005-9.1583-20.183-7.0373l-3.0513 0.7052-1.8091 1.244c-0.99501 0.6843-2.4625 2.1008-3.2611 3.1479l-1.452 1.9036-0.49755 2.3199c-0.27364 1.2761-0.49754 3.8104-0.49754 5.6319v3.3117l1.4526 4.9492 4.6979 4.5558 5.0115 1.8061h10.023l5.0115-1.8061 2.3371-2.3074 2.3371-2.3073 0.31875-1.4513 0.31876-1.4512h21.244l-0.37195 1.6491c-0.61442 2.7244-3.0643 7.2369-5.0267 9.2591-3.9299 4.0494-8.4839 6.2497-16.601 8.0208l-3.1892 0.6957-9.1118 0.1858-9.1118 0.1856-3.1891-0.4393zm-324.04-25.138 0.11795-24.26 55.354-0.2342v10.475l-36.219 0.2376v8.6563l33.486 0.2376v10l-16.743 0.1189-16.743 0.1188-0.12312 9.4535-0.12311 9.4534h-19.124zm55.472 23.968c0-0.1704 3.6668-7.4011 8.1485-16.068 4.4816-8.6671 9.9384-19.244 12.126-23.503 2.1877-4.2598 4.1868-8.0046 4.4423-8.3222l0.46468-0.577 23.192 0.2445 4.4464 8.6563c10.619 20.672 20.074 39.315 20.074 39.579 0 0.1567-4.478 0.2854-9.9512 0.2854h-9.9512l-3.7419-8.215-12.87 0.1206-12.87 0.1205-1.6684 3.8726-1.6684 3.8724-10.087 0.1223c-5.5478 0.067-10.087-0.017-10.087-0.1874zm44.648-17.843c0-0.3215-5.7117-13.661-7.3095-17.071-0.32591-0.6955-0.78198-1.2016-1.0135-1.1244-0.38676 0.1291-8.0569 17.443-8.0718 18.221-3e-3 0.188 3.6838 0.3418 8.1941 0.3418 4.5103 0 8.2006-0.1653 8.2006-0.3673zm36.751 17.832c-0.16702-0.1671-0.30373-11.135-0.30373-24.374v-24.07h22.208l9.5114 10.803c5.2313 5.9416 11.357 12.851 13.612 15.354l4.1003 4.5508 0.12002-15.354 0.12002-15.354h18.211v48.748h-20.9l-9.482-10.55c-5.2151-5.8027-11.43-12.759-13.81-15.458-2.3805-2.6994-4.4819-4.9224-4.6698-4.9398-0.18793-0.017-0.3417 6.939-0.3417 15.458v15.49h-9.0359c-4.9697 0-9.1725-0.136-9.3396-0.3037z" fill="#3d444d" /></g></svg>
