<svg   version="1.1" viewBox="0 0 128 128" xml:space="preserve" xmlns="http://www.w3.org/2000/svg"><g transform="matrix(.33518 0 0 .33518 -83.667 -296.67)"><path d="m249.62 1076.1v-82.582h381.89v165.16h-381.89zm35.45 13.696v-7.6539h14.442l0.23173 7.4524 0.23173 7.4525 10.905 0.4769-0.21589-19.575-0.2159-19.575-10.817-0.475-0.23112 7.8915-0.23112 7.8914h-13.696l-0.23112-7.8914-0.23112-7.8915-5.4087 0.2375c-3.7184 0.1632-5.3835 0.5523-5.3281 1.2447 0.0442 0.5539 0.1349 9.3458 0.20128 19.538l0.12089 18.53h10.474zm57.046 3.8269-0.24543-3.8269-7.8553-0.2305-7.8553-0.2306v-7.9983h15.308v-7.1906l-14.905-0.4635-0.24543-3.8269-0.24543-3.827h16.202v-8.0957l-13.495 0.2208-13.495 0.2207-0.21712 18.513c-0.11936 10.182-0.0402 18.974 0.17601 19.538 0.29628 0.7719 3.6877 1.0245 13.756 1.0245h13.363zm13.854-15.912v-19.739h-5.1826c-4.2427 0-5.2569 0.2558-5.5922 1.41-0.555 1.9103-0.5655 33.073-0.0122 35.852l0.44117 2.2156h10.346v-19.739zm28.766 18.846c9.391-1.6354 14.611-8.0448 14.692-18.04 0.0569-7.0107-1.2544-10.78-5.0826-14.608-4.3706-4.3706-7.3956-5.1677-21.658-5.7065l-11.884-0.449v39.697h9.4007c5.1704 0 11.709-0.4021 14.531-0.8934zm-12.652-18.958v-11.795l4.5852 0.4733c7.414 0.7652 11.013 4.6492 11.026 11.898 0.0122 6.6283-4.876 11.218-11.946 11.218h-3.6656zm55.434 16.025-0.24543-3.8269-7.8553-0.2305-7.8553-0.2306v-7.9983h15.308v-7.2511h-15.308v-8.0567h16.113v-8.0958l-26.99 0.4416-0.21438 18.52c-0.11784 10.186-0.0387 18.978 0.17601 19.538 0.29293 0.7634 3.7309 1.0179 13.754 1.0179h13.363zm12.899-10.234-0.25335-14.061 1.0593 2.0265c0.58261 1.1146 2.6191 5.9013 4.5255 10.637 1.9064 4.7358 4.1508 10.061 4.9874 11.833l1.5213 3.2227 14.897 0.4635v-39.538h-8.8244l-0.22046 13.828-0.22046 13.828-2.7739-6.3753c-1.5256-3.5064-4.3355-9.743-6.2442-13.859l-3.4703-7.4838-14.043 0.4652-0.24361 17.725c-0.13398 9.7486-0.049 18.54 0.1888 19.538l0.43243 1.8127h8.9356zm42.679 6.2058 0.23173-7.4524h13.576l0.23173 7.4524 0.23173 7.4525 10.877 0.4763v-39.625l-10.877 0.4762-0.4592 15.523h-13.584l-0.2296-7.7659-0.2296-7.766-10.877-0.4762v39.625l5.4383-0.2382 5.4383-0.2381zm38.08 4.8341c1.5817-4.9104 1.8404-5.0355 10.422-5.0355h7.8507l1.6742 4.0284 1.6741 4.0284h21.843v-39.552l-10.877 0.4763-0.80566 37.478-6.6214-16.725c-3.6418-9.1987-6.9864-17.722-7.4325-18.94l-0.81117-2.2156h-13.628l-0.54674 1.8128c-0.30086 0.997-1.0242 2.9004-1.6079 4.2298-3.3501 7.6309-12.456 31.181-12.456 32.214 0 0.9652 1.0869 1.2219 5.1744 1.2219h5.1744zm4.7915-12.68c0-0.5841 4.0755-11.918 4.6631-12.968 0.59464-1.0626 1.2936 0.06 3.2849 5.2745 1.3913 3.6433 2.315 6.9714 2.0528 7.3957-0.3666 0.5931-10.001 0.8804-10.001 0.2981zm52.046 1.4011-0.49634-14.301 1.1646 2.417c0.64056 1.3294 3.0183 6.949 5.2839 12.488 2.2656 5.539 4.4559 10.887 4.8675 11.884l0.74836 1.8128h15.371l-0.21559-19.538-0.2159-19.538h-8.8624l0.29294 14.099c0.16108 7.7546 0.11784 13.918-0.0959 13.696-0.21376-0.2217-3.0261-6.3849-6.2498-13.696-3.2237-7.3115-6.2623-13.568-6.7525-13.903-0.4902-0.3349-3.7917-0.5162-7.3367-0.4028l-6.4454 0.2061-0.21559 19.538-0.21589 19.538h9.87z" fill="#3d444d" /></g></svg>
