<svg   version="1.1" viewBox="0 0 128 128" xml:space="preserve" xmlns="http://www.w3.org/2000/svg"><defs><style>.cls-1{fill:#141e8c;}.cls-2{fill:#fff;}</style></defs><g transform="matrix(.36691 0 0 .36691 79.858 -441)"><path d="m-217.65 1404.8v-10.071h348.86v20.142h-348.86zm32.227-43.137v-23.398l12.488 0.4708 0.40283 10.584 0.40283 10.584 6.4555-10.584 6.4554-10.584 7.8224-0.2303 7.8224-0.2302 0.22442 11.107 0.22442 11.107 3.2227-5.0947c1.7725-2.8018 4.9324-7.787 7.022-11.078l3.7993-5.9835h45.979v12.085h-40.132l-5.4492 9.4665c-2.9971 5.2068-7.4726 12.998-9.9456 17.314l-4.4964 7.8468h-12.488l-0.0122-13.092-0.0122-13.092-17.059 26.184h-12.725zm65.26 9.299v-14.099h34.644v9.6681h-20.142v6.4455h24.976v12.085h-39.478zm45.923 0v-14.099h23.248l1.6699 2.123 1.6698 2.1228v-4.2458h13.696v28.199h-13.34l-12.844-21.89-0.44823 21.89h-13.651zm46.729 8.2439v-5.8556l8.3009-8.2726 8.3009-8.2725 17.569 0.4628-7.5125 7.8554-7.5125 7.855h21.138v12.085h-40.284zm46.729-8.2439v-14.099h35.45v9.6681h-21.753v6.4455h25.782v12.085h-39.478zm46.729 0v-14.099h13.696v16.114h20.142v12.085h-33.838zm25.72-19.677c-4.8308-4.8308-2.2253-12.583 4.5338-13.49 8.3566-1.1209 12.533 10.842 5.1228 14.674-3.6541 1.8895-6.9919 1.4802-9.6566-1.1845zm9.487-0.4659c4.7115-3.3 1.955-11.585-3.8781-11.656-3.4304-0.042-6.3526 2.8217-6.3526 6.2249 0 5.5226 5.7454 8.5723 10.231 5.4307zm-7.8137-5.2359v-4.0283h3.248c3.514 0 4.9159 1.5548 3.2316 3.5843-0.70508 0.8495-0.7211 1.5776-0.06181 2.8096 1.2085 2.2582-0.79513 2.3051-2.2025 0.051-0.55347-0.8862-1.3658-1.6113-1.8051-1.6113-0.43937 0-0.79884 0.7251-0.79884 1.6113s-0.36258 1.6115-0.8057 1.6115c-0.44312 0-0.80566-1.8129-0.80566-4.0285zm4.834-1.6113c0-0.4431-0.72512-0.8057-1.6114-0.8057s-1.6113 0.3626-1.6113 0.8057 0.72509 0.8057 1.6113 0.8057 1.6114-0.3626 1.6114-0.8057zm-172.41 0.4028v-6.0425h13.357l2.9894 5.5347c1.6442 3.044 2.9894 5.7631 2.9894 6.0426 0 0.2802-4.3506 0.5079-9.6681 0.5079h-9.6681zm26.753 0.2013 0.2366-5.8411 6.6468-0.2342 6.6468-0.2338v12.15h-13.767zm21.587-0.2013v-6.0425h38.672v12.085h-38.672zm45.118-0.015v-6.0571l38.27 0.4318 0.2366 5.8411 0.2366 5.8412h-38.743zm46.729 0.015v-6.0425h13.696v12.085h-13.696z" fill="#3d444d" /></g><style type="text/css">
	.st0{fill:#D73526;}
	.st1{fill:#FFFFFF;}
	.st2{fill:#832310;}
</style></svg>
