<svg width="128mm" height="128mm" version="1.1" viewBox="0 0 128 128" xml:space="preserve" xmlns="http://www.w3.org/2000/svg"><defs><style>.cls-1{fill:#141e8c;}.cls-2{fill:#fff;}</style></defs><g transform="matrix(.45338 0 0 .45338 29.404 -1025.5)"><path d="m59.363 2290.1c-7.3501 0.7872-122.6 52.421-123.9 55.75-2.0692 5.3026 6.605 20.897 9.3015 26.094 3.5933-3.2653 7.9341-3.8867 8.9828 7.4413 0.33684 3.6382 3.2458 10.708 6.2301 17.334 2.9843 6.6261 5.8766 12.047 6.4272 12.047 2.2093 0 96.451-43.014 98.339-44.884 1.7589-1.7423-4.5774-66.548-5.0116-73.696-0.0052-0.084-0.12987-0.1113-0.36696-0.086zm10.06 92.249c-3.2408-0.082-22.834 7.5675-45.526 17.838-24.205 10.955-45.308 19.918-46.896 19.918s-2.8862 1.4438-2.8862 3.2087c0 3.5119 9.9162 21.029 16.011 28.282 3.4542 4.1113 7.9201 2.4613 45.241-16.714 22.775-11.702 41.782-21.572 42.239-21.934 1.2916-1.0233-5.5751-28.006-7.7561-30.478-0.06678-0.076-0.21017-0.1154-0.42622-0.1209zm16.152 43.863-14.244 7.2135c-7.8341 3.9673-26.181 13.671-40.772 21.563l-26.528 14.35 13.412 11.894c15.998 14.188 38.915 26.34 58.87 31.218 22.28 5.4457 51.092 4.6994 77.81-2.0154 9.4328-2.3707 19.876-4.321 27.307-5.4033l0.42456 1.7459c0.58569 2.4089 2.89 3.59 5.1666 2.6484l8.6711-3.5865c2.2766-0.9416 3.638-3.6391 3.0524-6.048l-0.22679-0.9332c6.7688-2.8013 15.956-5.5468 18.953-8.7722-2.0939-5.9547-6.026-13.047-11.736-17.766-3.1309 0.7117-6.8452 1.6138-12.799 4.0472l-0.26099-1.5369c-0.41513-2.4446-2.89-3.5903-5.1666-2.6487l-8.6711 3.5868c-2.2766 0.9416-3.6378 3.639-3.0521 6.0479l0.0521 0.2143c-11.831 1.1775-32.655-2.1238-43.875-7.8925-15.466-7.9522-34.402-25.495-41.15-38.124z" fill="#f0f6fc" stroke-width="2.8236"/></g><style type="text/css">
	.st0{fill:#D73526;}
	.st1{fill:#FFFFFF;}
	.st2{fill:#832310;}
</style></svg>
