<svg width="128mm" height="128mm" version="1.1" viewBox="0 0 128 128" xml:space="preserve" xmlns="http://www.w3.org/2000/svg"><defs><style>.cls-1{fill:#141e8c;}.cls-2{fill:#fff;}</style></defs><g transform="translate(2026.1 987.92)"><path d="m-2026.1-987.92v98.013h128v-98.013zm82.701 58.2h17.221c2.563 0 4.6265 2.0634 4.6265 4.6265v3.4271c0 2.5631-2.0635 4.6265-4.6265 4.6265h-17.221c-2.555 0-4.6122-2.0506-4.6253-4.6023-0.1666 1e-3 -0.34 5e-3 -0.5255 0.0165-1.0457 0.0629-2.2215 0.35772-2.8626 0.88268-2.4255 1.9861-3.0692 4.2167-4.9567 6.3654 1.7016 0.24294 3.4521 0.57949 4.9893 1.248 5.2643 2.2894 7.5659 5.8037 11.87 7.8074 2.8035 1.3051 6.5696 1.3947 8.5685 1.3328v-0.0821c0-2.5631 2.0634-4.6265 4.6265-4.6265h17.221c2.5631 0 4.6265 2.0634 4.6265 4.6265v3.4271c0 2.5631-2.0634 4.6265-4.6265 4.6265h-17.221c-2.5631 0-4.6265-2.0634-4.6265-4.6265v-0.0824c-2.2824 0.0978-6.375-0.0183-9.9287-1.6727-5.1293-2.3878-7.3881-5.8569-11.795-7.7736-1.5466-0.67259-4.0859-1.0984-6.1667-1.2902-1.2652-0.11661-2.305-0.15729-2.9682-0.17387v0.99703c0 2.5631-2.0634 4.6265-4.6265 4.6265h-17.221c-2.5631 0-4.6265-2.0634-4.6265-4.6265v-3.4271c0-2.5631 2.0634-4.6265 4.6265-4.6265h17.221c2.2699 0 4.1446 1.6195 4.5446 3.77 0.7381-0.0988 2.0043-0.39415 2.8623-1.2822 1.4321-1.4823 2.2827-4.344 5.5651-7.0318 1.5029-1.2307 3.3101-1.5219 4.7111-1.6062 0.2519-0.0151 0.4895-0.02 0.7183-0.021v-0.22855c0-2.5631 2.0633-4.6265 4.6265-4.6265zm0.5741 2.4418c-1.0776 0-1.945 0.86757-1.945 1.9451v3.9063c0 1.0776 0.8674 1.9452 1.945 1.9452h16.072c1.0776 0 1.9452-0.86757 1.9452-1.9452v-3.9063c0-1.0776-0.8676-1.9451-1.9452-1.9451zm-40.249 11.026c-1.0776 0-1.9452 0.86757-1.9452 1.9451v3.9063c0 1.0776 0.8676 1.9451 1.9452 1.9451h16.072c1.0775 0 1.9451-0.86758 1.9451-1.9451v-3.9063c0-1.0776-0.8676-1.9451-1.9451-1.9451zm57.333 9.9957c-1.0776 0-1.945 0.86758-1.945 1.9451v3.9063c0 1.0776 0.8674 1.9451 1.945 1.9451h16.072c1.0776 0 1.9451-0.86757 1.9451-1.9451v-3.9063c0-1.0776-0.8675-1.9451-1.9451-1.9451zm-56.361 21.084v1.9371h2.0712v4.8758c-1.0005-0.8634-2.3907-1.1514-3.6799-0.98415-1.8152 0.2116-3.4722 1.4059-4.2559 3.0561-0.8754 1.7659-0.9479 3.8921-0.2823 5.7383 0.528 1.4273 1.6556 2.6423 3.0928 3.1753 1.1756 0.44372 2.5035 0.48623 3.7051 0.12071 0.5267-0.18092 1.0124-0.47693 1.4202-0.85573v0.74638c1.7358-1e-5 3.4715 0 5.2073 0v-1.9371h-1.9416v-15.873zm69.476 0.96219c-0.2844-2.8e-4 -0.5687 2e-3 -0.8531 4e-3 -2.0476-2.9e-4 -3.4097-8.8e-4 -5.4572-1e-3v1.8225h2.2512v13.927h-2.5083v1.8219c2.6919-0.0115 4.9561 0.0246 7.6476-0.0236 1.8574-0.0941 3.7702-0.58093 5.2373-1.7726 1.4664-1.218 2.2758-3.0739 2.5209-4.9353 0.2809-1.9516 0.2228-3.9709-0.3025-5.8772-0.413-1.4362-1.289-2.7652-2.5587-3.5795-1.5044-1.0033-3.3439-1.3371-5.124-1.3746-0.2843-8e-3 -0.5687-0.0103-0.8532-0.0106zm-32.562 2e-3c-1.9733 1e-3 -3.9467 1e-3 -5.9201 5.9e-4v1.8225h2.2937v13.927h-2.2937v1.8218h7.0727v-1.8218h-1.6375v-5.5863c0.8787 0.0161 1.7736-0.0636 2.6286 0.0863 1.7527 0.46904 2.5138 1.0509 2.7595 2.3874 0.1445 0.99467 0.069 2.5939 0.4382 3.5384 0.6573 1.5902 2.5735 1.5631 4.0651 1.2992v-1.759c-0.5695 0.0184-1.2197-0.0337-1.3784-0.80589-0.3429-3.0059 0.1992-4.9497-3.1009-6.3169 1.2639-0.51963 2.3509-1.5756 2.7077-2.9184 0.3753-1.2696 0.236-2.7559-0.6121-3.8105-0.829-0.98527-2.112-1.4168-3.3399-1.6425-1.2132-0.22242-2.4532-0.22758-3.6827-0.22173zm10.377 5.9e-4v1.8225h2.567v13.927h-2.4386v1.8218h13.998c0.089-2.1979 0-2.5329 0.085-4.7308l-2.2322-0.0152c-0.2549 1.9642 0.102 2.3589-1.4146 2.3897-1.3355 0.0361-3.3919-0.0161-4.5423-0.0259h-0.3139v-5.782c0.8906 0.0185 5.8484 0.14767 5.8484 0.14767l0.042-2.453s-5.2139-0.0333-5.8908-0.0347v-4.9655c1.4851 0.02 2.1868-0.0545 3.6687 0.0653 0.6489 0.0588 1.753-0.0589 2.1134 0.53252 0.4282 0.64385 0.205 1.8047 0.5381 1.713l1.9568 0.0214c-0.091-1.8348 0.01-2.5987-0.081-4.4336zm-86.309 0.0878v2.0619h2.2347v13.281h-2.2347v2.0619h6.4198v-2.0619h-2.0115v-11.442c2.9398 4.5571 5.8795 9.1142 8.8194 13.671h1.7962v-15.511h2.2354v-2.0619h-6.6436v2.0619h2.2347v8.7158c-2.3176-3.5926-4.6352-7.1852-6.9527-10.778zm75.447 1.7346h1.1931c0.7212 0.0147 1.4554 0.0237 2.1243 0.1822 0.5141 0.12087 1.0796 0.3069 1.355 0.79741 0.2648 0.43385 0.2585 0.96391 0.2964 1.4547 0.01 0.63579-0.057 1.2426-0.283 1.8478-0.2722 0.63306-0.8931 1.0458-1.5498 1.1945-1.0245 0.28502-2.0819 0.21285-3.136 0.22537zm32.129 0h1.2171c1.0205 0.011 2.082 0.0815 3.0356 0.50086 0.7351 0.32588 1.3467 0.92528 1.6475 1.6754 0.5267 1.1956 0.5562 2.5274 0.6122 3.8067 0.038 1.5332 0 3.0579-0.2773 4.5596-0.1567 0.7601-0.4123 1.505-0.9254 2.1092-0.5904 0.70587-1.5209 1.0095-2.388 1.1397-1.1816 0.1822-1.7379 0.12597-2.9287 0.13541 0.024-0.47242 0-0.94981 0.01-1.4247zm-54.362 3.0017c-0.098-2e-3 -0.1958-8.8e-4 -0.2933 2e-3v-1.6e-4c-2.2435-0.0127-4.4254 1.43-5.2605 3.5179-0.8591 2.0143-0.7304 4.465 0.4687 6.3161 0.9231 1.3994 2.4953 2.344 4.1661 2.492 1.2738 0.13683 2.7252 0.16238 4.1037-0.312 0.4184-0.2295 1.2967-0.68731 1.5601-0.93432-0.179-0.29731-0.7576-1.332-1.0028-1.7458-0.7955 0.54457-1.0814 0.58196-1.764 0.79226-1.0695 0.29132-2.0503 0.27399-2.9974-0.0253-0.6204-0.24756-1.0985-0.71848-1.2701-1.334-0.2615-0.82473-0.2912-1.6981-0.2999-2.5564 2.609 6e-3 5.2184 5.9e-4 7.8275 2e-3 0.019-1.5611-0.3299-3.2019-1.352-4.4249-0.9372-1.1515-2.418-1.7629-3.8861-1.7901zm-28.082 2e-3c-0.1039 3e-4 -0.2079 2e-3 -0.3118 5e-3 -1.9498 0.0517-3.901 1.0605-4.9128 2.756-1.0509 1.7138-1.1923 3.8928-0.5885 5.7874 0.5324 1.5797 1.7875 2.922 3.3788 3.4565 1.3781 0.48498 2.9073 0.47165 4.3064 0.081 1.7531-0.53548 3.2279-1.9432 3.776-3.7014 0.7053-2.0523 0.4428-4.4701-0.8657-6.2286-1.0489-1.3648-2.7661-2.1243-4.4707-2.1504-0.1038-5e-3 -0.2077-6e-3 -0.3117-6e-3zm-0.039 1.8843c0.7125-6e-3 1.5401 0.186 1.9236 0.84769 0.5151 0.84155 0.5852 1.8638 0.6293 2.8051 0.042 1.2003 0.01 2.4533-0.3942 3.5833-0.2121 0.6059-0.7019 1.1312-1.3455 1.2654-0.6628 0.14247-1.379 0.14793-2.0231-0.0813-0.7028-0.2684-1.039-1.0233-1.1934-1.7095-0.232-0.98558-0.2447-1.9813-0.2148-2.9855 0.045-0.99276 0.1259-2.07 0.7016-2.9264 0.3635-0.5642 1.0583-0.78142 1.6991-0.7912 0.072-2e-3 0.1449-5e-3 0.2174-8e-3zm27.891 0c0.5648-0.0137 1.2313 0.17661 1.468 0.74516 0.2683 0.51543 0.3582 1.1 0.4067 1.6727h-4.102c0.095-0.70391 0.2977-1.4631 0.8443-1.9724 0.3612-0.356 0.8975-0.43749 1.383-0.44543zm-14.631 0.0377c0.8681-0.0274 1.7945 0.40485 2.1645 1.223 0.5682 1.1091 0.5994 2.4138 0.5469 3.6207-0.067 1.0832-0.272 2.3192-1.1194 3.1056-0.5355 0.52372-1.3307 0.63414-2.0462 0.55281-0.4893-0.0433-0.98-0.25494-1.2574-0.677-0.4606-0.66983-0.5823-1.5024-0.6697-2.293-0.07-1.0716-0.068-2.1551 0.087-3.2195 0.1245-0.70682 0.351-1.4654 0.9233-1.9397 0.3862-0.30561 0.8948-0.36287 1.3709-0.37288zm22.819 1.8318v2.8369h6.5476v-2.8369z" fill="#df5c51" stroke-linecap="round" stroke-width="2.3292" style="paint-order:markers stroke fill"/></g><style type="text/css">
	.st0{fill:#D73526;}
	.st1{fill:#FFFFFF;}
	.st2{fill:#832310;}
</style></svg>
