<svg width="128mm" height="128mm" version="1.1" viewBox="0 0 128 128" xml:space="preserve" xmlns="http://www.w3.org/2000/svg"><g transform="translate(-41,-84.5)"><path d="m41.007 155.84 0.0071-38.556 14.873-14.673h113.11v76.881l-14.647 14.904h-113.35zm86.159 28.881c0-0.51328 1.4049-5.7683 3.122-11.678 1.7171-5.9095 3.1219-11.218 3.1219-11.796 0-0.57844 1.5122-6.3517 3.3604-12.829 1.8482-6.4778 3.5078-12.41 3.6879-13.183 0.31275-1.3418 0.15268-1.4049-3.5695-1.4049h-3.897l-2.9142 10.459c-1.6028 5.7522-3.0632 11.442-3.2454 12.644-0.60557 3.9953-1.6038 6.3233-2.6249 6.1221-0.9546-0.18809-3.4775-7.6222-4.1966-12.366-0.18219-1.2019-1.2191-5.4868-2.3042-9.5219l-1.9729-7.3366h-3.9618c-2.179 0-3.9618 0.10312-3.9618 0.22891 0 0.12578 1.2733 4.6917 2.8296 10.146 1.5562 5.4546 2.9766 10.901 3.1563 12.103 0.17983 1.2019 0.57119 3.0283 0.86991 4.0585 0.29874 1.0303 0.99354 3.4888 1.544 5.4634l1.0009 3.5902h3.1045c1.7075 0 3.1003 0.21074 3.0952 0.4683-5e-3 0.25756-0.70839 2.7161-1.5628 5.4634-0.85438 2.7473-1.7162 6.1893-1.9151 7.6488l-0.3617 2.6537h3.7976c2.9534 0 3.7977-0.20744 3.7977-0.93322zm-49.951-23.047v-7.7463l8.8976-0.21475c10.166-0.24524 11.785-0.82337 14.809-5.2867 2.5145-3.7113 3.3602-6.7855 3.3282-12.099-0.0448-7.4478-2.9095-12.606-8.2857-14.918-2.7549-1.1851-4.2405-1.3158-14.962-1.3158h-11.904v49.327h8.1171zm0-24.722v-9.9903l6.4 9e-3c3.52 5e-3 7.029 0.17723 7.7978 0.38318 2.0924 0.56081 3.9858 4.1382 4.357 8.2323 0.40407 4.4561-1.615 9.8704-4.0221 10.786-0.82596 0.31408-4.4337 0.571-8.0172 0.571h-6.5154z" stroke-width=".62439"/></g></svg>
