<svg width="128mm" height="128mm" version="1.1" viewBox="0 0 128 128" xml:space="preserve" xmlns="http://www.w3.org/2000/svg"><defs><style>.cls-1{fill:#141e8c;}.cls-2{fill:#fff;}</style></defs><g transform="matrix(.5215 0 0 .5215 499.78 -931.47)"><path d="m-854.15 2011.9c-2.7802-0.2036-7.5379-0.7432-10.113-1.1463-34.83-5.4532-65.318-27.509-81.677-59.085-12.727-24.566-15.813-53.329-8.6118-80.246 1.4971-5.5954 3.8355-12.157 5.927-16.632l0.78001-1.6686 0.12219 0.8833c0.067 0.486 0.26027 2.3411 0.42907 4.1225 0.37756 3.9845 1.4444 11.533 2.2611 15.999 6.0928 33.318 20.342 64.561 41.529 91.061 11.267 14.092 24.906 27.191 39.169 37.619 2.1847 1.5971 10.901 7.4994 13.246 8.9695 0.30962 0.1933 0.15636 0.2313-0.90304 0.2106-0.70179 0-1.6735-0.052-2.1594-0.086zm34.943-0.8871c10.174-6.4777 18.585-12.822 27.688-20.885 3.4759-3.0784 12.829-12.411 15.92-15.884 26.898-30.227 44.007-66.35 50.116-105.81 0.54574-3.5254 1.4061-10.716 1.5856-13.251 0.20227-2.8578 0.22609-2.8788 1.1101-0.9814 4.9049 10.53 8.2528 23.162 9.5217 35.924 0.42009 4.2257 0.48077 15.623 0.1039 19.532-1.4428 14.971-4.8499 27.28-11.03 39.851-8.9698 18.245-22.078 33.117-39.074 44.33-16.343 10.783-35.668 17.139-55.058 18.108l-2.552 0.1278zm-31.998-17.956c-23.365-16.049-39.413-39.011-46.016-65.842-2.2738-9.2392-3.1499-16.688-3.1499-26.783 0-10.244 0.87148-17.537 3.2475-27.177 2.9502-11.97 8.1964-23.87 15.194-34.463 7.4535-11.284 17.202-21.371 28.444-29.432 2.3535-1.6872 5.6702-3.8553 5.7604-3.7649 0.0311 0.035-0.99496 2.2137-2.2812 4.8488-2.8901 5.9209-4.2488 8.9893-6.5977 14.901-12.744 32.073-17.136 67.163-12.74 101.79 2.7627 21.76 9.2804 43.7 18.743 63.092 1.1797 2.4176 2.145 4.4273 2.145 4.4659 0 0.2072-0.51898-0.1001-2.7483-1.6309zm29.874-1.7836c3.6143-7.5219 6.6306-14.719 9.1761-21.896 13.51-38.088 15.373-80.2 5.2858-119.49-3.5102-13.674-8.8449-27.972-15.096-40.46-0.97873-1.9551-1.738-3.5964-1.6873-3.6472 0.0507-0.052 1.2914 0.7104 2.757 1.6914 13.933 9.3255 25.506 21.508 34.138 35.938 2.0326 3.3976 5.2307 9.7034 6.7703 13.349 8.8844 21.036 11.131 44.018 6.4991 66.491-3.7168 18.033-11.674 34.392-23.9 49.134-2.5158 3.0338-10.519 11.012-13.64 13.599-3.8388 3.1809-11.219 8.584-11.726 8.584-0.0863 0 0.55392-1.4798 1.4229-3.2882z" fill="#f0f6fc" stroke-width=".19631"/></g><style type="text/css">
	.st0{fill:#D73526;}
	.st1{fill:#FFFFFF;}
	.st2{fill:#832310;}
</style></svg>
