<svg width="128mm" height="128mm" version="1.1" viewBox="0 0 128 128" xml:space="preserve" xmlns="http://www.w3.org/2000/svg"><defs><style>.cls-1{fill:#141e8c;}.cls-2{fill:#fff;}</style></defs><g transform="matrix(.33518 0 0 .33518 -130.32 -312.44)"><path d="m388.83 1123.1v-63.648h381.89v127.3h-381.89zm39.835 26.968c6.7373-1.7548 12.063-5.8887 13.673-10.613 3.368-9.8847-0.38575-15.936-14.029-22.617-12.788-6.2621-14.515-8.2228-9.904-11.243 2.7288-1.7872 11.079-1.7342 16.349 0.1036 1.994 0.6953 3.8974 1.2695 4.2298 1.2759 0.33234 0.01 0.60425-2.3087 0.60425-5.1448v-5.1565l-4.021-0.9646c-6.8692-1.6479-18.234-1.2858-23.554 0.7506-11.105 4.2508-14.625 16.173-7.2118 24.423 2.0223 2.2505 5.136 4.282 9.8107 6.401 12.001 5.4397 12.488 5.7831 12.488 8.8014 0 2.0477-0.47409 2.9178-2.0142 3.697-2.6897 1.3607-10.556 1.2895-16.516-0.1495-7.1364-1.7232-6.8482-1.8931-6.8482 4.0375 0 5.905-0.19984 5.7086 6.8482 6.7309 7.6942 1.1161 14.998 0.9952 20.096-0.3326zm313.49 0c6.3242-1.618 10.818-4.7922 13.06-9.2253 3.1781-6.2834 1.973-13.023-3.1869-17.822-1.4598-1.3578-6.8675-4.5945-12.017-7.1925-5.1496-2.5982-9.5896-5.3146-9.8666-6.0366-0.68959-1.797 0.72345-4.1828 2.9138-4.9195 3.7355-1.2566 13.105-0.3386 18.783 1.8402 0.93428 0.3588 1.1581-0.5736 1.1581-4.8241 0-6.1802 0.41961-5.8997-10.309-6.8897-10.66-0.9837-17.102 0.2975-22.606 4.4954-2.9155 2.2237-5.7135 7.4507-5.7348 10.713-0.0524 7.9964 4.8146 13.453 16.494 18.492 4.4312 1.9118 8.5284 3.85 9.105 4.3072 1.7431 1.3821 0.83396 5.6294-1.4511 6.7793-2.6861 1.3517-9.7595 1.2819-15.711-0.155-7.16-1.7289-6.8482-1.9255-6.8482 4.3209v5.5455l5.4383 0.7905c8.3254 1.2101 15.487 1.1345 20.778-0.2193zm-275.36-27.171 0.21215-27.192h-16.135v54.844l15.711-0.4611zm52.962 21.955v-5.2369l-24.573-0.4446v-12.043h20.948v-9.6681h-21.018l0.23672-5.8412 0.23673-5.8411 23.767-0.4458v-9.625h-40.284v26.856c0 14.771 0.2479 27.104 0.55087 27.407 0.30299 0.303 9.4574 0.454 20.343 0.3357l19.792-0.2153zm19.925-12.176 0.21684-17.815 5.9346 14.391c3.264 7.9151 6.5973 15.932 7.4072 17.815l1.4726 3.4241h9.5603l1.798-4.2298c0.98892-2.3264 4.3872-10.184 7.5517-17.462l5.7537-13.232 0.40283 17.26 0.40284 17.26 14.905 0.4634v-54.846h-19.026l-6.802 16.103c-3.7411 8.8565-6.9832 16.107-7.2048 16.113-0.22156 0.01-3.3033-7.2404-6.8482-16.102l-6.4454-16.112-20.464-1e-3 -0.0592 26.837c-0.0326 14.76 0.19092 27.087 0.49666 27.393 0.30571 0.3057 2.8451 0.5559 5.643 0.5559h5.0872l0.21684-17.815zm107.77 12.176v-5.6397h-24.17v-12.085h20.948v-9.6681h-20.948v-12.085h24.17v-9.668h-40.284v26.856c0 14.771 0.24172 27.098 0.53712 27.393 0.29541 0.2954 9.3592 0.5371 20.142 0.5371h19.605zm20.142-12.047 0.40284-17.284 5.2369 9.6293c2.8803 5.2962 6.2426 11.442 7.4718 13.658 1.2292 2.2157 3.0298 5.5822 4.0013 7.4811 0.97153 1.8989 2.5037 3.637 3.4048 3.8625 0.90113 0.2256 4.9014 0.3033 8.8895 0.1729l7.2511-0.2369 0.42448-54.383h-11.268l-0.21772 16.718-0.21773 16.718-18.307-33.436h-18.351v26.856c0 14.771 0.25703 27.113 0.57119 27.427 0.31416 0.3142 2.7614 0.4652 5.4383 0.3357l4.8671-0.2354z" fill="#f0f6fc" stroke-width=".80567"/></g><style type="text/css">
	.st0{fill:#D73526;}
	.st1{fill:#FFFFFF;}
	.st2{fill:#832310;}
</style></svg>
