<svg width="128mm" height="128mm" version="1.1" viewBox="0 0 128 128" xml:space="preserve" xmlns="http://www.w3.org/2000/svg"><g transform="translate(231.15 -72.71)"><g transform="matrix(1.0732 0 0 1.0732 -94.472 -24.342)"><path d="m-58.955 201.36c-0.10011-0.1038-2.1317-0.17348-4.5146-0.15485-14.782 0.11559-28.589-2.8916-41.54-9.0477-5.8425-2.7772-12.062-6.6465-13.797-8.5841-0.9819-1.0963-1.0049-1.171-1.2539-4.0687-0.32895-3.8282-0.26109-4.1005 0.63911-2.5644 0.40046 0.68333 1.4385 2.1364 2.3068 3.229 1.1503 1.4475 1.839 2.6667 2.538 4.493 0.52765 1.3785 1.1252 2.5701 1.328 2.6479 0.48132 0.1847 0.49535 0.24674-0.44264-1.9575-0.44619-1.0485-0.76663-1.951-0.7121-2.0055 0.0545-0.0545 0.74294 0.55276 1.5298 1.3495 0.78686 0.79676 1.551 1.4487 1.6981 1.4487s-0.64414-0.92273-1.7583-2.0505c-1.775-1.7968-2.078-2.247-2.4484-3.638-0.49896-1.8736-0.85813-6.2194-0.51356-6.2139 0.13069 2e-3 0.58338 0.62717 1.006 1.3891 0.4226 0.76189 0.81533 1.2489 0.87271 1.0822 0.0574-0.16668-0.30987-1.0504-0.81613-1.9638l-0.92047-1.6608 0.48484-1.276c0.58431-1.5378 1.6755-3.4424 2.2412-3.9119 0.35109-0.29138 0.41212-0.25887 0.41212 0.21953 0 0.30886 0.13232 0.56156 0.29403 0.56156 0.1905 0 0.23521-0.31354 0.12698-0.89045-0.1498-0.79849-0.0562-0.99056 0.90583-1.8597 0.59008-0.5331 1.8897-1.4929 2.8881-2.1328 0.99836-0.63994 1.9056-1.3097 2.016-1.4884 0.13724-0.22205 0.091-0.25707-0.14595-0.1106-0.27245 0.16838-0.31157-3e-3 -0.18255-0.79761 0.0903-0.55655 0.31156-1.103 0.49166-1.2143 0.39873-0.24642 1.8679-0.44935 5.4684-0.75532 1.5039-0.12781 2.8037-0.30166 2.8884-0.38635 0.25142-0.25142-4.1519-0.16489-6.1253 0.12037-1.004 0.14513-1.8717 0.21769-1.9281 0.16125-0.0564-0.0565 0.04-0.41568 0.21433-0.79828 0.30655-0.67279 0.39187-0.69565 2.5965-0.69565 1.2538 0 3.273 0.12457 4.4873 0.27682 1.9726 0.24735 2.718 0.20895 2.3861-0.12292-0.19094-0.19094-4.2513-0.66082-6.3927-0.73978-1.1272-0.0416-2.05-0.14412-2.0505-0.2279-5.5e-4 -0.0838 0.27457-0.41119 0.61137-0.7276 0.74696-0.70174 1.4926-0.71287 4.4147-0.0659 3.1384 0.69481 5.2174 1.4308 8.6651 3.0677 1.6371 0.77727 2.9737 1.3322 2.9702 1.2332-0.0035-0.099 0.04934-2.4422 0.11747-5.2071 0.26485-10.749 2.2024-19.384 6.3527-28.31l1.1071-2.3812-0.78632-1.1152c-1.0596-1.5028-1.2491-3.5059-0.47506-5.023 0.65478-1.2835 1.9519-2.4329 2.9769-2.6379 0.60694-0.12139 0.82282-0.38106 1.1595-1.3947l0.4137-1.2455 2.8893-1.0157c2.7985-0.98381 2.9393-1.0716 4.4792-2.7915 3.9124-4.3699 10.411-7.9504 16.598-9.1454 1.5955-0.30813 3.6188-0.45001 6.3162-0.44288 4.4857 0.01184 6.8734 0.41366 10.476 1.763l2.274 0.85169 1.0123-1.0245c4.5865-4.642 12.342-3.1405 15.159 2.9347 0.94796 2.0444 0.98284 5.2603 0.0817 7.5332-0.73406 1.8515-2.7899 4.0527-4.5957 4.9208-1.8208 0.87526-1.7231 1.4338 0.66599 3.8066 5.3252 5.289 5.6017 13.131 0.64772 18.369l-1.3445 1.4216 1.731 1.7753c4.1659 4.2724 7.0112 9.7944 9.1187 17.697 0.93456 3.5044 0.97635 3.8458 0.9983 8.1554 0.024 4.7071-0.21362 6.3166-1.4779 10.012-1.6274 4.7562-5.4708 10.339-8.3367 12.111-0.6748 0.41705-0.87807 0.72421-0.87807 1.3269 0 0.9083-0.93696 1.9761-1.959 2.2326-0.45424 0.11401-1.0447-0.0181-1.7697-0.396-0.68773-0.35847-1.1997-0.47907-1.3916-0.32782-0.60704 0.47842-3.5226 1.4338-5.3232 1.7443-1.8027 0.31086-1.8488 0.33866-2.0298 1.2239-0.44393 2.1706-3.0379 3.0857-4.7244 1.6667l-0.83421-0.70194-0.97203 0.58785c-1.9932 1.2054-4.8529 2.4265-7.241 3.0917-2.0346 0.56681-3.2206 0.70948-6.828 0.82139-2.4011 0.0745-4.4475 0.0505-4.5476-0.0533zm39.057-33.03c0.27236-0.10451-0.2821-2.3635-2.3852-9.7176-1.507-5.2698-2.7814-9.6228-2.832-9.6734-0.0781-0.0781-12.135 3.2924-12.274 3.4311-0.0438 0.0438 5.0683 18.411 5.323 19.124 0.0702 0.19666 2.0942-0.267 5.9596-1.3652 3.2194-0.91465 6.013-1.7243 6.2082-1.7992zm-12.653-34.964c0.69959-0.2923 0.89997-0.51022 0.7907-0.85989-0.0805-0.2576-0.38869-1.6508-0.68486-3.096-0.29618-1.4452-0.57159-2.6608-0.61203-2.7012-0.12451-0.12451-3.2124 0.72798-3.4436 0.9507-0.20469 0.19715 2.5765 6.098 2.8741 6.098 0.0762 0 0.56026-0.17619 1.0756-0.39154zm3.4103-0.9309 0.69465-0.26411-0.18316-3.2416c-0.10074-1.7829-0.20229-3.2665-0.22567-3.297-0.0501-0.0652-3.1602 0.73175-3.2696 0.83781-0.041 0.0398 0.28637 1.4001 0.7276 3.0228 0.44123 1.6228 0.80224 3.008 0.80224 3.0783 0 0.21165 0.71524 0.14464 1.454-0.13622zm-15.609-16.376c2.5611-1.1821 3.9744-3.5936 3.7913-6.469-0.41271-6.4815-9.4871-8.163-12.456-2.3082-0.88116 1.7374-0.96944 3.8245-0.2306 5.4511 0.57458 1.2649 2.5683 3.1012 3.7932 3.4937 1.4314 0.45867 3.923 0.37683 5.1025-0.1676zm-29.766-0.1397c0-0.0609 0.07758-0.31283 0.17241-0.55995 0.14886-0.38791 0.09464-0.40767-0.39688-0.14462-0.65617 0.35118-0.75431 0.81522-0.17241 0.81522 0.21828 0 0.39688-0.0498 0.39688-0.11065zm49.779-1.7839c1.3694-0.41028 3.0968-1.9289 3.6968-3.25 0.64079-1.4107 0.64333-3.9058 5e-3 -5.3064-0.64403-1.4141-2.3894-2.9437-3.7889-3.3206-4.5538-1.2262-8.8384 2.9273-7.6488 7.4149 0.94147 3.5518 4.3026 5.4906 7.7355 4.4621zm-97.209 67.486c-1.5294-1.3109-1.6718-1.5658-1.907-3.4146l-0.18516-1.4552 1.3517 2.1712c1.1824 1.8992 1.8681 2.7687 1.8681 2.369 0-0.0667-0.42929-0.75837-0.95397-1.537-1.5777-2.3412-2.221-3.8149-2.221-5.0878 0-1.5823 0.62986-4.7632 1.2592-6.359l0.51261-1.2999 0.30774 2.3996c0.16926 1.3198 0.48639 2.906 0.70473 3.5248 0.26354 0.74695 0.42697 2.4466 0.48616 5.0559 0.049 2.1619 0.16669 4.0082 0.26145 4.103 0.23412 0.23412 0.21789 0.61365-0.0262 0.61155-0.10914-1e-3 -0.7654-0.48766-1.4584-1.0816zm4.7075-2.2855c-1.5528-1.9785-2.7861-4.3146-2.7861-5.2778 0-1.16 0.7259-3.7479 1.4986-5.3427l0.68876-1.4216 0.67846 2.4799c0.54913 2.0072 0.66772 2.9843 0.62207 5.1257-0.031 1.4552 0.10384 3.39 0.29968 4.2995 0.19584 0.90951 0.31846 1.6536 0.27248 1.6536-0.046 0-0.61926-0.68252-1.274-1.5167zm-7.9236-1.7062c-0.38025-0.62849-1.0006-2.1228-1.3785-3.3207l-0.6871-2.178 0.45563-1.8593c0.2506-1.0226 0.56162-1.9248 0.69114-2.0048 0.12953-0.08 0.24237 0.48655 0.25076 1.2591 8e-3 0.77258 0.25454 2.2381 0.54699 3.2568 0.47313 1.6479 1.0791 5.6852 0.88632 5.9052-0.0406 0.0464-0.38502-0.42984-0.76527-1.0583zm0.0288-5.4283c-0.6868-2.9224-0.60108-5.1911 0.25206-6.6714 0.84215-1.4612 3.4672-4.7858 3.7788-4.7858 0.12223 0 0.0534 0.49006-0.15296 1.089-0.20636 0.59896-0.45031 1.6408-0.54211 2.3151-0.0918 0.67435-0.49255 1.916-0.89056 2.7591-0.69251 1.4671-1.2733 3.4404-1.7682 6.0076l-0.22951 1.1906zm4.0646-0.2248c-0.18712-0.72076-0.39724-2.382-0.46694-3.6917-0.12589-2.3655-0.12089-2.3893 0.7583-3.601 1.0326-1.4232 2.527-3.1458 2.729-3.1458 0.0772 0 0.14037 1.1335 0.14037 2.5188 0 2.2132-0.0782 2.6427-0.64443 3.5396-0.35443 0.56146-0.90838 1.839-1.231 2.839s-0.66724 2.0507-0.76585 2.3349c-0.13793 0.39755-0.25774 0.21449-0.51948-0.79375zm4.3736-2.1704c-0.24954-1.1278-0.50974-2.3264-0.57821-2.6637-0.0985-0.48525 0.25813-0.99579 1.7097-2.4474 1.0088-1.0088 1.9522-1.8342 2.0963-1.8342s0.31615 0.8632 0.38222 1.9182l0.12012 1.9182-1.2817 1.9416c-0.70494 1.0679-1.3538 2.2288-1.4419 2.5797-0.27263 1.0862-0.53527 0.7177-1.0066-1.4125zm-10.611-1.2568c0.20422-2.0943 0.63911-3.9898 1.2141-5.2917 0.67127-1.5199 2.6872-3.9455 4.3457-5.2287 0.7857-0.60793 1.3786-1.1553 1.3175-1.2164-0.0611-0.0611-0.54603 0.23298-1.0777 0.65345-2.0693 1.6366-2.3523 1.7789-1.2967 0.6521 1.2666-1.352 3.6329-3.013 5.3273-3.7393 1.9696-0.84425 1.6436-0.39275-0.68691 0.95149-1.1844 0.68315-2.0883 1.3072-2.0087 1.3867 0.0796 0.0796-0.48923 0.80984-1.264 1.6228-2.2202 2.3298-3.2361 4.0969-4.4225 7.6924-1.3559 4.1093-1.6538 4.6272-1.448 2.517zm14.689-4.2382v-2.0086l1.4076-0.62251c0.77419-0.34238 2.0388-0.80996 2.8102-1.0391l1.4026-0.41653-0.16442 0.8221c-0.0904 0.45216-0.16443 0.98339-0.16443 1.1805 0 0.19713-0.46779 0.59707-1.0395 0.88875-0.57174 0.29169-1.7624 1.1319-2.6458 1.8671l-1.6063 1.3368zm-4.7625-1.0028c0-1.9951 0.0712-2.3453 0.572-2.8118 0.57315-0.53397 4.1025-2.0494 4.2975-1.8453 0.057 0.0597-0.0806 0.85806-0.30575 1.7741-0.2829 1.1507-0.58127 1.7574-0.96526 1.9628-0.30569 0.16352-1.2404 0.95023-2.0772 1.7482l-1.5214 1.4509zm-7.5459 0.87546c0.51867-1.7378 1.7746-3.5119 4.2275-5.9717 1.6124-1.617 3.0159-2.789 3.57-2.9814l0.91311-0.31697-1.0916 0.93441c-0.60041 0.51392-1.5431 1.5494-2.0949 2.3011-0.5518 0.7517-1.5175 1.8407-2.146 2.4201s-1.6901 1.7784-2.3591 2.6646c-0.75355 0.99818-1.1412 1.3596-1.0189 0.94978zm3.5771-0.21687c0-1.0145 1.2895-4.1212 1.9055-4.5909 0.33442-0.25499 1.1709-0.77178 1.8588-1.1484l1.2507-0.68483-0.63737 1.3757c-0.35055 0.75664-1.2215 1.983-1.9355 2.7252-0.71396 0.74222-1.5555 1.693-1.8701 2.1128-0.51302 0.68456-0.57202 0.70626-0.57202 0.21047zm8.9106-3.0134c0.40086-1.7929 0.70222-2.3725 1.3645-2.6243 0.85054-0.32338 5.0707-0.64739 5.0707-0.38932 0 0.1016-0.17268 0.51866-0.38373 0.92679-0.30326 0.58643-0.73329 0.83967-2.0505 1.2075-0.91674 0.256-1.9644 0.61545-2.3282 0.79878s-0.91948 0.41284-1.2348 0.51001c-0.49346 0.15206-0.55449 0.0922-0.43785-0.4295zm-4.1457-1.8228c1.075-2.079 1.661-2.436 5.3531-3.2605l0.7253-0.16198-0.84238 1.1951c-0.4633 0.65729-1.0278 1.1979-1.2545 1.2014-0.34184 5e-3 -1.5681 0.47249-3.9486 1.5047-0.29894 0.12962-0.30464 0.0468-0.0329-0.47868zm-1.8681-1.505c0.9212-1.1463 3.0195-2.8178 3.9912-3.1792 0.35894-0.13353 1.1289-0.32018 1.711-0.41477l1.0583-0.17199-0.79375 0.43037c-0.43656 0.23671-1.3295 0.86947-1.9844 1.4061-0.65485 0.53668-2.0011 1.4173-2.9917 1.9569l-1.8011 0.98108zm7.6622-0.68506c0.76909-1.2352 1.4624-1.4799 4.205-1.4842l2.4609-4e-3 -0.67451 0.88433c-0.63469 0.83212-0.77836 0.88769-2.4335 0.94127-0.96743 0.0313-2.2795 0.1542-2.9158 0.27306l-1.1568 0.21611zm-2.8637-1.2949c1.118-0.9053 3.1195-1.7869 4.411-1.943l1.2551-0.15163-0.91507 0.75223c-0.60895 0.50058-1.6628 0.93682-3.1501 1.304-2.1698 0.53565-2.2165 0.53678-1.601 0.0384zm11.355-0.45783c-0.35278-0.22799-0.35278-0.254 0-0.23416 0.21828 0.0123 0.69453 0.11765 1.0583 0.23416l0.66146 0.21183-0.66146 0.0223c-0.3638 0.0123-0.84005-0.0931-1.0583-0.23416zm-5.9-0.72629c0.83737-0.67159 2.1998-0.75408 3.9156-0.23709 1.7651 0.53181 1.0931 0.83108-1.8662 0.83108h-2.7901zm-7.5937-0.19296c0-0.19724 1.5229-0.93407 1.9051-0.92175 0.18913 6e-3 -0.0729 0.23924-0.58217 0.51808-0.93864 0.51388-1.3229 0.63114-1.3229 0.40367zm3.8365-0.93284c0.29104-0.12506 0.88635-0.22389 1.3229-0.21961 0.77402 8e-3 0.77731 0.013 0.13229 0.21961-0.3638 0.11651-0.95911 0.21534-1.3229 0.21961-0.60129 7e-3 -0.61332-0.0129-0.13229-0.21961z" fill-opacity=".65465" stroke-width=".26458"/><path d="m-38.201 197.79c-0.47295-0.28836-0.85622-0.67487-0.85172-0.85891 4e-3 -0.18404 0.52139-0.72097 1.1486-1.1932 1.0128-0.76246 1.308-0.85131 2.6375-0.79375 1.4077 0.0609 1.4971 0.10474 1.4972 0.73355 1.6e-4 0.86205-0.62517 1.7441-1.5903 2.2432-1.0294 0.53231-1.8128 0.49622-2.8414-0.1309zm13.097-4.522c-0.25466-0.14833-0.46302-0.37312-0.46302-0.49954 0-0.37247 1.8927-1.44 3.1088-1.7535 1.0318-0.26593 1.1245-0.24814 1.1245 0.21583 0 0.63273-0.48434 1.5607-1.0354 1.9838-0.51068 0.39209-2.1001 0.4231-2.7349 0.0534zm-6.6189-18.292c-0.53289-0.49484-1.213-2.5788-3.7375-11.453-1.6973-5.9664-3.0827-11.157-3.0787-11.535 4e-3 -0.37763 0.21574-0.86592 0.4704-1.0851 0.5001-0.4304 11.722-3.6627 12.694-3.6562 1.0827 7e-3 0.94606-0.39142 5.7691 16.836 1.1665 4.1665 1.7287 6.6112 1.6201 7.0441-0.20702 0.82483-0.38653 0.89537-6.92 2.7195-2.9104 0.81258-5.4884 1.5351-5.7288 1.6056-0.24041 0.0705-0.73024-0.14401-1.0885-0.47672zm6.2881-4.9668c3.2015-0.90932 5.8493-1.6777 5.8841-1.7076 0.10924-0.0938-5.2876-19.055-5.4877-19.28-0.17161-0.19341-11.488 2.8358-12.172 3.258-0.18908 0.11686 0.61872 3.3737 2.4006 9.6788 1.4771 5.2265 2.7442 9.6001 2.8157 9.7192 0.0715 0.11907 0.26686 0.16449 0.43404 0.10095 0.16718-0.0635 2.9233-0.85951 6.1248-1.7688zm-36.941 0.68927c-3.2332-1.1554-5.0594-3.6513-5.0612-6.9171-2e-3 -3.0837 1.6724-5.5228 4.7612-6.9369 2.6044-1.1923 5.67-0.524 7.7765 1.6953 1.605 1.691 1.9428 2.5804 1.9428 5.1156 0 2.5813-0.33796 3.4365-2.0661 5.228-1.8365 1.9038-4.9523 2.6729-7.3531 1.815zm12.268-50.844c-2.0545-0.55324-3.4247-1.3369-4.8773-2.7895-1.4226-1.4226-2.4894-3.4422-2.7555-5.2163-0.10426-0.69526-0.28953-1.0968-0.47352-1.0262-0.66562 0.25543-15.42 4.1184-16.03 4.197-0.36016 0.0464-0.78362 0.34375-0.94102 0.66077-0.20658 0.41607-0.39241 0.5092-0.66808 0.33478-0.21005-0.13289-0.76886-0.24345-1.2418-0.24568-0.47294-2e-3 -0.8599-0.0537-0.8599-0.1144s0.2231-0.63083 0.49578-1.267c0.56644-1.3214-0.14409-1.008 13.395-5.9097 4.8663-1.7618 6.9953-2.6565 7.276-3.0576 1.2541-1.7916 3.1339-3.4906 4.7333-4.278 1.6251-0.80003 1.9186-0.85556 4.5216-0.85556 2.4548 0 2.9594 0.0824 4.2706 0.69722 0.81783 0.38347 1.9676 1.1314 2.5549 1.6621l1.068 0.96485 4.9346-0.59999 1.6408-1.5349c2.1014-1.9658 3.8152-2.6445 6.6777-2.6445 1.844 0 2.2773 0.10312 3.9502 0.94001 2.8678 1.4347 4.5348 3.7159 5.1126 6.9967 1.1428 6.4879-5.3453 12.506-11.569 10.731-4.2573-1.2141-7.0412-4.7662-7.0992-9.058-0.0203-1.5011-0.10629-1.9116-0.37862-1.8073-0.1938 0.0742-0.57116 0.13495-0.83857 0.13495-0.434 0-0.45684 0.10634-0.21268 0.99058 0.15043 0.54483 0.22164 1.8866 0.15824 2.9818-0.2049 3.5395-2.0941 6.5112-5.1702 8.1325-2.5786 1.3591-5.0794 1.6785-7.6733 0.98002zm5.3576-3.7894c4.185-1.9078 5.272-7.0741 2.1694-10.311-1.4408-1.5031-2.6978-2.0151-4.9475-2.0151-2.2497 0-3.5067 0.51199-4.9475 2.0151-2.9482 3.0757-2.0278 8.2002 1.8171 10.116 1.7181 0.85616 4.2729 0.94037 5.9086 0.19474zm20.061-1.9063c1.26-0.34987 2.9525-1.8525 3.6834-3.2702 1.3612-2.64 0.29214-6.3279-2.303-7.9448-1.521-0.94767-3.977-1.2216-5.4436-0.60724-3.2585 1.3652-4.8354 5.2528-3.4078 8.4017 0.72543 1.6001 1.444 2.3317 3.0205 3.0751 1.4334 0.67594 2.861 0.78673 4.4505 0.34536z" stroke-width=".26458"/><path d="m-13.858 147.19c-4.7229 0.23961-7.9132 1.2561-9.8278 2.6055l2.5678 8.8082c1.9329 0.64497 4.3684 0.88887 7.1732 0.48369 8.0943-0.84003 7.4821-11.611 0.08682-11.897zm-29.96 5.5578c-9.8561 0.49891-12.221 1.591-18.498 3.9078-7.838 2.7103-6.1803 15.41 4.5418 14.554 5.9959-0.47899 12.662-3.085 17.082-5.8694 12.207-7.6908 10.987-12.253-3.1259-12.592z" fill-opacity=".6129" stroke-linecap="round" stroke-width=".42333" style="paint-order:markers stroke fill"/></g></g></svg>
