<svg width="128mm" height="128mm" version="1.1" viewBox="0 0 128 128" xml:space="preserve" xmlns="http://www.w3.org/2000/svg"><defs><style>.cls-1{fill:#141e8c;}.cls-2{fill:#fff;}</style></defs><g transform="matrix(.44854 0 0 .44852 113.25 -684.43)"><path class="cls-1" d="m-252.49 1526v285.38a348.47 348.47 0 0 1 285.37 0v-285.38zm68.444 80.5h52.601v20.186h-6.6707s-1.2394-13.61-12.846-13.61h-6.6707v21.176h2.3539a4.9919 4.9919 0 0 0 5.029-5.0292v-2.5363h6.5751v21.749h-6.5751v-2.493a4.9919 4.9919 0 0 0-5.029-5.0204h-2.3539v21.168h6.6707c11.607 0 12.846-13.611 12.846-13.611h6.6707v20.186l-52.601-0.043v-6.5752h1.5112a4.9726 4.9726 0 0 0 4.977-4.9857v-38.956a4.9726 4.9726 0 0 0-4.977-4.9768h-1.5112zm-55.502 0.043h49.943s0.39818 15.56-14.366 32.059c0 0-14.054 16.327-14.41 23.487h8.0953c11.607 0 12.803-13.61 12.803-13.61h6.6707v20.186h-51.046s-1.874-15.295 15.826-33.84c0 0 10.893-12.187 13.428-21.793l-6.0453 0.043a14.619 14.619 0 0 0-14.497 13.611h-6.4014zm114.96 0h33.128v6.5837h-1.5114a4.9726 4.9726 0 0 0-4.977 4.9772v38.956a4.9726 4.9726 0 0 0 4.977 4.9857h1.5114v6.5749h-33.128v-6.5749h1.5114a4.9824 4.9824 0 0 0 5.0291-4.9857v-38.956a4.9824 4.9824 0 0 0-5.0291-4.9772h-1.5114zm41.093 0h47.72v20.142h-6.4536a14.518 14.518 0 0 0-14.453-13.611l-6.0888-0.043c2.0902 10.14 13.428 21.793 13.428 21.793 21.658 24.415 12.898 33.84 12.898 33.84h-48.119v-20.186h6.7141s1.2481 13.611 12.855 13.611h8.0431c-0.35579-7.1599-14.358-23.487-14.358-23.487-19.745-22.191-12.186-32.059-12.186-32.059zm55.806 0h47.676v20.142h-6.4014a14.561 14.561 0 0 0-14.453-13.611l-6.0019-0.043c2.0456 10.14 13.385 21.793 13.385 21.793 21.613 24.415 12.898 33.84 12.898 33.84h-48.119v-20.186h6.6707s1.2393 13.611 12.846 13.611h8.0517c-0.35576-7.1599-14.366-23.487-14.366-23.487-19.745-22.191-12.186-32.059-12.186-32.059z" fill="#f0f6fc" stroke-width="4.4471"/></g><style type="text/css">
	.st0{fill:#D73526;}
	.st1{fill:#FFFFFF;}
	.st2{fill:#832310;}
</style></svg>
