<svg   version="1.1" viewBox="0 0 127.76 128" xml:space="preserve" xmlns="http://www.w3.org/2000/svg"><defs><style>.cls-1{fill:#141e8c;}.cls-2{fill:#fff;}</style></defs><g transform="matrix(.45612 0 0 .45612 428.09 -1239.7)"><path d="m-938.54 2718v280.11h280.11v-280.11h-140.05zm160.58 35.07c2.239 0 4.7179 0.017 7.4807 0.051l16.048 0.1969 2.3342 1.047c5.2113 2.3376 7.3024 5.7559 7.2817 11.908-0.0151 4.6637-1.3835 8.179-3.8587 9.9146-3.712 2.6033-6.6357 3.007-23.264 3.221l-15.756 0.2036-1.8448 0.9881c-4.3382 2.3231-5.3532 5.1975-5.8472 16.557l-0.35916 8.2507 22.14 0.4211 3.4484 1.7638c4.0254 2.0587 5.8382 4.7125 6.4244 9.4046 0.4894 3.9167-0.89077 8.7638-3.0778 10.811-3.7688 3.5274-8.4673 4.5687-20.749 4.5687h-8.0352l0.0724 46.603 2.4552 1.4392c3.3366 1.9558 8.7115 7.7038 10.492 11.22 4.5278 8.9406 4.5231 19.017-0.0134 27.976-3.4929 6.8975-12.359 13.396-20.239 14.835-9.9862 1.824-19.574-1.1035-26.591-8.1204-13.028-13.028-10.947-34.698 4.3439-45.229l3.2422-2.2329v-46.491h-4.5222c-13.763-0.013-19.749-3.4723-20.41-11.795-0.54998-6.9246 1.5644-10.959 6.9742-13.307 2.4975-1.0842 4.4651-1.3874 10.446-1.6118l7.3685-0.276 0.31419-9.9916c0.18146-5.7676 0.70218-11.718 1.2314-14.076 1.9948-8.8877 8.0233-17.426 15.986-22.642 6.9152-4.529 10.812-5.591 26.484-5.6053zm-31.108 141.96c-9.4138 0.2108-13.955 13.78-4.8214 19.445 1.9025 1.169 2.8593 1.3761 5.9108 1.2035 4.0064-0.2243 5.9866-1.3036 8.1086-4.4199 3.88-5.6976 0.66258-14.013-6.1299-15.842-1.0684-0.2877-2.0942-0.4089-3.068-0.3871zm-129.39 63.389h279.99v39.528h-279.99z" fill="#3d444d" /><rect x="-934.63" y="2956.3"   ry="0" fill="none" stroke="#f0f6fc" /></g><style type="text/css">
	.st0{fill:#D73526;}
	.st1{fill:#FFFFFF;}
	.st2{fill:#832310;}
</style></svg>
