<svg   version="1.1" viewBox="0 0 128 128" xml:space="preserve" xmlns="http://www.w3.org/2000/svg"><g transform="matrix(.22385 0 0 .22385 -596.38 -422.4)"><path d="m2950.2 1887c-7.6984 0-15.39 1.807-21.916 5.4824l-208.39 121.42c-13.612 7.967-21.966 22.567-21.937 38.339v242.12c0 15.769 8.3534 30.472 21.923 38.375l54.865 31.501c26.608 13.135 35.99 13.062 47.992 13.062 39.147 0 61.629-24.14 61.629-65.636v-238.93c-0.038-3.435-2.772-6.2322-6.2051-6.3484h-26.614c-3.4869 0.044-6.3014 2.8617-6.3416 6.3484v239.02c0 18.384-19.229 36.787-50.03 21.037l-56.938-33.089c-2.1138-1.0433-3.1367-3.7368-3.1367-5.8302v-242.21c0-2.0935 1.0229-4.746 3.1367-5.7757l208.29-120.81c1.5683-1.0432 4.1592-1.0432 6.3416 0l208.28 120.79c2.0455 1.0842 3.2049 3.1776 3.2049 5.7756v242.19c0 2.6184-1.0912 4.78-3.2049 5.8301l-208.33 121.35c-1.5683 1.0433-4.1596 1.0433-6.3416 0l-53.201-32.06c-1.5684-1.0502-3.6821-1.548-5.2508-0.5456-14.613 8.4439-17.19 9.5261-31.299 14.253-3.1366 1.0502-8.3529 3.1026 2.0459 8.8769l69.498 41.55c6.7509 3.6618 14.068 5.7347 21.916 5.7347 7.8348 0 15.629-2.0729 21.889-4.6914l208.31-121.35c13.616-8.0045 21.959-22.635 21.916-38.429v-242.12c0-15.769-8.3534-30.419-21.916-38.303l-208.31-121.42c-6.7084-3.6686-14.243-5.5628-21.889-5.5029zm56.802 172.07c-59.536 0-95.117 25.24-95.117 67.8 0 45.717 35.526 58.238 92.444 64.012 68.38 6.8558 73.611 16.869 73.611 30.527 0 23.634-18.8 33.576-62.659 33.576-55.349 0-67.385-13.658-71.572-41.478 0-3.1776-2.5231-5.2301-5.6598-5.2301h-27.153c-3.4979-0.015-6.3416 2.8164-6.3416 6.3143 0 35.722 18.834 77.706 110.23 77.706 65.762 0 103.82-26.268 103.82-72.528 0-45.158-30.31-57.264-94.496-65.672-64.773-8.4078-71.537-13.135-71.537-28.361 0-12.612 5.7962-29.39 53.76-29.39 42.85 0 59.038 9.4537 65.312 38.339 0.6147 2.6992 2.9616 4.652 5.7276 4.7664h27.678c1.5684 0 3.2049-1.0297 4.2279-2.073 0.9843-1.3953 1.5304-3.0524 1.5683-4.7595-4.1596-50.427-37.04-73.538-103.89-73.538z" fill="#3d444d" /></g></svg>
