<svg   version="1.1" viewBox="0 0 128 128" xml:space="preserve" xmlns="http://www.w3.org/2000/svg"><defs><style>.cls-1{fill:#141e8c;}.cls-2{fill:#fff;}</style></defs><g transform="matrix(.35836 0 0 .35836 58.937 -366.23)"><g transform="matrix(2.1647 0 0 2.1647 -168.79 1161.6)" fill="#3d444d" fill-rule="evenodd"><path id="num" d="m47.662 25.523c-1.3091 0.007943-1.0184-1.2122-0.82096-2.2785 0.86507-4.0338 4.2682-20.165 4.2682-20.165h-10.842l-4.9649 23.136c-0.37991 1.7632-0.06616 3.3408 0.90817 4.563 1.0976 1.377 2.921 2.1624 5.1343 2.212l0.01002 9.93e-4 0.01103 0.0089 21.572-0.01291 6.4504-29.924-0.97734 9.928e-4 -9.9347 0.00993s-4.4967 21.28-4.7473 22.449zm54.375 7.4084h10.842l4.9659-23.133c0.37791-1.7652 0.0622-3.3438-0.91218-4.566-1.0976-1.3741-2.921-2.1604-5.1323-2.212-0.0201-0.00894-38.303 0.00993-38.303 0.00993h-0.63752l-6.4504 29.923 10.913-0.0089s4.5659-21.264 4.8165-22.432l5.6305-5e-3c1.3091-0.0069 1.0174 1.2122 0.82196 2.2785l-4.3714 20.163 10.912-0.01092s4.5729-21.28 4.8225-22.448l6e-3 4e-3 -6e-3 -4e-3 5.6315-5e-3c1.3091-6e-3 1.0174 1.2132 0.82097 2.2785l-4.3714 20.165zm-84.305-22.454c-0.2496 1.1666-4.8205 22.447-4.8205 22.447l-10.911 0.010921 6.4474-29.924h0.63853l20.483-0.011914 0.01203 0.00596h9e-3c2.2123 0.050634 4.0356 0.83794 5.1333 2.213 0.97533 1.2232 1.2901 2.8007 0.91118 4.565l-4.9658 23.137h-10.842s3.4482-16.007 4.3404-20.162c0.19647-1.0673 0.48817-2.2855-0.82096-2.2785z"/><path d="m155.19 16h5.7238c0.05196 0.56013 0.08394 1.1223 0.08394 1.6946 0 10.109-8.0541 18.305-17.991 18.305-6.9859 0-13.027-4.0541-16.009-9.9726h7.2776l4.9184-7.6599 4.1709 7.6954h5.6169l6.2084-10.063"/><path d="m137.07 10.025-6.2806 9.9748h-5.6953c-0.05883-0.60982-0.09274-1.2257-0.09274-1.8506 0-10.024 8.0428-18.149 17.959-18.149 7.0236 0 13.092 4.0873 16.041 10.027l-7.3626 0.0131-4.8805 7.6444-4.1156-7.6595h-5.5726"/><path d="m163.44 5.7447h0.71869c0.34237 0 0.50307-0.25532 0.50307-0.55851 0-0.24734-0.12776-0.5266-0.50307-0.5266h-0.71869zm0 1.9867h-0.55897v-3.4548h1.3725c0.66279 0 0.96623 0.43085 0.96623 0.8617 0 0.40691-0.31143 0.71809-0.75062 0.79787v0.015957c0.43121 0.047872 0.58293 0.18351 0.60688 0.87766 7e-3 0.1516 0.0559 0.68617 0.13476 0.9016h-0.549c-0.13675-0.23936-0.1048-0.68617-0.14473-1.1489-0.0399-0.36702-0.35834-0.39096-0.51805-0.39096h-0.55898zm-1.9943-1.7314c0 1.4202 1.1409 2.5532 2.5603 2.5532 1.4204 0 2.5463-1.133 2.5463-2.5532 0-1.4122-1.1259-2.5532-2.5463-2.5532-1.4194 0-2.5603 1.141-2.5603 2.5532zm5.5528-0.0079787c0 1.6755-1.3395 3.008-2.9925 3.008-1.659 0-3.0075-1.3324-3.0075-3.008 0-1.6596 1.3485-2.992 3.0075-2.992 1.653 0 2.9925 1.3324 2.9925 2.992z"/></g></g><style type="text/css">
	.st0{fill:#D73526;}
	.st1{fill:#FFFFFF;}
	.st2{fill:#832310;}
</style></svg>
