<svg   fill="none" version="1.1" viewBox="0 0 128 128" xmlns="http://www.w3.org/2000/svg">
 <g transform="matrix(1.2084 0 0 1.2084 0 46.441)" clip-path="url(#clip0_10359_1525)">
  <g id="Group" clip-rule="evenodd" fill="#3d444d" fill-rule="evenodd">
   <path id="Vector" d="m39.108 5.832c-0.6225-1.2134 0.0383-2.8125 1.4752-3.5685 1.438-0.75605 3.1087-0.38719 3.7302 0.82782 0.6215 1.214-0.0383 2.8114-1.4752 3.5685-1.4369 0.7571-3.1086 0.38667-3.7302-0.82782z"/>
   <path d="m47.806 5.832c-0.6226-1.2134 0.0392-2.8125 1.4752-3.5685 1.4379-0.75605 3.1086-0.38719 3.7296 0.82782 0.6231 1.214-0.0377 2.8114-1.4747 3.5685-1.4369 0.7571-3.1076 0.38667-3.7301-0.82782z"/>
   <path d="m95.843 23.8h4.8332l5.248-14.87v-0.00105l-4.861-0.01048z"/>
   <path d="m93.978 8.9062h-4.8206l-5.222 14.92h10.29l1.0549-2.9151-5.4516-9e-3z"/>
   <path d="m81.072 16.294c0.9571-0.2861 1.6205-0.5062 2.5047-1.3581 0.8837-0.8519 1.3123-2.5359 1.0874-3.7949-0.2156-1.2166-1.4468-2.2241-3.5182-2.2272l-8.7018 0.00681-5.208 14.897h10.011c1.257 0 2.2074-0.2022 3.21-0.5873 1.002-0.3862 2.0367-1.2894 2.5166-2.9325 0.5072-1.7379-0.1252-3.4145-1.9013-4.0039zm-3.511 4.2245c-0.2502 0.1467-0.7859 0.3065-1.7906 0.3049l-3.0062-0.0031 1.2456-3.4035 2.8558-0.011c1.4897-0.0069 1.7192 1.0264 1.5729 1.785-0.1489 0.7592-0.6262 1.1799-0.8775 1.3277zm1.8238-6.3119c-0.3692 0.2971-0.7332 0.5737-1.8998 0.5968l-2.5874 0.0157 1.0347-3.249 2.6169 0.0037c0.7249 0 1.2001 0.109 1.4286 0.6932 0.2286 0.5863-0.2249 1.6436-0.593 1.9396z"/>
   <path d="m64.504 8.8789-3.3874 9.6976c-0.5047 1.2181-1.0057 1.5535-1.4871 1.8332-0.4793 0.2788-1.1629 0.4103-1.6712 0.3883-0.5145-0.0231-1.1024 0.011-1.6737-0.6586-0.5347-0.6245-0.2338-1.9171 0.2078-2.9823l2.9039-8.2782h-4.6004l-3.1216 8.876c-0.2559 0.8404-0.6618 2.2362-0.107 3.6791 0.5548 1.4461 1.8118 2.1356 2.9478 2.4678 1.1391 0.3332 2.1262 0.3369 3.892 0.2683 1.7669-0.0708 3.6206-0.6047 4.6004-1.2308 0.9783-0.6235 1.5595-1.2328 2.3574-2.8361l3.9654-11.224z"/>
   <path d="m42.019 8.8975-10.107 14.922h4.3383l2.2694-3.3081h6.1919l0.1309 3.3081h4.7064l-0.5668-14.922zm-1.2441 8.2908 3.5989-5.3185 0.2063 5.3185z"/>
   <path d="m37.343 12.216 1.3444-3.3181h-14.08l-1.1919 3.208 4.7483 0.0068-4.0647 11.731h4.8682l4.0942-11.6z"/>
   <path d="m26.151 6.9678c-1.6428-1.04-3.9489-1.8118-6.1754-2.0921-2.1826-0.27664-5.3326 0.41496-5.7483 2.7402-0.7725 4.3397 9.9878 5.4395 8.647 12.956-1.1795 6.6268-7.7396 8.6283-14.413 7.7816-2.9261-0.371-6.0958-1.6148-8.4614-3.0032l2.2979-4.2235c1.9194 1.2669 4.5099 2.4735 7.1304 2.8041 2.9241 0.371 5.86-0.5129 6.5979-3.371 1.0703-4.1475-10.391-5.5066-8.7293-12.938 1.2648-5.647 7.4531-7.694 13.297-6.9537 2.6644 0.33794 5.2777 1.0625 7.6015 2.2692z"/>
  </g>
 </g>
 <defs>
  <clipPath id="clip0_10359_1525">
   <rect   fill="#3d444d"/>
  </clipPath>
 </defs>
</svg>
